Araya-500.ufo
<glyph name="quotedbl" format="1">
  <advance width="317"/>
  <unicode hex="0022"/>
  <note>
	quotedbl
  </note>
  <outline>
    <contour>
      <point x="123" y="423" type="line"/>
      <point x="131" y="544" type="line" smooth="yes"/>
      <point x="132" y="567"/>
      <point x="132" y="590"/>
      <point x="128" y="616" type="curve"/>
      <point x="64" y="616" type="line"/>
      <point x="60" y="590"/>
      <point x="60" y="567"/>
      <point x="61" y="544" type="curve" smooth="yes"/>
      <point x="69" y="423" type="line"/>
    </contour>
    <contour>
      <point x="248" y="423" type="line"/>
      <point x="256" y="544" type="line" smooth="yes"/>
      <point x="257" y="567"/>
      <point x="257" y="590"/>
      <point x="253" y="616" type="curve"/>
      <point x="189" y="616" type="line"/>
      <point x="185" y="590"/>
      <point x="185" y="567"/>
      <point x="186" y="544" type="curve" smooth="yes"/>
      <point x="194" y="423" type="line"/>
    </contour>
  </outline>
</glyph>
<glyph name="numbersign" format="1">
  <advance width="684"/>
  <unicode hex="0023"/>
  <note>
	numbersign
  </note>
  <outline>
    <contour>
      <point x="248" y="174" type="line"/>
      <point x="389" y="174" type="line"/>
      <point x="365" y="0" type="line"/>
      <point x="445" y="-4" type="line"/>
      <point x="469" y="174" type="line"/>
      <point x="591" y="174" type="line"/>
      <point x="591" y="248" type="line"/>
      <point x="479" y="248" type="line"/>
      <point x="496" y="378" type="line"/>
      <point x="614" y="378" type="line"/>
      <point x="614" y="452" type="line"/>
      <point x="506" y="452" type="line"/>
      <point x="529" y="623" type="line"/>
      <point x="451" y="626" type="line"/>
      <point x="427" y="452" type="line"/>
      <point x="285" y="452" type="line"/>
      <point x="308" y="623" type="line"/>
      <point x="230" y="626" type="line"/>
      <point x="206" y="452" type="line"/>
      <point x="84" y="452" type="line"/>
      <point x="84" y="378" type="line"/>
      <point x="196" y="378" type="line"/>
      <point x="178" y="248" type="line"/>
      <point x="60" y="248" type="line"/>
      <point x="60" y="174" type="line"/>
      <point x="168" y="174" type="line"/>
      <point x="144" y="0" type="line"/>
      <point x="224" y="-4" type="line"/>
    </contour>
    <contour>
      <point x="275" y="378" type="line"/>
      <point x="417" y="378" type="line"/>
      <point x="399" y="248" type="line"/>
      <point x="258" y="248" type="line"/>
    </contour>
  </outline>
</glyph>
<glyph name="dollar" format="1">
  <advance width="516"/>
  <unicode hex="0024"/>
  <note>
	dollar
  </note>
  <outline>
    <contour>
      <point x="299" y="-110" type="line"/>
      <point x="299" y="-5" type="line"/>
      <point x="426" y="10"/>
      <point x="466" y="91"/>
      <point x="466" y="177" type="curve" smooth="yes"/>
      <point x="466" y="279"/>
      <point x="403" y="320"/>
      <point x="279" y="348" type="curve" smooth="yes"/>
      <point x="177" y="371"/>
      <point x="148" y="394"/>
      <point x="148" y="451" type="curve" smooth="yes"/>
      <point x="148" y="518"/>
      <point x="177" y="550"/>
      <point x="265" y="550" type="curve" smooth="yes"/>
      <point x="299" y="550"/>
      <point x="326" y="547"/>
      <point x="354" y="543" type="curve"/>
      <point x="367" y="468" type="line"/>
      <point x="428" y="468" type="line"/>
      <point x="437" y="493"/>
      <point x="445" y="528"/>
      <point x="445" y="558" type="curve" smooth="yes"/>
      <point x="445" y="584" type="line"/>
      <point x="408" y="605"/>
      <point x="369" y="622"/>
      <point x="299" y="625" type="curve"/>
      <point x="299" y="716" type="line"/>
      <point x="222" y="716" type="line"/>
      <point x="222" y="623" type="line"/>
      <point x="101" y="606"/>
      <point x="63" y="525"/>
      <point x="63" y="444" type="curve" smooth="yes"/>
      <point x="63" y="330"/>
      <point x="153" y="293"/>
      <point x="257" y="268" type="curve" smooth="yes"/>
      <point x="349" y="246"/>
      <point x="381" y="220"/>
      <point x="381" y="159" type="curve" smooth="yes"/>
      <point x="381" y="133"/>
      <point x="377" y="105"/>
      <point x="369" y="84" type="curve"/>
      <point x="339" y="77"/>
      <point x="304" y="73"/>
      <point x="261" y="73" type="curve" smooth="yes"/>
      <point x="195" y="73"/>
      <point x="137" y="85"/>
      <point x="79" y="115" type="curve"/>
      <point x="50" y="41" type="line"/>
      <point x="104" y="12"/>
      <point x="161" y="-3"/>
      <point x="222" y="-7" type="curve"/>
      <point x="222" y="-110" type="line"/>
    </contour>
  </outline>
</glyph>
<glyph name="quotesingle" format="1">
  <advance width="232"/>
  <unicode hex="0027"/>
  <note>
	quotesingle
  </note>
  <outline>
    <contour>
      <point x="143" y="423" type="line"/>
      <point x="151" y="544" type="line" smooth="yes"/>
      <point x="152" y="567"/>
      <point x="152" y="590"/>
      <point x="148" y="616" type="curve"/>
      <point x="84" y="616" type="line"/>
      <point x="80" y="590"/>
      <point x="80" y="567"/>
      <point x="81" y="544" type="curve" smooth="yes"/>
      <point x="89" y="423" type="line"/>
    </contour>
  </outline>
</glyph>
<glyph name="parenleft" format="1">
  <advance width="309"/>
  <unicode hex="0028"/>
  <note>
	parenleft
  </note>
  <outline>
    <contour>
      <point x="189" y="-97"/>
      <point x="217" y="-95"/>
      <point x="237" y="-91" type="curve"/>
      <point x="237" y="-19" type="line"/>
      <point x="159" y="-19" type="line"/>
      <point x="159" y="635" type="line"/>
      <point x="237" y="635" type="line"/>
      <point x="237" y="707" type="line"/>
      <point x="217" y="711"/>
      <point x="189" y="713"/>
      <point x="163" y="713" type="curve"/>
      <point x="118" y="701"/>
      <point x="79" y="657"/>
      <point x="75" y="620" type="curve"/>
      <point x="75" y="-4" type="line"/>
      <point x="79" y="-41"/>
      <point x="118" y="-85"/>
      <point x="163" y="-97" type="curve"/>
    </contour>
  </outline>
</glyph>
<glyph name="plus" format="1">
  <advance width="540"/>
  <unicode hex="002B"/>
  <note>
	plus
  </note>
  <outline>
    <contour>
      <point x="306" y="82" type="line"/>
      <point x="306" y="272" type="line"/>
      <point x="490" y="272" type="line"/>
      <point x="490" y="338" type="line"/>
      <point x="306" y="338" type="line"/>
      <point x="306" y="512" type="line"/>
      <point x="234" y="512" type="line"/>
      <point x="234" y="338" type="line"/>
      <point x="50" y="338" type="line"/>
      <point x="50" y="272" type="line"/>
      <point x="234" y="272" type="line"/>
      <point x="234" y="82" type="line"/>
    </contour>
  </outline>
</glyph>
<glyph name="comma" format="1">
  <advance width="238"/>
  <unicode hex="002C"/>
  <note>
	comma
  </note>
  <outline>
    <contour>
      <point x="159" y="-65"/>
      <point x="178" y="-19"/>
      <point x="178" y="22" type="curve" smooth="yes"/>
      <point x="178" y="70"/>
      <point x="158" y="94"/>
      <point x="112" y="94" type="curve" smooth="yes"/>
      <point x="96" y="94"/>
      <point x="78" y="91"/>
      <point x="62" y="85" type="curve"/>
      <point x="62" y="29" type="line"/>
      <point x="115" y="29" type="line"/>
      <point x="115" y="-11"/>
      <point x="102" y="-49"/>
      <point x="81" y="-88" type="curve"/>
      <point x="130" y="-99" type="line"/>
    </contour>
  </outline>
</glyph>
<glyph name="hyphen" format="1">
  <advance width="430"/>
  <unicode hex="002D"/>
  <note>
	hyphen
  </note>
  <outline>
    <contour>
      <point x="355" y="244" type="line"/>
      <point x="355" y="314" type="line"/>
      <point x="75" y="314" type="line"/>
      <point x="75" y="244" type="line"/>
    </contour>
  </outline>
</glyph>
<glyph name="period" format="1">
  <advance width="246"/>
  <unicode hex="002E"/>
  <note>
	period
  </note>
  <outline>
    <contour>
      <point x="171" y="0" type="line"/>
      <point x="171" y="100" type="line"/>
      <point x="75" y="100" type="line"/>
      <point x="75" y="0" type="line"/>
    </contour>
  </outline>
</glyph>
<glyph name="slash" format="1">
  <advance width="447"/>
  <unicode hex="002F"/>
  <note>
	slash
  </note>
  <outline>
    <contour>
      <point x="389" y="646" type="line"/>
      <point x="319" y="663" type="line"/>
      <point x="58" y="-77" type="line"/>
      <point x="128" y="-95" type="line"/>
    </contour>
  </outline>
</glyph>
<glyph name="one" format="1">
  <advance width="363"/>
  <unicode hex="0031"/>
  <note>
	one
  </note>
  <outline>
    <contour>
      <point x="275" y="0" type="line"/>
      <point x="275" y="555" type="line" smooth="yes"/>
      <point x="275" y="575"/>
      <point x="221" y="606"/>
      <point x="192" y="606" type="curve"/>
      <point x="40" y="530" type="line"/>
      <point x="63" y="472" type="line"/>
      <point x="180" y="514" type="line"/>
      <point x="189" y="508" type="line"/>
      <point x="189" y="0" type="line"/>
    </contour>
  </outline>
</glyph>
<glyph name="two" format="1">
  <advance width="549"/>
  <unicode hex="0032"/>
  <note>
	two
  </note>
  <outline>
    <contour>
      <point x="491" y="0" type="line"/>
      <point x="491" y="54" type="line" smooth="yes"/>
      <point x="491" y="84"/>
      <point x="485" y="114"/>
      <point x="475" y="139" type="curve"/>
      <point x="405" y="139" type="line"/>
      <point x="405" y="75" type="line"/>
      <point x="157" y="75" type="line"/>
      <point x="157" y="84" type="line"/>
      <point x="317" y="190"/>
      <point x="467" y="287"/>
      <point x="467" y="438" type="curve" smooth="yes"/>
      <point x="467" y="549"/>
      <point x="412" y="606"/>
      <point x="275" y="606" type="curve" smooth="yes"/>
      <point x="198" y="606"/>
      <point x="132" y="590"/>
      <point x="73" y="562" type="curve"/>
      <point x="73" y="510" type="line" smooth="yes"/>
      <point x="73" y="476"/>
      <point x="80" y="446"/>
      <point x="90" y="419" type="curve"/>
      <point x="158" y="419" type="line"/>
      <point x="158" y="513" type="line"/>
      <point x="195" y="525"/>
      <point x="228" y="530"/>
      <point x="270" y="530" type="curve" smooth="yes"/>
      <point x="345" y="530"/>
      <point x="381" y="509"/>
      <point x="381" y="433" type="curve" smooth="yes"/>
      <point x="381" y="321"/>
      <point x="227" y="220"/>
      <point x="53" y="101" type="curve"/>
      <point x="53" y="0" type="line"/>
    </contour>
  </outline>
</glyph>
<glyph name="four" format="1">
  <advance width="557"/>
  <unicode hex="0034"/>
  <note>
	four
  </note>
  <outline>
    <contour>
      <point x="429" y="0" type="line"/>
      <point x="429" y="110" type="line"/>
      <point x="515" y="110" type="line"/>
      <point x="515" y="185" type="line"/>
      <point x="429" y="185" type="line"/>
      <point x="429" y="606" type="line"/>
      <point x="319" y="606" type="line"/>
      <point x="36" y="187" type="line"/>
      <point x="58" y="110" type="line"/>
      <point x="348" y="110" type="line"/>
      <point x="348" y="0" type="line"/>
    </contour>
    <contour>
      <point x="129" y="193" type="line"/>
      <point x="347" y="518" type="line"/>
      <point x="355" y="518" type="line"/>
      <point x="348" y="376" type="line"/>
      <point x="348" y="185" type="line"/>
      <point x="131" y="185" type="line"/>
    </contour>
  </outline>
</glyph>
<glyph name="five" format="1">
  <advance width="515"/>
  <unicode hex="0035"/>
  <note>
	five
  </note>
  <outline>
    <contour>
      <point x="404" y="-10"/>
      <point x="467" y="64"/>
      <point x="467" y="192" type="curve" smooth="yes"/>
      <point x="467" y="322"/>
      <point x="396" y="374"/>
      <point x="273" y="374" type="curve" smooth="yes"/>
      <point x="228" y="374"/>
      <point x="191" y="365"/>
      <point x="156" y="354" type="curve"/>
      <point x="169" y="530" type="line"/>
      <point x="425" y="530" type="line"/>
      <point x="425" y="606" type="line"/>
      <point x="90" y="606" type="line"/>
      <point x="69" y="321" type="line"/>
      <point x="134" y="270" type="line"/>
      <point x="183" y="289"/>
      <point x="213" y="297"/>
      <point x="266" y="297" type="curve" smooth="yes"/>
      <point x="343" y="297"/>
      <point x="381" y="271"/>
      <point x="381" y="185" type="curve" smooth="yes"/>
      <point x="381" y="140"/>
      <point x="375" y="113"/>
      <point x="362" y="81" type="curve"/>
      <point x="330" y="72"/>
      <point x="296" y="67"/>
      <point x="246" y="67" type="curve" smooth="yes"/>
      <point x="186" y="67"/>
      <point x="129" y="76"/>
      <point x="65" y="94" type="curve"/>
      <point x="54" y="17" type="line"/>
      <point x="119" y="-2"/>
      <point x="174" y="-10"/>
      <point x="240" y="-10" type="curve" smooth="yes"/>
    </contour>
  </outline>
</glyph>
<glyph name="seven" format="1">
  <advance width="529"/>
  <unicode hex="0037"/>
  <note>
	seven
  </note>
  <outline>
    <contour>
      <point x="300" y="191"/>
      <point x="373" y="344"/>
      <point x="484" y="517" type="curve"/>
      <point x="484" y="606" type="line"/>
      <point x="48" y="606" type="line"/>
      <point x="48" y="538" type="line" smooth="yes"/>
      <point x="48" y="504"/>
      <point x="55" y="472"/>
      <point x="65" y="447" type="curve"/>
      <point x="133" y="447" type="line"/>
      <point x="133" y="530" type="line"/>
      <point x="394" y="530" type="line"/>
      <point x="394" y="523" type="line"/>
      <point x="297" y="385"/>
      <point x="219" y="230"/>
      <point x="171" y="10" type="curve"/>
      <point x="260" y="0" type="line"/>
    </contour>
  </outline>
</glyph>
<glyph name="eight" format="1">
  <advance width="555"/>
  <unicode hex="0038"/>
  <note>
	eight
  </note>
  <outline>
    <contour>
      <point x="428" y="-9"/>
      <point x="495" y="53"/>
      <point x="495" y="161" type="curve" smooth="yes"/>
      <point x="495" y="228"/>
      <point x="472" y="261"/>
      <point x="415" y="296" type="curve"/>
      <point x="415" y="304" type="line"/>
      <point x="458" y="332"/>
      <point x="484" y="367"/>
      <point x="484" y="432" type="curve" smooth="yes"/>
      <point x="484" y="540"/>
      <point x="425" y="606"/>
      <point x="294" y="606" type="curve" smooth="yes"/>
      <point x="149" y="606"/>
      <point x="75" y="536"/>
      <point x="75" y="432" type="curve" smooth="yes"/>
      <point x="75" y="373"/>
      <point x="99" y="346"/>
      <point x="139" y="317" type="curve"/>
      <point x="139" y="309" type="line"/>
      <point x="95" y="275"/>
      <point x="60" y="250"/>
      <point x="60" y="166" type="curve" smooth="yes"/>
      <point x="60" y="57"/>
      <point x="134" y="-9"/>
      <point x="272" y="-9" type="curve" smooth="yes"/>
    </contour>
    <contour>
      <point x="190" y="65"/>
      <point x="143" y="80"/>
      <point x="143" y="168" type="curve" smooth="yes"/>
      <point x="143" y="205"/>
      <point x="147" y="226"/>
      <point x="159" y="258" type="curve"/>
      <point x="191" y="268"/>
      <point x="236" y="271"/>
      <point x="272" y="271" type="curve" smooth="yes"/>
      <point x="382" y="271"/>
      <point x="412" y="247"/>
      <point x="412" y="146" type="curve" smooth="yes"/>
      <point x="412" y="120"/>
      <point x="408" y="101"/>
      <point x="401" y="82" type="curve"/>
      <point x="375" y="71"/>
      <point x="340" y="65"/>
      <point x="295" y="65" type="curve" smooth="yes"/>
    </contour>
    <contour>
      <point x="200" y="337"/>
      <point x="157" y="355"/>
      <point x="157" y="438" type="curve" smooth="yes"/>
      <point x="157" y="469"/>
      <point x="161" y="489"/>
      <point x="171" y="518" type="curve"/>
      <point x="199" y="528"/>
      <point x="237" y="532"/>
      <point x="272" y="532" type="curve" smooth="yes"/>
      <point x="377" y="532"/>
      <point x="402" y="514"/>
      <point x="402" y="419" type="curve" smooth="yes"/>
      <point x="402" y="394"/>
      <point x="398" y="370"/>
      <point x="390" y="348" type="curve"/>
      <point x="366" y="340"/>
      <point x="337" y="337"/>
      <point x="294" y="337" type="curve" smooth="yes"/>
    </contour>
  </outline>
</glyph>
<glyph name="semicolon" format="1">
  <advance width="266"/>
  <unicode hex="003B"/>
  <note>
	semicolon
  </note>
  <outline>
    <contour>
      <point x="172" y="-16"/>
      <point x="191" y="30"/>
      <point x="191" y="71" type="curve" smooth="yes"/>
      <point x="191" y="119"/>
      <point x="171" y="143"/>
      <point x="125" y="143" type="curve" smooth="yes"/>
      <point x="109" y="143"/>
      <point x="91" y="140"/>
      <point x="75" y="134" type="curve"/>
      <point x="75" y="78" type="line"/>
      <point x="128" y="78" type="line"/>
      <point x="128" y="38"/>
      <point x="115" y="0"/>
      <point x="94" y="-39" type="curve"/>
      <point x="143" y="-50" type="line"/>
    </contour>
    <contour>
      <point x="174" y="335" type="line"/>
      <point x="174" y="435" type="line"/>
      <point x="78" y="435" type="line"/>
      <point x="78" y="335" type="line"/>
    </contour>
  </outline>
</glyph>
<glyph name="less" format="1">
  <advance width="560"/>
  <unicode hex="003C"/>
  <note>
	less
  </note>
  <outline>
    <contour>
      <point x="485" y="98" type="line"/>
      <point x="132" y="246" type="line"/>
      <point x="132" y="252" type="line"/>
      <point x="485" y="400" type="line"/>
      <point x="464" y="471" type="line"/>
      <point x="55" y="288" type="line"/>
      <point x="55" y="210" type="line"/>
      <point x="464" y="27" type="line"/>
    </contour>
  </outline>
</glyph>
<glyph name="H" format="1">
  <advance width="600"/>
  <unicode hex="0048"/>
  <note>
	H
  </note>
  <outline>
    <contour>
      <point x="160" y="0" type="line"/>
      <point x="160" y="260" type="line"/>
      <point x="440" y="260" type="line"/>
      <point x="440" y="0" type="line"/>
      <point x="525" y="0" type="line"/>
      <point x="525" y="616" type="line"/>
      <point x="440" y="616" type="line"/>
      <point x="440" y="338" type="line"/>
      <point x="160" y="338" type="line"/>
      <point x="160" y="616" type="line"/>
      <point x="75" y="616" type="line"/>
      <point x="75" y="0" type="line"/>
    </contour>
  </outline>
</glyph>
<glyph name="J" format="1">
  <advance width="423"/>
  <unicode hex="004A"/>
  <note>
	J
  </note>
  <outline>
    <contour>
      <point x="276" y="-8"/>
      <point x="350" y="42"/>
      <point x="350" y="137" type="curve" smooth="yes"/>
      <point x="350" y="616" type="line"/>
      <point x="266" y="616" type="line"/>
      <point x="266" y="141" type="line" smooth="yes"/>
      <point x="266" y="119"/>
      <point x="264" y="101"/>
      <point x="259" y="86" type="curve"/>
      <point x="241" y="76"/>
      <point x="212" y="68"/>
      <point x="172" y="68" type="curve" smooth="yes"/>
      <point x="125" y="68"/>
      <point x="81" y="79"/>
      <point x="49" y="91" type="curve"/>
      <point x="30" y="18" type="line"/>
      <point x="67" y="2"/>
      <point x="122" y="-8"/>
      <point x="171" y="-8" type="curve" smooth="yes"/>
    </contour>
  </outline>
</glyph>
<glyph name="N" format="1">
  <advance width="625"/>
  <unicode hex="004E"/>
  <note>
	N
  </note>
  <outline>
    <contour>
      <point x="161" y="0" type="line"/>
      <point x="161" y="328" type="line"/>
      <point x="151" y="485" type="line"/>
      <point x="159" y="487" type="line"/>
      <point x="454" y="0" type="line"/>
      <point x="550" y="0" type="line"/>
      <point x="550" y="616" type="line"/>
      <point x="464" y="616" type="line"/>
      <point x="464" y="288" type="line"/>
      <point x="474" y="131" type="line"/>
      <point x="466" y="129" type="line"/>
      <point x="171" y="616" type="line"/>
      <point x="75" y="616" type="line"/>
      <point x="75" y="0" type="line"/>
    </contour>
  </outline>
</glyph>
<glyph name="P" format="1">
  <advance width="527"/>
  <unicode hex="0050"/>
  <note>
	P
  </note>
  <outline>
    <contour>
      <point x="160" y="0" type="line"/>
      <point x="160" y="197" type="line"/>
      <point x="232" y="197" type="line" smooth="yes"/>
      <point x="414" y="197"/>
      <point x="495" y="268"/>
      <point x="495" y="418" type="curve" smooth="yes"/>
      <point x="495" y="559"/>
      <point x="403" y="626"/>
      <point x="248" y="626" type="curve" smooth="yes"/>
      <point x="189" y="626"/>
      <point x="127" y="615"/>
      <point x="75" y="600" type="curve"/>
      <point x="75" y="0" type="line"/>
    </contour>
    <contour>
      <point x="160" y="541" type="line"/>
      <point x="184" y="547"/>
      <point x="216" y="549"/>
      <point x="247" y="549" type="curve" smooth="yes"/>
      <point x="342" y="549"/>
      <point x="409" y="516"/>
      <point x="409" y="415" type="curve" smooth="yes"/>
      <point x="409" y="362"/>
      <point x="398" y="316"/>
      <point x="376" y="286" type="curve"/>
      <point x="338" y="276"/>
      <point x="292" y="273"/>
      <point x="222" y="273" type="curve" smooth="yes"/>
      <point x="160" y="273" type="line"/>
    </contour>
  </outline>
</glyph>
<glyph name="Q" format="1">
  <advance width="623"/>
  <unicode hex="0051"/>
  <note>
	Q
  </note>
  <outline>
    <contour>
      <point x="437" y="-137"/>
      <point x="495" y="-134"/>
      <point x="540" y="-121" type="curve"/>
      <point x="525" y="-58" type="line"/>
      <point x="480" y="-68"/>
      <point x="424" y="-71"/>
      <point x="380" y="-71" type="curve" smooth="yes"/>
      <point x="354" y="-71"/>
      <point x="323" y="-69"/>
      <point x="304" y="-65" type="curve"/>
      <point x="304" y="1" type="line"/>
      <point x="307" y="1"/>
      <point x="310" y="1"/>
      <point x="313" y="1" type="curve" smooth="yes"/>
      <point x="500" y="4"/>
      <point x="569" y="109"/>
      <point x="569" y="326" type="curve" smooth="yes"/>
      <point x="569" y="527"/>
      <point x="490" y="626"/>
      <point x="318" y="626" type="curve" smooth="yes"/>
      <point x="123" y="626"/>
      <point x="52" y="521"/>
      <point x="52" y="301" type="curve" smooth="yes"/>
      <point x="52" y="127"/>
      <point x="117" y="29"/>
      <point x="241" y="6" type="curve"/>
      <point x="221" y="-62" type="line"/>
      <point x="221" y="-113" type="line"/>
      <point x="249" y="-126"/>
      <point x="329" y="-137"/>
      <point x="381" y="-137" type="curve" smooth="yes"/>
    </contour>
    <contour>
      <point x="184" y="79"/>
      <point x="137" y="151"/>
      <point x="137" y="320" type="curve" smooth="yes"/>
      <point x="137" y="402"/>
      <point x="155" y="476"/>
      <point x="180" y="530" type="curve"/>
      <point x="205" y="540"/>
      <point x="257" y="548"/>
      <point x="304" y="548" type="curve" smooth="yes"/>
      <point x="438" y="548"/>
      <point x="484" y="476"/>
      <point x="484" y="307" type="curve" smooth="yes"/>
      <point x="484" y="223"/>
      <point x="459" y="148"/>
      <point x="436" y="97" type="curve"/>
      <point x="411" y="87"/>
      <point x="364" y="79"/>
      <point x="317" y="79" type="curve" smooth="yes"/>
    </contour>
  </outline>
</glyph>
<glyph name="T" format="1">
  <advance width="553"/>
  <unicode hex="0054"/>
  <note>
	T
  </note>
  <outline>
    <contour>
      <point x="319" y="0" type="line"/>
      <point x="319" y="538" type="line"/>
      <point x="517" y="538" type="line"/>
      <point x="517" y="616" type="line"/>
      <point x="36" y="616" type="line"/>
      <point x="36" y="538" type="line"/>
      <point x="234" y="538" type="line"/>
      <point x="234" y="0" type="line"/>
    </contour>
  </outline>
</glyph>
<glyph name="Y" format="1">
  <advance width="615"/>
  <unicode hex="0059"/>
  <note>
	Y
  </note>
  <outline>
    <contour>
      <point x="350" y="0" type="line"/>
      <point x="350" y="211" type="line"/>
      <point x="371" y="211" type="line"/>
      <point x="465" y="338"/>
      <point x="523" y="447"/>
      <point x="587" y="600" type="curve"/>
      <point x="502" y="621" type="line"/>
      <point x="448" y="488"/>
      <point x="382" y="365"/>
      <point x="323" y="278" type="curve"/>
      <point x="292" y="278" type="line"/>
      <point x="233" y="365"/>
      <point x="167" y="488"/>
      <point x="113" y="621" type="curve"/>
      <point x="28" y="600" type="line"/>
      <point x="92" y="447"/>
      <point x="150" y="338"/>
      <point x="244" y="211" type="curve"/>
      <point x="265" y="211" type="line"/>
      <point x="265" y="0" type="line"/>
    </contour>
  </outline>
</glyph>
<glyph name="Z" format="1">
  <advance width="563"/>
  <unicode hex="005A"/>
  <note>
	Z
  </note>
  <outline>
    <contour>
      <point x="515" y="0" type="line"/>
      <point x="515" y="49" type="line" smooth="yes"/>
      <point x="515" y="79"/>
      <point x="507" y="115"/>
      <point x="498" y="140" type="curve"/>
      <point x="424" y="140" type="line"/>
      <point x="424" y="75" type="line"/>
      <point x="154" y="75" type="line"/>
      <point x="154" y="91" type="line"/>
      <point x="501" y="534" type="line"/>
      <point x="501" y="616" type="line"/>
      <point x="60" y="616" type="line"/>
      <point x="60" y="567" type="line" smooth="yes"/>
      <point x="60" y="536"/>
      <point x="68" y="501"/>
      <point x="77" y="476" type="curve"/>
      <point x="151" y="476" type="line"/>
      <point x="151" y="540" type="line"/>
      <point x="396" y="540" type="line"/>
      <point x="396" y="527" type="line"/>
      <point x="50" y="82" type="line"/>
      <point x="50" y="0" type="line"/>
    </contour>
  </outline>
</glyph>
<glyph name="b" format="1">
  <advance width="530"/>
  <unicode hex="0062"/>
  <note>
	b
  </note>
  <outline>
    <contour>
      <point x="397" y="-8"/>
      <point x="480" y="82"/>
      <point x="480" y="247" type="curve" smooth="yes"/>
      <point x="480" y="368"/>
      <point x="439" y="478"/>
      <point x="307" y="478" type="curve" smooth="yes"/>
      <point x="249" y="478"/>
      <point x="195" y="441"/>
      <point x="159" y="403" type="curve"/>
      <point x="153" y="403" type="line"/>
      <point x="156" y="468" type="line"/>
      <point x="156" y="671" type="line"/>
      <point x="74" y="671" type="line"/>
      <point x="74" y="18" type="line"/>
      <point x="126" y="3"/>
      <point x="185" y="-8"/>
      <point x="244" y="-8" type="curve" smooth="yes"/>
    </contour>
    <contour>
      <point x="215" y="62"/>
      <point x="176" y="67"/>
      <point x="156" y="72" type="curve"/>
      <point x="156" y="340" type="line"/>
      <point x="190" y="384"/>
      <point x="236" y="408"/>
      <point x="282" y="408" type="curve" smooth="yes"/>
      <point x="364" y="408"/>
      <point x="394" y="357"/>
      <point x="394" y="244" type="curve" smooth="yes"/>
      <point x="394" y="106"/>
      <point x="349" y="62"/>
      <point x="246" y="62" type="curve" smooth="yes"/>
    </contour>
  </outline>
</glyph>
<glyph name="f" format="1">
  <advance width="343"/>
  <unicode hex="0066"/>
  <note>
	f
  </note>
  <outline>
    <contour>
      <point x="174" y="0" type="line"/>
      <point x="174" y="404" type="line"/>
      <point x="280" y="404" type="line"/>
      <point x="290" y="470" type="line"/>
      <point x="174" y="470" type="line"/>
      <point x="174" y="537" type="line" smooth="yes"/>
      <point x="174" y="559"/>
      <point x="175" y="575"/>
      <point x="181" y="592" type="curve"/>
      <point x="197" y="598"/>
      <point x="220" y="601"/>
      <point x="240" y="601" type="curve" smooth="yes"/>
      <point x="270" y="601"/>
      <point x="289" y="595"/>
      <point x="318" y="582" type="curve"/>
      <point x="340" y="650" type="line"/>
      <point x="315" y="663"/>
      <point x="284" y="674"/>
      <point x="243" y="674" type="curve" smooth="yes"/>
      <point x="225" y="674"/>
      <point x="199" y="672"/>
      <point x="177" y="667" type="curve"/>
      <point x="143" y="649"/>
      <point x="94" y="605"/>
      <point x="94" y="552" type="curve" smooth="yes"/>
      <point x="94" y="470" type="line"/>
      <point x="40" y="470" type="line"/>
      <point x="30" y="404" type="line"/>
      <point x="94" y="404" type="line"/>
      <point x="94" y="0" type="line"/>
    </contour>
  </outline>
</glyph>
<glyph name="i" format="1">
  <advance width="232"/>
  <unicode hex="0069"/>
  <note>
	i
  </note>
  <outline>
    <contour>
      <point x="156" y="0" type="line"/>
      <point x="156" y="470" type="line"/>
      <point x="76" y="470" type="line"/>
      <point x="76" y="0" type="line"/>
    </contour>
    <contour>
      <point x="159" y="554" type="line"/>
      <point x="159" y="654" type="line"/>
      <point x="73" y="654" type="line"/>
      <point x="73" y="554" type="line"/>
    </contour>
  </outline>
</glyph>
<glyph name="j" format="1">
  <advance width="274"/>
  <unicode hex="006A"/>
  <note>
	j
  </note>
  <outline>
    <contour>
      <point x="146" y="-198"/>
      <point x="201" y="-151"/>
      <point x="201" y="-65" type="curve" smooth="yes"/>
      <point x="201" y="470" type="line"/>
      <point x="121" y="470" type="line"/>
      <point x="121" y="-61" type="line" smooth="yes"/>
      <point x="121" y="-83"/>
      <point x="120" y="-101"/>
      <point x="114" y="-118" type="curve"/>
      <point x="98" y="-123"/>
      <point x="85" y="-125"/>
      <point x="65" y="-125" type="curve" smooth="yes"/>
      <point x="35" y="-125"/>
      <point x="17" y="-122"/>
      <point x="-15" y="-112" type="curve"/>
      <point x="-34" y="-182" type="line"/>
      <point x="-3" y="-193"/>
      <point x="34" y="-198"/>
      <point x="64" y="-198" type="curve" smooth="yes"/>
    </contour>
    <contour>
      <point x="204" y="554" type="line"/>
      <point x="204" y="654" type="line"/>
      <point x="118" y="654" type="line"/>
      <point x="118" y="554" type="line"/>
    </contour>
  </outline>
</glyph>
<glyph name="p" format="1">
  <advance width="530"/>
  <unicode hex="0070"/>
  <note>
	p
  </note>
  <outline>
    <contour>
      <point x="156" y="-187" type="line"/>
      <point x="156" y="-9" type="line"/>
      <point x="153" y="56" type="line"/>
      <point x="159" y="56" type="line"/>
      <point x="195" y="18"/>
      <point x="249" y="-8"/>
      <point x="307" y="-8" type="curve" smooth="yes"/>
      <point x="439" y="-8"/>
      <point x="480" y="114"/>
      <point x="480" y="235" type="curve" smooth="yes"/>
      <point x="480" y="386"/>
      <point x="433" y="478"/>
      <point x="305" y="478" type="curve" smooth="yes"/>
      <point x="237" y="478"/>
      <point x="191" y="443"/>
      <point x="159" y="406" type="curve"/>
      <point x="151" y="406" type="line"/>
      <point x="147" y="470" type="line"/>
      <point x="74" y="470" type="line"/>
      <point x="74" y="-187" type="line"/>
    </contour>
    <contour>
      <point x="236" y="62"/>
      <point x="193" y="78"/>
      <point x="156" y="119" type="curve"/>
      <point x="156" y="331" type="line"/>
      <point x="174" y="367"/>
      <point x="214" y="408"/>
      <point x="276" y="408" type="curve" smooth="yes"/>
      <point x="370" y="408"/>
      <point x="394" y="356"/>
      <point x="394" y="238" type="curve" smooth="yes"/>
      <point x="394" y="125"/>
      <point x="364" y="62"/>
      <point x="282" y="62" type="curve" smooth="yes"/>
    </contour>
  </outline>
</glyph>
<glyph name="q" format="1">
  <advance width="530"/>
  <unicode hex="0071"/>
  <note>
	q
  </note>
  <outline>
    <contour>
      <point x="451" y="-187" type="line"/>
      <point x="451" y="453" type="line"/>
      <point x="399" y="468"/>
      <point x="345" y="479"/>
      <point x="286" y="479" type="curve" smooth="yes"/>
      <point x="133" y="479"/>
      <point x="50" y="389"/>
      <point x="50" y="224" type="curve" smooth="yes"/>
      <point x="50" y="103"/>
      <point x="91" y="-8"/>
      <point x="223" y="-8" type="curve" smooth="yes"/>
      <point x="290" y="-8"/>
      <point x="330" y="23"/>
      <point x="366" y="64" type="curve"/>
      <point x="372" y="64" type="line"/>
      <point x="369" y="3" type="line"/>
      <point x="369" y="-187" type="line"/>
    </contour>
    <contour>
      <point x="166" y="62"/>
      <point x="136" y="114"/>
      <point x="136" y="227" type="curve" smooth="yes"/>
      <point x="136" y="365"/>
      <point x="181" y="409"/>
      <point x="284" y="409" type="curve" smooth="yes"/>
      <point x="315" y="409"/>
      <point x="349" y="404"/>
      <point x="369" y="399" type="curve"/>
      <point x="369" y="131" type="line"/>
      <point x="335" y="87"/>
      <point x="294" y="62"/>
      <point x="248" y="62" type="curve" smooth="yes"/>
    </contour>
  </outline>
</glyph>
<glyph name="asciitilde" format="1">
  <advance width="452"/>
  <unicode hex="007E"/>
  <note>
	asciitilde
  </note>
  <outline>
    <contour>
      <point x="118" y="257"/>
      <point x="135" y="274"/>
      <point x="160" y="274" type="curve" smooth="yes"/>
      <point x="192" y="274"/>
      <point x="231" y="228"/>
      <point x="300" y="228" type="curve" smooth="yes"/>
      <point x="355" y="228"/>
      <point x="396" y="256"/>
      <point x="402" y="343" type="curve"/>
      <point x="337" y="353" type="line"/>
      <point x="334" y="317"/>
      <point x="317" y="300"/>
      <point x="292" y="300" type="curve" smooth="yes"/>
      <point x="250" y="300"/>
      <point x="218" y="346"/>
      <point x="152" y="346" type="curve" smooth="yes"/>
      <point x="97" y="346"/>
      <point x="56" y="318"/>
      <point x="50" y="231" type="curve"/>
      <point x="115" y="221" type="line"/>
    </contour>
  </outline>
</glyph>
<glyph name="brokenbar" format="1">
  <advance width="239"/>
  <unicode hex="00A6"/>
  <note>
	brokenbar
  </note>
  <outline>
    <contour>
      <point x="157" y="304" type="line"/>
      <point x="157" y="626" type="line"/>
      <point x="82" y="626" type="line"/>
      <point x="82" y="304" type="line"/>
    </contour>
    <contour>
      <point x="157" y="-110" type="line"/>
      <point x="157" y="212" type="line"/>
      <point x="82" y="212" type="line"/>
      <point x="82" y="-110" type="line"/>
    </contour>
  </outline>
</glyph>
<glyph name="dieresis" format="1">
  <advance width="370"/>
  <unicode hex="00A8"/>
  <note>
	dieresis
  </note>
  <outline>
    <contour>
      <point x="293" y="469"/>
      <point x="310" y="485"/>
      <point x="310" y="512" type="curve" smooth="yes"/>
      <point x="310" y="540"/>
      <point x="293" y="556"/>
      <point x="264" y="556" type="curve" smooth="yes"/>
      <point x="235" y="556"/>
      <point x="217" y="540"/>
      <point x="217" y="512" type="curve" smooth="yes"/>
      <point x="217" y="485"/>
      <point x="235" y="469"/>
      <point x="264" y="469" type="curve" smooth="yes"/>
    </contour>
    <contour>
      <point x="135" y="469"/>
      <point x="152" y="485"/>
      <point x="152" y="512" type="curve" smooth="yes"/>
      <point x="152" y="540"/>
      <point x="135" y="556"/>
      <point x="106" y="556" type="curve" smooth="yes"/>
      <point x="78" y="556"/>
      <point x="60" y="540"/>
      <point x="60" y="512" type="curve" smooth="yes"/>
      <point x="60" y="485"/>
      <point x="78" y="469"/>
      <point x="106" y="469" type="curve" smooth="yes"/>
    </contour>
  </outline>
</glyph>
<glyph name="ordfeminine" format="1">
  <advance width="357"/>
  <unicode hex="00AA"/>
  <note>
	ordfeminine
  </note>
  <outline>
    <contour>
      <point x="184" y="265"/>
      <point x="217" y="280"/>
      <point x="242" y="314" type="curve"/>
      <point x="248" y="314" type="line"/>
      <point x="251" y="270" type="line"/>
      <point x="312" y="270" type="line"/>
      <point x="312" y="510" type="line" smooth="yes"/>
      <point x="312" y="577"/>
      <point x="269" y="616"/>
      <point x="196" y="616" type="curve" smooth="yes"/>
      <point x="152" y="616"/>
      <point x="100" y="602"/>
      <point x="67" y="584" type="curve"/>
      <point x="67" y="560" type="line" smooth="yes"/>
      <point x="67" y="543"/>
      <point x="72" y="524"/>
      <point x="77" y="510" type="curve"/>
      <point x="120" y="510" type="line"/>
      <point x="128" y="554" type="line"/>
      <point x="143" y="557"/>
      <point x="167" y="559"/>
      <point x="185" y="559" type="curve" smooth="yes"/>
      <point x="227" y="559"/>
      <point x="243" y="544"/>
      <point x="243" y="503" type="curve" smooth="yes"/>
      <point x="243" y="462" type="line"/>
      <point x="229" y="464"/>
      <point x="217" y="464"/>
      <point x="203" y="464" type="curve" smooth="yes"/>
      <point x="109" y="464"/>
      <point x="43" y="429"/>
      <point x="43" y="352" type="curve" smooth="yes"/>
      <point x="43" y="299"/>
      <point x="81" y="265"/>
      <point x="145" y="265" type="curve" smooth="yes"/>
    </contour>
    <contour>
      <point x="128" y="323"/>
      <point x="113" y="337"/>
      <point x="113" y="363" type="curve" smooth="yes"/>
      <point x="113" y="377"/>
      <point x="115" y="387"/>
      <point x="121" y="403" type="curve"/>
      <point x="139" y="407"/>
      <point x="160" y="409"/>
      <point x="185" y="409" type="curve" smooth="yes"/>
      <point x="211" y="409"/>
      <point x="228" y="408"/>
      <point x="246" y="405" type="curve"/>
      <point x="246" y="364" type="line"/>
      <point x="220" y="337"/>
      <point x="194" y="323"/>
      <point x="157" y="323" type="curve" smooth="yes"/>
    </contour>
  </outline>
</glyph>
<glyph name="guillemotleft" format="1">
  <advance width="454"/>
  <unicode hex="00AB"/>
  <note>
	guillemotleft
  </note>
  <outline>
    <contour>
      <point x="399" y="102" type="line"/>
      <point x="291" y="248" type="line"/>
      <point x="291" y="254" type="line"/>
      <point x="399" y="400" type="line"/>
      <point x="338" y="429" type="line"/>
      <point x="208" y="251" type="line"/>
      <point x="338" y="73" type="line"/>
    </contour>
    <contour>
      <point x="239" y="102" type="line"/>
      <point x="131" y="248" type="line"/>
      <point x="131" y="254" type="line"/>
      <point x="239" y="400" type="line"/>
      <point x="178" y="429" type="line"/>
      <point x="48" y="251" type="line"/>
      <point x="178" y="73" type="line"/>
    </contour>
  </outline>
</glyph>
<glyph name="plusminus" format="1">
  <advance width="590"/>
  <unicode hex="00B1"/>
  <note>
	plusminus
  </note>
  <outline>
    <contour>
      <point x="333" y="117" type="line"/>
      <point x="333" y="306" type="line"/>
      <point x="515" y="306" type="line"/>
      <point x="515" y="372" type="line"/>
      <point x="333" y="372" type="line"/>
      <point x="333" y="547" type="line"/>
      <point x="257" y="547" type="line"/>
      <point x="257" y="372" type="line"/>
      <point x="75" y="372" type="line"/>
      <point x="75" y="306" type="line"/>
      <point x="257" y="306" type="line"/>
      <point x="257" y="117" type="line"/>
    </contour>
    <contour>
      <point x="515" y="0" type="line"/>
      <point x="515" y="61" type="line"/>
      <point x="85" y="61" type="line"/>
      <point x="85" y="0" type="line"/>
    </contour>
  </outline>
</glyph>
<glyph name="acute" format="1">
  <advance width="323"/>
  <unicode hex="00B4"/>
  <note>
	acute
  </note>
  <outline>
    <contour>
      <point x="244" y="892" type="line"/>
      <point x="138" y="903" type="line"/>
      <point x="55" y="758" type="line"/>
      <point x="119" y="748" type="line"/>
    </contour>
  </outline>
</glyph>
<glyph name="paragraph" format="1">
  <advance width="655"/>
  <unicode hex="00B6"/>
  <note>
	paragraph
  </note>
  <outline>
    <contour>
      <point x="349" y="-120" type="line"/>
      <point x="349" y="559" type="line"/>
      <point x="425" y="559" type="line"/>
      <point x="425" y="-120" type="line"/>
      <point x="499" y="-120" type="line"/>
      <point x="499" y="616" type="line"/>
      <point x="262" y="616" type="line" smooth="yes"/>
      <point x="139" y="616"/>
      <point x="65" y="552"/>
      <point x="65" y="428" type="curve" smooth="yes"/>
      <point x="65" y="310"/>
      <point x="135" y="247"/>
      <point x="262" y="247" type="curve" smooth="yes"/>
      <point x="276" y="247" type="line"/>
      <point x="276" y="-120" type="line"/>
    </contour>
  </outline>
</glyph>
<glyph name="periodcentered" format="1">
  <advance width="351"/>
  <unicode hex="00B7"/>
  <note>
	periodcentered
  </note>
  <outline>
    <contour>
      <point x="209" y="211"/>
      <point x="235" y="236"/>
      <point x="235" y="269" type="curve" smooth="yes"/>
      <point x="235" y="301"/>
      <point x="208" y="327"/>
      <point x="176" y="327" type="curve" smooth="yes"/>
      <point x="144" y="327"/>
      <point x="117" y="301"/>
      <point x="117" y="269" type="curve" smooth="yes"/>
      <point x="117" y="236"/>
      <point x="143" y="211"/>
      <point x="176" y="211" type="curve" smooth="yes"/>
    </contour>
  </outline>
</glyph>
<glyph name="onesuperior" format="1">
  <advance width="228"/>
  <unicode hex="00B9"/>
  <note>
	onesuperior
  </note>
  <outline>
    <contour>
      <point x="180" y="332" type="line"/>
      <point x="180" y="661" type="line" smooth="yes"/>
      <point x="180" y="678"/>
      <point x="135" y="695"/>
      <point x="112" y="696" type="curve"/>
      <point x="23" y="646" type="line"/>
      <point x="41" y="600" type="line"/>
      <point x="103" y="622" type="line"/>
      <point x="109" y="618" type="line"/>
      <point x="109" y="332" type="line"/>
    </contour>
  </outline>
</glyph>
<glyph name="ordmasculine" format="1">
  <advance width="375"/>
  <unicode hex="00BA"/>
  <note>
	ordmasculine
  </note>
  <outline>
    <contour>
      <point x="290" y="265"/>
      <point x="333" y="328"/>
      <point x="333" y="438" type="curve" smooth="yes"/>
      <point x="333" y="540"/>
      <point x="294" y="611"/>
      <point x="199" y="611" type="curve" smooth="yes"/>
      <point x="85" y="611"/>
      <point x="42" y="548"/>
      <point x="42" y="438" type="curve" smooth="yes"/>
      <point x="42" y="336"/>
      <point x="81" y="265"/>
      <point x="176" y="265" type="curve" smooth="yes"/>
    </contour>
    <contour>
      <point x="127" y="325"/>
      <point x="112" y="357"/>
      <point x="112" y="448" type="curve" smooth="yes"/>
      <point x="112" y="492"/>
      <point x="116" y="520"/>
      <point x="125" y="542" type="curve"/>
      <point x="143" y="548"/>
      <point x="159" y="551"/>
      <point x="185" y="551" type="curve" smooth="yes"/>
      <point x="248" y="551"/>
      <point x="263" y="519"/>
      <point x="263" y="428" type="curve" smooth="yes"/>
      <point x="263" y="384"/>
      <point x="259" y="356"/>
      <point x="250" y="334" type="curve"/>
      <point x="232" y="328"/>
      <point x="216" y="325"/>
      <point x="190" y="325" type="curve" smooth="yes"/>
    </contour>
  </outline>
</glyph>
<glyph name="guillemotright" format="1">
  <advance width="454"/>
  <unicode hex="00BB"/>
  <note>
	guillemotright
  </note>
  <outline>
    <contour>
      <point x="406" y="251" type="line"/>
      <point x="276" y="429" type="line"/>
      <point x="215" y="400" type="line"/>
      <point x="323" y="254" type="line"/>
      <point x="323" y="248" type="line"/>
      <point x="215" y="102" type="line"/>
      <point x="276" y="73" type="line"/>
    </contour>
    <contour>
      <point x="246" y="251" type="line"/>
      <point x="116" y="429" type="line"/>
      <point x="55" y="400" type="line"/>
      <point x="163" y="254" type="line"/>
      <point x="163" y="248" type="line"/>
      <point x="55" y="102" type="line"/>
      <point x="116" y="73" type="line"/>
    </contour>
  </outline>
</glyph>
<glyph name="onequarter" format="1">
  <advance width="790"/>
  <unicode hex="00BC"/>
  <note>
	onequarter
  </note>
  <outline>
    <contour>
      <point x="600" y="606" type="line"/>
      <point x="536" y="623" type="line"/>
      <point x="155" y="13" type="line"/>
      <point x="219" y="-5" type="line"/>
    </contour>
    <contour>
      <point x="212" y="256" type="line"/>
      <point x="212" y="585" type="line" smooth="yes"/>
      <point x="212" y="602"/>
      <point x="167" y="619"/>
      <point x="144" y="620" type="curve"/>
      <point x="55" y="570" type="line"/>
      <point x="73" y="519" type="line"/>
      <point x="131" y="541" type="line"/>
      <point x="136" y="537" type="line"/>
      <point x="136" y="256" type="line"/>
    </contour>
    <contour>
      <point x="686" y="0" type="line"/>
      <point x="686" y="60" type="line"/>
      <point x="733" y="60" type="line"/>
      <point x="733" y="119" type="line"/>
      <point x="686" y="119" type="line"/>
      <point x="686" y="357" type="line"/>
      <point x="610" y="357" type="line"/>
      <point x="443" y="118" type="line"/>
      <point x="467" y="60" type="line"/>
      <point x="614" y="60" type="line"/>
      <point x="614" y="0" type="line"/>
    </contour>
    <contour>
      <point x="524" y="124" type="line"/>
      <point x="620" y="279" type="line"/>
      <point x="625" y="279" type="line"/>
      <point x="619" y="233"/>
      <point x="616" y="197"/>
      <point x="616" y="154" type="curve" smooth="yes"/>
      <point x="616" y="119" type="line"/>
      <point x="526" y="119" type="line"/>
    </contour>
  </outline>
</glyph>
<glyph name="onehalf" format="1">
  <advance width="790"/>
  <unicode hex="00BD"/>
  <note>
	onehalf
  </note>
  <outline>
    <contour>
      <point x="600" y="606" type="line"/>
      <point x="536" y="623" type="line"/>
      <point x="155" y="13" type="line"/>
      <point x="219" y="-5" type="line"/>
    </contour>
    <contour>
      <point x="212" y="256" type="line"/>
      <point x="212" y="585" type="line" smooth="yes"/>
      <point x="212" y="602"/>
      <point x="167" y="619"/>
      <point x="144" y="620" type="curve"/>
      <point x="55" y="570" type="line"/>
      <point x="73" y="519" type="line"/>
      <point x="131" y="541" type="line"/>
      <point x="136" y="537" type="line"/>
      <point x="136" y="256" type="line"/>
    </contour>
    <contour>
      <point x="772" y="0" type="line"/>
      <point x="772" y="30" type="line" smooth="yes"/>
      <point x="772" y="52"/>
      <point x="770" y="71"/>
      <point x="764" y="91" type="curve"/>
      <point x="705" y="91" type="line"/>
      <point x="705" y="59" type="line"/>
      <point x="585" y="59" type="line"/>
      <point x="585" y="64" type="line"/>
      <point x="673" y="119"/>
      <point x="763" y="173"/>
      <point x="763" y="256" type="curve" smooth="yes"/>
      <point x="763" y="317"/>
      <point x="735" y="362"/>
      <point x="648" y="362" type="curve" smooth="yes"/>
      <point x="602" y="362"/>
      <point x="562" y="352"/>
      <point x="527" y="336" type="curve"/>
      <point x="527" y="314" type="line" smooth="yes"/>
      <point x="527" y="295"/>
      <point x="532" y="268"/>
      <point x="537" y="253" type="curve"/>
      <point x="593" y="253" type="line"/>
      <point x="593" y="291" type="line"/>
      <point x="613" y="296"/>
      <point x="623" y="297"/>
      <point x="642" y="297" type="curve" smooth="yes"/>
      <point x="678" y="297"/>
      <point x="692" y="287"/>
      <point x="692" y="253" type="curve" smooth="yes"/>
      <point x="692" y="198"/>
      <point x="624" y="156"/>
      <point x="515" y="89" type="curve"/>
      <point x="515" y="0" type="line"/>
    </contour>
  </outline>
</glyph>
<glyph name="Aacute" format="1">
  <advance width="607"/>
  <unicode hex="00C1"/>
  <note>
	Aacute
  </note>
  <outline>
    <contour>
      <point x="458" y="830" type="line"/>
      <point x="352" y="841" type="line"/>
      <point x="269" y="696" type="line"/>
      <point x="333" y="686" type="line"/>
    </contour>
    <component base="A"/>
  </outline>
</glyph>
<glyph name="Atilde" format="1">
  <advance width="607"/>
  <unicode hex="00C3"/>
  <note>
	Atilde
  </note>
  <outline>
    <contour>
      <point x="210" y="713"/>
      <point x="220" y="732"/>
      <point x="247" y="732" type="curve" smooth="yes"/>
      <point x="282" y="732"/>
      <point x="309" y="691"/>
      <point x="356" y="691" type="curve" smooth="yes"/>
      <point x="411" y="691"/>
      <point x="436" y="722"/>
      <point x="440" y="787" type="curve"/>
      <point x="385" y="805" type="line"/>
      <point x="382" y="779"/>
      <point x="372" y="760"/>
      <point x="345" y="760" type="curve" smooth="yes"/>
      <point x="316" y="760"/>
      <point x="278" y="801"/>
      <point x="236" y="801" type="curve" smooth="yes"/>
      <point x="181" y="801"/>
      <point x="156" y="770"/>
      <point x="152" y="705" type="curve"/>
      <point x="207" y="687" type="line"/>
    </contour>
    <component base="A"/>
  </outline>
</glyph>
<glyph name="Aring" format="1">
  <advance width="607"/>
  <unicode hex="00C5"/>
  <note>
	Aring
  </note>
  <outline>
    <contour>
      <point x="372" y="689"/>
      <point x="418" y="729"/>
      <point x="418" y="780" type="curve" smooth="yes"/>
      <point x="418" y="840"/>
      <point x="376" y="877"/>
      <point x="309" y="877" type="curve" smooth="yes"/>
      <point x="229" y="877"/>
      <point x="188" y="832"/>
      <point x="188" y="781" type="curve" smooth="yes"/>
      <point x="188" y="721"/>
      <point x="230" y="689"/>
      <point x="297" y="689" type="curve" smooth="yes"/>
    </contour>
    <contour>
      <point x="265" y="738"/>
      <point x="245" y="756"/>
      <point x="245" y="782" type="curve" smooth="yes"/>
      <point x="245" y="795"/>
      <point x="246" y="809"/>
      <point x="250" y="823" type="curve"/>
      <point x="265" y="827"/>
      <point x="284" y="828"/>
      <point x="308" y="828" type="curve" smooth="yes"/>
      <point x="341" y="828"/>
      <point x="361" y="805"/>
      <point x="361" y="779" type="curve" smooth="yes"/>
      <point x="361" y="766"/>
      <point x="359" y="754"/>
      <point x="356" y="743" type="curve"/>
      <point x="343" y="739"/>
      <point x="321" y="738"/>
      <point x="298" y="738" type="curve" smooth="yes"/>
    </contour>
    <component base="A"/>
  </outline>
</glyph>
<glyph name="AE" format="1">
  <advance width="922"/>
  <unicode hex="00C6"/>
  <note>
	AE
  </note>
  <outline>
    <contour>
      <point x="747" y="-10"/>
      <point x="811" y="-4"/>
      <point x="862" y="11" type="curve"/>
      <point x="843" y="85" type="line"/>
      <point x="793" y="73"/>
      <point x="729" y="67"/>
      <point x="673" y="67" type="curve" smooth="yes"/>
      <point x="625" y="67"/>
      <point x="584" y="70"/>
      <point x="542" y="77" type="curve"/>
      <point x="542" y="270" type="line"/>
      <point x="822" y="270" type="line"/>
      <point x="822" y="345" type="line"/>
      <point x="542" y="345" type="line"/>
      <point x="542" y="539" type="line"/>
      <point x="851" y="539" type="line"/>
      <point x="851" y="616" type="line"/>
      <point x="333" y="616" type="line"/>
      <point x="223" y="424"/>
      <point x="114" y="221"/>
      <point x="20" y="26" type="curve"/>
      <point x="100" y="0" type="line"/>
      <point x="132" y="65"/>
      <point x="166" y="133"/>
      <point x="201" y="200" type="curve"/>
      <point x="458" y="200" type="line"/>
      <point x="458" y="91" type="line" smooth="yes"/>
      <point x="458" y="11"/>
      <point x="550" y="-10"/>
      <point x="670" y="-10" type="curve" smooth="yes"/>
    </contour>
    <contour>
      <point x="291" y="372"/>
      <point x="340" y="463"/>
      <point x="382" y="535" type="curve"/>
      <point x="458" y="535" type="line"/>
      <point x="458" y="275" type="line"/>
      <point x="240" y="275" type="line"/>
    </contour>
  </outline>
</glyph>
<glyph name="Ccedilla" format="1">
  <advance width="567"/>
  <unicode hex="00C7"/>
  <note>
	Ccedilla
  </note>
  <outline>
    <contour>
      <point x="383" y="-216"/>
      <point x="417" y="-186"/>
      <point x="417" y="-128" type="curve" smooth="yes"/>
      <point x="417" y="-82"/>
      <point x="394" y="-52"/>
      <point x="338" y="-52" type="curve" smooth="yes"/>
      <point x="323" y="-52"/>
      <point x="310" y="-54"/>
      <point x="299" y="-59" type="curve"/>
      <point x="335" y="-8" type="line"/>
      <point x="345" y="-8"/>
      <point x="355" y="-7"/>
      <point x="365" y="-6" type="curve" smooth="yes"/>
      <point x="431" y="0"/>
      <point x="489" y="19"/>
      <point x="525" y="49" type="curve"/>
      <point x="486" y="113" type="line"/>
      <point x="450" y="86"/>
      <point x="383" y="70"/>
      <point x="322" y="70" type="curve" smooth="yes"/>
      <point x="189" y="70"/>
      <point x="139" y="137"/>
      <point x="139" y="295" type="curve" smooth="yes"/>
      <point x="139" y="385"/>
      <point x="158" y="473"/>
      <point x="192" y="535" type="curve"/>
      <point x="234" y="544"/>
      <point x="273" y="548"/>
      <point x="311" y="548" type="curve" smooth="yes"/>
      <point x="352" y="548"/>
      <point x="396" y="544"/>
      <point x="421" y="539" type="curve"/>
      <point x="431" y="460" type="line"/>
      <point x="490" y="460" type="line"/>
      <point x="498" y="479"/>
      <point x="503" y="503"/>
      <point x="503" y="529" type="curve" smooth="yes"/>
      <point x="503" y="585" type="line"/>
      <point x="470" y="607"/>
      <point x="385" y="626"/>
      <point x="312" y="626" type="curve" smooth="yes"/>
      <point x="136" y="626"/>
      <point x="54" y="486"/>
      <point x="54" y="289" type="curve" smooth="yes"/>
      <point x="54" y="113"/>
      <point x="122" y="12"/>
      <point x="271" y="-5" type="curve"/>
      <point x="221" y="-66" type="line"/>
      <point x="264" y="-109" type="line"/>
      <point x="274" y="-104"/>
      <point x="289" y="-101"/>
      <point x="304" y="-101" type="curve" smooth="yes"/>
      <point x="331" y="-101"/>
      <point x="349" y="-109"/>
      <point x="349" y="-131" type="curve" smooth="yes"/>
      <point x="349" y="-142"/>
      <point x="348" y="-148"/>
      <point x="345" y="-157" type="curve"/>
      <point x="330" y="-160"/>
      <point x="316" y="-161"/>
      <point x="298" y="-161" type="curve" smooth="yes"/>
      <point x="280" y="-161"/>
      <point x="251" y="-157"/>
      <point x="233" y="-150" type="curve"/>
      <point x="216" y="-199" type="line"/>
      <point x="246" y="-213"/>
      <point x="277" y="-216"/>
      <point x="305" y="-216" type="curve" smooth="yes"/>
    </contour>
  </outline>
</glyph>
<glyph name="Idieresis" format="1">
  <advance width="242"/>
  <unicode hex="00CF"/>
  <note>
	Idieresis
  </note>
  <outline>
    <contour>
      <point x="163" y="0" type="line"/>
      <point x="163" y="616" type="line"/>
      <point x="78" y="616" type="line"/>
      <point x="78" y="0" type="line"/>
    </contour>
    <contour>
      <point x="71" y="691"/>
      <point x="88" y="707"/>
      <point x="88" y="734" type="curve" smooth="yes"/>
      <point x="88" y="762"/>
      <point x="71" y="778"/>
      <point x="42" y="778" type="curve" smooth="yes"/>
      <point x="14" y="778"/>
      <point x="-4" y="762"/>
      <point x="-4" y="734" type="curve" smooth="yes"/>
      <point x="-4" y="707"/>
      <point x="14" y="691"/>
      <point x="42" y="691" type="curve" smooth="yes"/>
    </contour>
    <contour>
      <point x="229" y="691"/>
      <point x="246" y="707"/>
      <point x="246" y="734" type="curve" smooth="yes"/>
      <point x="246" y="762"/>
      <point x="229" y="778"/>
      <point x="200" y="778" type="curve" smooth="yes"/>
      <point x="171" y="778"/>
      <point x="153" y="762"/>
      <point x="153" y="734" type="curve" smooth="yes"/>
      <point x="153" y="707"/>
      <point x="171" y="691"/>
      <point x="200" y="691" type="curve" smooth="yes"/>
    </contour>
  </outline>
</glyph>
<glyph name="Otilde" format="1">
  <advance width="621"/>
  <unicode hex="00D5"/>
  <note>
	Otilde
  </note>
  <outline>
    <contour>
      <point x="498" y="-8"/>
      <point x="569" y="101"/>
      <point x="569" y="321" type="curve" smooth="yes"/>
      <point x="569" y="522"/>
      <point x="490" y="626"/>
      <point x="318" y="626" type="curve" smooth="yes"/>
      <point x="123" y="626"/>
      <point x="52" y="516"/>
      <point x="52" y="296" type="curve" smooth="yes"/>
      <point x="52" y="95"/>
      <point x="139" y="-8"/>
      <point x="303" y="-8" type="curve" smooth="yes"/>
    </contour>
    <contour>
      <point x="184" y="70"/>
      <point x="137" y="146"/>
      <point x="137" y="315" type="curve" smooth="yes"/>
      <point x="137" y="403"/>
      <point x="155" y="476"/>
      <point x="180" y="530" type="curve"/>
      <point x="205" y="540"/>
      <point x="257" y="548"/>
      <point x="304" y="548" type="curve" smooth="yes"/>
      <point x="438" y="548"/>
      <point x="484" y="471"/>
      <point x="484" y="302" type="curve" smooth="yes"/>
      <point x="484" y="214"/>
      <point x="459" y="139"/>
      <point x="436" y="88" type="curve"/>
      <point x="411" y="78"/>
      <point x="364" y="70"/>
      <point x="317" y="70" type="curve" smooth="yes"/>
    </contour>
    <contour>
      <point x="229" y="704"/>
      <point x="239" y="723"/>
      <point x="266" y="723" type="curve" smooth="yes"/>
      <point x="301" y="723"/>
      <point x="328" y="682"/>
      <point x="375" y="682" type="curve" smooth="yes"/>
      <point x="430" y="682"/>
      <point x="455" y="713"/>
      <point x="459" y="778" type="curve"/>
      <point x="404" y="796" type="line"/>
      <point x="401" y="770"/>
      <point x="391" y="751"/>
      <point x="364" y="751" type="curve" smooth="yes"/>
      <point x="335" y="751"/>
      <point x="297" y="792"/>
      <point x="255" y="792" type="curve" smooth="yes"/>
      <point x="200" y="792"/>
      <point x="175" y="761"/>
      <point x="171" y="696" type="curve"/>
      <point x="226" y="678" type="line"/>
    </contour>
  </outline>
</glyph>
<glyph name="Odieresis" format="1">
  <advance width="621"/>
  <unicode hex="00D6"/>
  <note>
	Odieresis
  </note>
  <outline>
    <contour>
      <point x="498" y="-8"/>
      <point x="569" y="101"/>
      <point x="569" y="321" type="curve" smooth="yes"/>
      <point x="569" y="522"/>
      <point x="490" y="626"/>
      <point x="318" y="626" type="curve" smooth="yes"/>
      <point x="123" y="626"/>
      <point x="52" y="516"/>
      <point x="52" y="296" type="curve" smooth="yes"/>
      <point x="52" y="95"/>
      <point x="139" y="-8"/>
      <point x="303" y="-8" type="curve" smooth="yes"/>
    </contour>
    <contour>
      <point x="184" y="70"/>
      <point x="137" y="146"/>
      <point x="137" y="315" type="curve" smooth="yes"/>
      <point x="137" y="403"/>
      <point x="155" y="476"/>
      <point x="180" y="530" type="curve"/>
      <point x="205" y="540"/>
      <point x="257" y="548"/>
      <point x="304" y="548" type="curve" smooth="yes"/>
      <point x="438" y="548"/>
      <point x="484" y="471"/>
      <point x="484" y="302" type="curve" smooth="yes"/>
      <point x="484" y="214"/>
      <point x="459" y="139"/>
      <point x="436" y="88" type="curve"/>
      <point x="411" y="78"/>
      <point x="364" y="70"/>
      <point x="317" y="70" type="curve" smooth="yes"/>
    </contour>
    <contour>
      <point x="266" y="691"/>
      <point x="283" y="707"/>
      <point x="283" y="734" type="curve" smooth="yes"/>
      <point x="283" y="762"/>
      <point x="266" y="778"/>
      <point x="237" y="778" type="curve" smooth="yes"/>
      <point x="209" y="778"/>
      <point x="191" y="762"/>
      <point x="191" y="734" type="curve" smooth="yes"/>
      <point x="191" y="707"/>
      <point x="209" y="691"/>
      <point x="237" y="691" type="curve" smooth="yes"/>
    </contour>
    <contour>
      <point x="424" y="691"/>
      <point x="441" y="707"/>
      <point x="441" y="734" type="curve" smooth="yes"/>
      <point x="441" y="762"/>
      <point x="424" y="778"/>
      <point x="395" y="778" type="curve" smooth="yes"/>
      <point x="366" y="778"/>
      <point x="348" y="762"/>
      <point x="348" y="734" type="curve" smooth="yes"/>
      <point x="348" y="707"/>
      <point x="366" y="691"/>
      <point x="395" y="691" type="curve" smooth="yes"/>
    </contour>
  </outline>
</glyph>
<glyph name="multiply" format="1">
  <advance width="476"/>
  <unicode hex="00D7"/>
  <note>
	multiply
  </note>
  <outline>
    <contour>
      <point x="238" y="266" type="line"/>
      <point x="378" y="129" type="line"/>
      <point x="426" y="174" type="line"/>
      <point x="286" y="308" type="line"/>
      <point x="426" y="442" type="line"/>
      <point x="378" y="487" type="line"/>
      <point x="238" y="350" type="line"/>
      <point x="98" y="487" type="line"/>
      <point x="50" y="442" type="line"/>
      <point x="190" y="308" type="line"/>
      <point x="50" y="174" type="line"/>
      <point x="98" y="129" type="line"/>
    </contour>
  </outline>
</glyph>
<glyph name="Oslash" format="1">
  <advance width="621"/>
  <unicode hex="00D8"/>
  <note>
	Oslash
  </note>
  <outline>
    <contour>
      <point x="206" y="6" type="line"/>
      <point x="234" y="-4"/>
      <point x="267" y="-9"/>
      <point x="303" y="-9" type="curve" smooth="yes"/>
      <point x="498" y="-9"/>
      <point x="569" y="101"/>
      <point x="569" y="321" type="curve" smooth="yes"/>
      <point x="569" y="447"/>
      <point x="538" y="535"/>
      <point x="472" y="583" type="curve"/>
      <point x="510" y="666" type="line"/>
      <point x="440" y="683" type="line"/>
      <point x="408" y="614" type="line"/>
      <point x="382" y="622"/>
      <point x="351" y="626"/>
      <point x="318" y="626" type="curve" smooth="yes"/>
      <point x="123" y="626"/>
      <point x="52" y="516"/>
      <point x="52" y="296" type="curve" smooth="yes"/>
      <point x="52" y="175"/>
      <point x="83" y="89"/>
      <point x="144" y="40" type="curve"/>
      <point x="99" y="-57" type="line"/>
      <point x="169" y="-75" type="line"/>
    </contour>
    <contour>
      <point x="150" y="162"/>
      <point x="137" y="226"/>
      <point x="137" y="315" type="curve" smooth="yes"/>
      <point x="137" y="403"/>
      <point x="155" y="476"/>
      <point x="180" y="530" type="curve"/>
      <point x="205" y="540"/>
      <point x="257" y="548"/>
      <point x="304" y="548" type="curve" smooth="yes"/>
      <point x="330" y="548"/>
      <point x="353" y="544"/>
      <point x="373" y="538" type="curve"/>
      <point x="181" y="122" type="line"/>
    </contour>
    <contour>
      <point x="287" y="69"/>
      <point x="262" y="73"/>
      <point x="240" y="81" type="curve"/>
      <point x="434" y="501" type="line"/>
      <point x="470" y="462"/>
      <point x="484" y="396"/>
      <point x="484" y="302" type="curve" smooth="yes"/>
      <point x="484" y="214"/>
      <point x="459" y="138"/>
      <point x="436" y="87" type="curve"/>
      <point x="411" y="77"/>
      <point x="364" y="69"/>
      <point x="317" y="69" type="curve" smooth="yes"/>
    </contour>
  </outline>
</glyph>
<glyph name="Ugrave" format="1">
  <advance width="609"/>
  <unicode hex="00D9"/>
  <note>
	Ugrave
  </note>
  <outline>
    <contour>
      <point x="434" y="-8"/>
      <point x="536" y="24"/>
      <point x="536" y="128" type="curve" smooth="yes"/>
      <point x="536" y="616" type="line"/>
      <point x="451" y="616" type="line"/>
      <point x="451" y="92" type="line"/>
      <point x="422" y="79"/>
      <point x="368" y="70"/>
      <point x="302" y="70" type="curve" smooth="yes"/>
      <point x="202" y="70"/>
      <point x="158" y="96"/>
      <point x="158" y="189" type="curve" smooth="yes"/>
      <point x="158" y="616" type="line"/>
      <point x="73" y="616" type="line"/>
      <point x="73" y="174" type="line" smooth="yes"/>
      <point x="73" y="51"/>
      <point x="152" y="-8"/>
      <point x="295" y="-8" type="curve" smooth="yes"/>
    </contour>
    <contour>
      <point x="355" y="696" type="line"/>
      <point x="272" y="841" type="line"/>
      <point x="166" y="830" type="line"/>
      <point x="291" y="686" type="line"/>
    </contour>
  </outline>
</glyph>
<glyph name="Uacute" format="1">
  <advance width="609"/>
  <unicode hex="00DA"/>
  <note>
	Uacute
  </note>
  <outline>
    <contour>
      <point x="434" y="-8"/>
      <point x="536" y="24"/>
      <point x="536" y="128" type="curve" smooth="yes"/>
      <point x="536" y="616" type="line"/>
      <point x="451" y="616" type="line"/>
      <point x="451" y="92" type="line"/>
      <point x="422" y="79"/>
      <point x="368" y="70"/>
      <point x="302" y="70" type="curve" smooth="yes"/>
      <point x="202" y="70"/>
      <point x="158" y="96"/>
      <point x="158" y="189" type="curve" smooth="yes"/>
      <point x="158" y="616" type="line"/>
      <point x="73" y="616" type="line"/>
      <point x="73" y="174" type="line" smooth="yes"/>
      <point x="73" y="51"/>
      <point x="152" y="-8"/>
      <point x="295" y="-8" type="curve" smooth="yes"/>
    </contour>
    <contour>
      <point x="435" y="829" type="line"/>
      <point x="329" y="840" type="line"/>
      <point x="246" y="695" type="line"/>
      <point x="310" y="685" type="line"/>
    </contour>
  </outline>
</glyph>
<glyph name="Ucircumflex" format="1">
  <advance width="609"/>
  <unicode hex="00DB"/>
  <note>
	Ucircumflex
  </note>
  <outline>
    <contour>
      <point x="434" y="-8"/>
      <point x="536" y="24"/>
      <point x="536" y="128" type="curve" smooth="yes"/>
      <point x="536" y="616" type="line"/>
      <point x="451" y="616" type="line"/>
      <point x="451" y="92" type="line"/>
      <point x="422" y="79"/>
      <point x="368" y="70"/>
      <point x="302" y="70" type="curve" smooth="yes"/>
      <point x="202" y="70"/>
      <point x="158" y="96"/>
      <point x="158" y="189" type="curve" smooth="yes"/>
      <point x="158" y="616" type="line"/>
      <point x="73" y="616" type="line"/>
      <point x="73" y="174" type="line" smooth="yes"/>
      <point x="73" y="51"/>
      <point x="152" y="-8"/>
      <point x="295" y="-8" type="curve" smooth="yes"/>
    </contour>
    <contour>
      <point x="302" y="759" type="line"/>
      <point x="307" y="759" type="line"/>
      <point x="388" y="684" type="line"/>
      <point x="441" y="695" type="line"/>
      <point x="342" y="828" type="line"/>
      <point x="267" y="828" type="line"/>
      <point x="167" y="695" type="line"/>
      <point x="218" y="684" type="line"/>
    </contour>
  </outline>
</glyph>
<glyph name="Udieresis" format="1">
  <advance width="609"/>
  <unicode hex="00DC"/>
  <note>
	Udieresis
  </note>
  <outline>
    <contour>
      <point x="434" y="-8"/>
      <point x="536" y="24"/>
      <point x="536" y="128" type="curve" smooth="yes"/>
      <point x="536" y="616" type="line"/>
      <point x="451" y="616" type="line"/>
      <point x="451" y="92" type="line"/>
      <point x="422" y="79"/>
      <point x="368" y="70"/>
      <point x="302" y="70" type="curve" smooth="yes"/>
      <point x="202" y="70"/>
      <point x="158" y="96"/>
      <point x="158" y="189" type="curve" smooth="yes"/>
      <point x="158" y="616" type="line"/>
      <point x="73" y="616" type="line"/>
      <point x="73" y="174" type="line" smooth="yes"/>
      <point x="73" y="51"/>
      <point x="152" y="-8"/>
      <point x="295" y="-8" type="curve" smooth="yes"/>
    </contour>
    <contour>
      <point x="257" y="691"/>
      <point x="274" y="707"/>
      <point x="274" y="734" type="curve" smooth="yes"/>
      <point x="274" y="762"/>
      <point x="257" y="778"/>
      <point x="228" y="778" type="curve" smooth="yes"/>
      <point x="200" y="778"/>
      <point x="182" y="762"/>
      <point x="182" y="734" type="curve" smooth="yes"/>
      <point x="182" y="707"/>
      <point x="200" y="691"/>
      <point x="228" y="691" type="curve" smooth="yes"/>
    </contour>
    <contour>
      <point x="415" y="691"/>
      <point x="432" y="707"/>
      <point x="432" y="734" type="curve" smooth="yes"/>
      <point x="432" y="762"/>
      <point x="415" y="778"/>
      <point x="386" y="778" type="curve" smooth="yes"/>
      <point x="357" y="778"/>
      <point x="339" y="762"/>
      <point x="339" y="734" type="curve" smooth="yes"/>
      <point x="339" y="707"/>
      <point x="357" y="691"/>
      <point x="386" y="691" type="curve" smooth="yes"/>
    </contour>
  </outline>
</glyph>
<glyph name="Yacute" format="1">
  <advance width="615"/>
  <unicode hex="00DD"/>
  <note>
	Yacute
  </note>
  <outline>
    <contour>
      <point x="350" y="0" type="line"/>
      <point x="350" y="211" type="line"/>
      <point x="371" y="211" type="line"/>
      <point x="465" y="338"/>
      <point x="523" y="447"/>
      <point x="587" y="600" type="curve"/>
      <point x="502" y="621" type="line"/>
      <point x="448" y="488"/>
      <point x="382" y="365"/>
      <point x="323" y="278" type="curve"/>
      <point x="292" y="278" type="line"/>
      <point x="233" y="365"/>
      <point x="167" y="488"/>
      <point x="113" y="621" type="curve"/>
      <point x="28" y="600" type="line"/>
      <point x="92" y="447"/>
      <point x="150" y="338"/>
      <point x="244" y="211" type="curve"/>
      <point x="265" y="211" type="line"/>
      <point x="265" y="0" type="line"/>
    </contour>
    <contour>
      <point x="450" y="829" type="line"/>
      <point x="344" y="840" type="line"/>
      <point x="261" y="695" type="line"/>
      <point x="325" y="685" type="line"/>
    </contour>
  </outline>
</glyph>
<glyph name="aring" format="1">
  <advance width="474"/>
  <unicode hex="00E5"/>
  <note>
	aring
  </note>
  <outline>
    <contour>
      <point x="235" y="-8"/>
      <point x="288" y="20"/>
      <point x="321" y="66" type="curve"/>
      <point x="329" y="66" type="line"/>
      <point x="333" y="0" type="line"/>
      <point x="406" y="0" type="line"/>
      <point x="406" y="331" type="line" smooth="yes"/>
      <point x="406" y="424"/>
      <point x="350" y="478"/>
      <point x="250" y="478" type="curve" smooth="yes"/>
      <point x="188" y="478"/>
      <point x="110" y="450"/>
      <point x="74" y="428" type="curve"/>
      <point x="74" y="403" type="line" smooth="yes"/>
      <point x="74" y="380"/>
      <point x="80" y="355"/>
      <point x="87" y="336" type="curve"/>
      <point x="148" y="336" type="line"/>
      <point x="158" y="411" type="line"/>
      <point x="174" y="413"/>
      <point x="199" y="415"/>
      <point x="224" y="415" type="curve" smooth="yes"/>
      <point x="296" y="415"/>
      <point x="324" y="396"/>
      <point x="324" y="322" type="curve" smooth="yes"/>
      <point x="324" y="260" type="line"/>
      <point x="302" y="262"/>
      <point x="279" y="263"/>
      <point x="258" y="263" type="curve" smooth="yes"/>
      <point x="129" y="263"/>
      <point x="40" y="219"/>
      <point x="40" y="113" type="curve" smooth="yes"/>
      <point x="40" y="40"/>
      <point x="87" y="-8"/>
      <point x="179" y="-8" type="curve" smooth="yes"/>
    </contour>
    <contour>
      <point x="151" y="56"/>
      <point x="126" y="71"/>
      <point x="126" y="122" type="curve" smooth="yes"/>
      <point x="126" y="152"/>
      <point x="129" y="172"/>
      <point x="142" y="203" type="curve"/>
      <point x="164" y="209"/>
      <point x="199" y="211"/>
      <point x="234" y="211" type="curve" smooth="yes"/>
      <point x="269" y="211"/>
      <point x="304" y="208"/>
      <point x="326" y="203" type="curve"/>
      <point x="326" y="129" type="line"/>
      <point x="295" y="82"/>
      <point x="244" y="56"/>
      <point x="190" y="56" type="curve" smooth="yes"/>
    </contour>
    <contour>
      <point x="321" y="547"/>
      <point x="367" y="587"/>
      <point x="367" y="638" type="curve" smooth="yes"/>
      <point x="367" y="698"/>
      <point x="325" y="735"/>
      <point x="258" y="735" type="curve" smooth="yes"/>
      <point x="178" y="735"/>
      <point x="137" y="690"/>
      <point x="137" y="639" type="curve" smooth="yes"/>
      <point x="137" y="579"/>
      <point x="179" y="547"/>
      <point x="246" y="547" type="curve" smooth="yes"/>
    </contour>
    <contour>
      <point x="214" y="596"/>
      <point x="194" y="614"/>
      <point x="194" y="640" type="curve" smooth="yes"/>
      <point x="194" y="653"/>
      <point x="195" y="667"/>
      <point x="199" y="681" type="curve"/>
      <point x="214" y="685"/>
      <point x="233" y="686"/>
      <point x="257" y="686" type="curve" smooth="yes"/>
      <point x="290" y="686"/>
      <point x="310" y="663"/>
      <point x="310" y="637" type="curve" smooth="yes"/>
      <point x="310" y="624"/>
      <point x="308" y="612"/>
      <point x="305" y="601" type="curve"/>
      <point x="292" y="597"/>
      <point x="270" y="596"/>
      <point x="247" y="596" type="curve" smooth="yes"/>
    </contour>
  </outline>
</glyph>
<glyph name="ecircumflex" format="1">
  <advance width="488"/>
  <unicode hex="00EA"/>
  <note>
	ecircumflex
  </note>
  <outline>
    <contour>
      <point x="344" y="-8"/>
      <point x="393" y="18"/>
      <point x="435" y="44" type="curve"/>
      <point x="409" y="107" type="line"/>
      <point x="369" y="80"/>
      <point x="330" y="61"/>
      <point x="265" y="61" type="curve" smooth="yes"/>
      <point x="176" y="61"/>
      <point x="131" y="111"/>
      <point x="129" y="204" type="curve"/>
      <point x="378" y="200" type="line"/>
      <point x="438" y="259" type="line"/>
      <point x="448" y="388"/>
      <point x="396" y="478"/>
      <point x="264" y="478" type="curve" smooth="yes"/>
      <point x="126" y="478"/>
      <point x="50" y="384"/>
      <point x="50" y="231" type="curve" smooth="yes"/>
      <point x="50" y="87"/>
      <point x="106" y="-8"/>
      <point x="260" y="-8" type="curve" smooth="yes"/>
    </contour>
    <contour>
      <point x="131" y="361"/>
      <point x="160" y="409"/>
      <point x="259" y="409" type="curve" smooth="yes"/>
      <point x="331" y="409"/>
      <point x="364" y="372"/>
      <point x="364" y="315" type="curve" smooth="yes"/>
      <point x="364" y="304"/>
      <point x="362" y="284"/>
      <point x="358" y="266" type="curve"/>
      <point x="128" y="262" type="line"/>
    </contour>
    <contour>
      <point x="259" y="615" type="line"/>
      <point x="264" y="615" type="line"/>
      <point x="345" y="540" type="line"/>
      <point x="398" y="551" type="line"/>
      <point x="299" y="684" type="line"/>
      <point x="224" y="684" type="line"/>
      <point x="124" y="551" type="line"/>
      <point x="175" y="540" type="line"/>
    </contour>
  </outline>
</glyph>
<glyph name="igrave" format="1">
  <advance width="232"/>
  <unicode hex="00EC"/>
  <note>
	igrave
  </note>
  <outline>
    <contour>
      <point x="156" y="0" type="line"/>
      <point x="156" y="469" type="line"/>
      <point x="76" y="469" type="line"/>
      <point x="76" y="0" type="line"/>
    </contour>
    <contour>
      <point x="153" y="552" type="line"/>
      <point x="70" y="697" type="line"/>
      <point x="-36" y="686" type="line"/>
      <point x="89" y="542" type="line"/>
    </contour>
  </outline>
</glyph>
<glyph name="iacute" format="1">
  <advance width="232"/>
  <unicode hex="00ED"/>
  <note>
	iacute
  </note>
  <outline>
    <contour>
      <point x="156" y="0" type="line"/>
      <point x="156" y="469" type="line"/>
      <point x="76" y="469" type="line"/>
      <point x="76" y="0" type="line"/>
    </contour>
    <contour>
      <point x="267" y="686" type="line"/>
      <point x="161" y="697" type="line"/>
      <point x="78" y="552" type="line"/>
      <point x="142" y="542" type="line"/>
    </contour>
  </outline>
</glyph>
<glyph name="icircumflex" format="1">
  <advance width="232"/>
  <unicode hex="00EE"/>
  <note>
	icircumflex
  </note>
  <outline>
    <contour>
      <point x="156" y="0" type="line"/>
      <point x="156" y="469" type="line"/>
      <point x="76" y="469" type="line"/>
      <point x="76" y="0" type="line"/>
    </contour>
    <contour>
      <point x="114" y="615" type="line"/>
      <point x="119" y="615" type="line"/>
      <point x="200" y="540" type="line"/>
      <point x="253" y="551" type="line"/>
      <point x="154" y="684" type="line"/>
      <point x="79" y="684" type="line"/>
      <point x="-21" y="551" type="line"/>
      <point x="30" y="540" type="line"/>
    </contour>
  </outline>
</glyph>
<glyph name="eth" format="1">
  <advance width="567"/>
  <unicode hex="00F0"/>
  <note>
	eth
  </note>
  <outline>
    <contour>
      <point x="428" y="-16"/>
      <point x="479" y="108"/>
      <point x="479" y="248" type="curve" smooth="yes"/>
      <point x="479" y="344"/>
      <point x="462" y="425"/>
      <point x="414" y="491" type="curve"/>
      <point x="502" y="522" type="line"/>
      <point x="477" y="572" type="line"/>
      <point x="375" y="534" type="line"/>
      <point x="342" y="565"/>
      <point x="300" y="593"/>
      <point x="246" y="617" type="curve"/>
      <point x="204" y="561" type="line"/>
      <point x="241" y="546"/>
      <point x="274" y="529"/>
      <point x="301" y="507" type="curve"/>
      <point x="199" y="470" type="line"/>
      <point x="220" y="422" type="line"/>
      <point x="342" y="465" type="line"/>
      <point x="372" y="427"/>
      <point x="388" y="379"/>
      <point x="391" y="318" type="curve"/>
      <point x="385" y="318" type="line"/>
      <point x="354" y="348"/>
      <point x="310" y="362"/>
      <point x="264" y="362" type="curve" smooth="yes"/>
      <point x="159" y="362"/>
      <point x="75" y="296"/>
      <point x="75" y="181" type="curve" smooth="yes"/>
      <point x="75" y="56"/>
      <point x="150" y="-16"/>
      <point x="262" y="-16" type="curve" smooth="yes"/>
    </contour>
    <contour>
      <point x="195" y="56"/>
      <point x="156" y="93"/>
      <point x="156" y="183" type="curve" smooth="yes"/>
      <point x="156" y="256"/>
      <point x="196" y="291"/>
      <point x="274" y="291" type="curve" smooth="yes"/>
      <point x="315" y="291"/>
      <point x="357" y="277"/>
      <point x="394" y="250" type="curve"/>
      <point x="396" y="236"/>
      <point x="396" y="220"/>
      <point x="396" y="205" type="curve" smooth="yes"/>
      <point x="396" y="160"/>
      <point x="389" y="107"/>
      <point x="376" y="72" type="curve"/>
      <point x="346" y="61"/>
      <point x="313" y="56"/>
      <point x="276" y="56" type="curve" smooth="yes"/>
    </contour>
  </outline>
</glyph>
<glyph name="otilde" format="1">
  <advance width="517"/>
  <unicode hex="00F5"/>
  <note>
	otilde
  </note>
  <outline>
    <contour>
      <point x="406" y="-8"/>
      <point x="467" y="78"/>
      <point x="467" y="231" type="curve" smooth="yes"/>
      <point x="467" y="375"/>
      <point x="418" y="480"/>
      <point x="270" y="480" type="curve" smooth="yes"/>
      <point x="111" y="480"/>
      <point x="50" y="384"/>
      <point x="50" y="231" type="curve" smooth="yes"/>
      <point x="50" y="87"/>
      <point x="99" y="-8"/>
      <point x="247" y="-8" type="curve" smooth="yes"/>
    </contour>
    <contour>
      <point x="150" y="62"/>
      <point x="131" y="116"/>
      <point x="131" y="245" type="curve" smooth="yes"/>
      <point x="131" y="312"/>
      <point x="139" y="361"/>
      <point x="153" y="391" type="curve"/>
      <point x="176" y="401"/>
      <point x="211" y="407"/>
      <point x="247" y="407" type="curve" smooth="yes"/>
      <point x="367" y="407"/>
      <point x="386" y="346"/>
      <point x="386" y="215" type="curve" smooth="yes"/>
      <point x="386" y="148"/>
      <point x="378" y="108"/>
      <point x="364" y="79" type="curve"/>
      <point x="341" y="69"/>
      <point x="307" y="62"/>
      <point x="270" y="62" type="curve" smooth="yes"/>
    </contour>
    <contour>
      <point x="172" y="569"/>
      <point x="182" y="588"/>
      <point x="209" y="588" type="curve" smooth="yes"/>
      <point x="244" y="588"/>
      <point x="271" y="547"/>
      <point x="318" y="547" type="curve" smooth="yes"/>
      <point x="373" y="547"/>
      <point x="398" y="578"/>
      <point x="402" y="643" type="curve"/>
      <point x="347" y="661" type="line"/>
      <point x="344" y="635"/>
      <point x="334" y="616"/>
      <point x="307" y="616" type="curve" smooth="yes"/>
      <point x="278" y="616"/>
      <point x="240" y="657"/>
      <point x="198" y="657" type="curve" smooth="yes"/>
      <point x="143" y="657"/>
      <point x="118" y="626"/>
      <point x="114" y="561" type="curve"/>
      <point x="169" y="543" type="line"/>
    </contour>
  </outline>
</glyph>
<glyph name="odieresis" format="1">
  <advance width="517"/>
  <unicode hex="00F6"/>
  <note>
	odieresis
  </note>
  <outline>
    <contour>
      <point x="406" y="-8"/>
      <point x="467" y="78"/>
      <point x="467" y="231" type="curve" smooth="yes"/>
      <point x="467" y="375"/>
      <point x="418" y="480"/>
      <point x="270" y="480" type="curve" smooth="yes"/>
      <point x="111" y="480"/>
      <point x="50" y="384"/>
      <point x="50" y="231" type="curve" smooth="yes"/>
      <point x="50" y="87"/>
      <point x="99" y="-8"/>
      <point x="247" y="-8" type="curve" smooth="yes"/>
    </contour>
    <contour>
      <point x="150" y="62"/>
      <point x="131" y="116"/>
      <point x="131" y="245" type="curve" smooth="yes"/>
      <point x="131" y="312"/>
      <point x="139" y="361"/>
      <point x="153" y="391" type="curve"/>
      <point x="176" y="401"/>
      <point x="211" y="407"/>
      <point x="247" y="407" type="curve" smooth="yes"/>
      <point x="367" y="407"/>
      <point x="386" y="346"/>
      <point x="386" y="215" type="curve" smooth="yes"/>
      <point x="386" y="148"/>
      <point x="378" y="108"/>
      <point x="364" y="79" type="curve"/>
      <point x="341" y="69"/>
      <point x="307" y="62"/>
      <point x="270" y="62" type="curve" smooth="yes"/>
    </contour>
    <contour>
      <point x="208" y="547"/>
      <point x="225" y="563"/>
      <point x="225" y="590" type="curve" smooth="yes"/>
      <point x="225" y="618"/>
      <point x="208" y="634"/>
      <point x="179" y="634" type="curve" smooth="yes"/>
      <point x="151" y="634"/>
      <point x="133" y="618"/>
      <point x="133" y="590" type="curve" smooth="yes"/>
      <point x="133" y="563"/>
      <point x="151" y="547"/>
      <point x="179" y="547" type="curve" smooth="yes"/>
    </contour>
    <contour>
      <point x="366" y="547"/>
      <point x="383" y="563"/>
      <point x="383" y="590" type="curve" smooth="yes"/>
      <point x="383" y="618"/>
      <point x="366" y="634"/>
      <point x="337" y="634" type="curve" smooth="yes"/>
      <point x="308" y="634"/>
      <point x="290" y="618"/>
      <point x="290" y="590" type="curve" smooth="yes"/>
      <point x="290" y="563"/>
      <point x="308" y="547"/>
      <point x="337" y="547" type="curve" smooth="yes"/>
    </contour>
  </outline>
</glyph>
<glyph name="divide" format="1">
  <advance width="540"/>
  <unicode hex="00F7"/>
  <note>
	divide
  </note>
  <outline>
    <contour>
      <point x="490" y="273" type="line"/>
      <point x="490" y="339" type="line"/>
      <point x="50" y="339" type="line"/>
      <point x="50" y="273" type="line"/>
    </contour>
    <contour>
      <point x="301" y="92"/>
      <point x="325" y="117"/>
      <point x="325" y="148" type="curve" smooth="yes"/>
      <point x="325" y="179"/>
      <point x="301" y="203"/>
      <point x="270" y="203" type="curve" smooth="yes"/>
      <point x="239" y="203"/>
      <point x="215" y="179"/>
      <point x="215" y="148" type="curve" smooth="yes"/>
      <point x="215" y="117"/>
      <point x="239" y="92"/>
      <point x="270" y="92" type="curve" smooth="yes"/>
    </contour>
    <contour>
      <point x="301" y="409"/>
      <point x="325" y="434"/>
      <point x="325" y="465" type="curve" smooth="yes"/>
      <point x="325" y="496"/>
      <point x="301" y="520"/>
      <point x="270" y="520" type="curve" smooth="yes"/>
      <point x="239" y="520"/>
      <point x="215" y="496"/>
      <point x="215" y="465" type="curve" smooth="yes"/>
      <point x="215" y="434"/>
      <point x="239" y="409"/>
      <point x="270" y="409" type="curve" smooth="yes"/>
    </contour>
  </outline>
</glyph>
<glyph name="ucircumflex" format="1">
  <advance width="520"/>
  <unicode hex="00FB"/>
  <note>
	ucircumflex
  </note>
  <outline>
    <contour>
      <point x="272" y="-8"/>
      <point x="320" y="25"/>
      <point x="361" y="72" type="curve"/>
      <point x="369" y="72" type="line"/>
      <point x="375" y="0" type="line"/>
      <point x="446" y="0" type="line"/>
      <point x="446" y="470" type="line"/>
      <point x="364" y="470" type="line"/>
      <point x="364" y="128" type="line"/>
      <point x="329" y="87"/>
      <point x="282" y="64"/>
      <point x="216" y="64" type="curve" smooth="yes"/>
      <point x="198" y="64"/>
      <point x="174" y="66"/>
      <point x="150" y="73" type="curve"/>
      <point x="150" y="470" type="line"/>
      <point x="68" y="470" type="line"/>
      <point x="68" y="126" type="line" smooth="yes"/>
      <point x="68" y="26"/>
      <point x="111" y="-8"/>
      <point x="202" y="-8" type="curve" smooth="yes"/>
    </contour>
    <contour>
      <point x="251" y="616" type="line"/>
      <point x="256" y="616" type="line"/>
      <point x="337" y="541" type="line"/>
      <point x="390" y="552" type="line"/>
      <point x="291" y="685" type="line"/>
      <point x="216" y="685" type="line"/>
      <point x="116" y="552" type="line"/>
      <point x="167" y="541" type="line"/>
    </contour>
  </outline>
</glyph>
<glyph name="Abreve" format="1">
  <advance width="607"/>
  <unicode hex="0102"/>
  <note>
	Abreve
  </note>
  <outline>
    <contour>
      <point x="388" y="686"/>
      <point x="430" y="730"/>
      <point x="438" y="799" type="curve"/>
      <point x="361" y="811" type="line"/>
      <point x="358" y="772"/>
      <point x="349" y="750"/>
      <point x="303" y="750" type="curve" smooth="yes"/>
      <point x="257" y="750"/>
      <point x="248" y="772"/>
      <point x="245" y="811" type="curve"/>
      <point x="168" y="799" type="line"/>
      <point x="176" y="730"/>
      <point x="218" y="686"/>
      <point x="303" y="686" type="curve" smooth="yes"/>
    </contour>
    <component base="A"/>
  </outline>
</glyph>
<glyph name="Aogonek" format="1">
  <advance width="607"/>
  <unicode hex="0104"/>
  <note>
	Aogonek
  </note>
  <outline>
    <contour>
      <point x="535" y="-161"/>
      <point x="555" y="-157"/>
      <point x="572" y="-150" type="curve"/>
      <point x="558" y="-96" type="line"/>
      <point x="544" y="-100"/>
      <point x="531" y="-101"/>
      <point x="517" y="-101" type="curve" smooth="yes"/>
      <point x="503" y="-101"/>
      <point x="489" y="-100"/>
      <point x="479" y="-97" type="curve"/>
      <point x="477" y="-91"/>
      <point x="476" y="-83"/>
      <point x="476" y="-75" type="curve" smooth="yes"/>
      <point x="476" y="-43"/>
      <point x="490" y="-22"/>
      <point x="537" y="4" type="curve"/>
      <point x="572" y="7" type="line"/>
      <point x="519" y="205"/>
      <point x="445" y="441"/>
      <point x="377" y="616" type="curve"/>
      <point x="230" y="616" type="line"/>
      <point x="162" y="441"/>
      <point x="88" y="205"/>
      <point x="35" y="7" type="curve"/>
      <point x="126" y="0" type="line"/>
      <point x="141" y="64"/>
      <point x="159" y="133"/>
      <point x="178" y="200" type="curve"/>
      <point x="428" y="200" type="line"/>
      <point x="444" y="137"/>
      <point x="461" y="73"/>
      <point x="478" y="12" type="curve"/>
      <point x="435" y="-8"/>
      <point x="403" y="-33"/>
      <point x="403" y="-81" type="curve" smooth="yes"/>
      <point x="403" y="-134"/>
      <point x="445" y="-161"/>
      <point x="507" y="-161" type="curve" smooth="yes"/>
    </contour>
    <contour>
      <point x="230" y="376"/>
      <point x="260" y="470"/>
      <point x="283" y="535" type="curve"/>
      <point x="324" y="535" type="line"/>
      <point x="347" y="470"/>
      <point x="376" y="376"/>
      <point x="406" y="275" type="curve"/>
      <point x="200" y="275" type="line"/>
    </contour>
  </outline>
</glyph>
<glyph name="aogonek" format="1">
  <advance width="474"/>
  <unicode hex="0105"/>
  <note>
	aogonek
  </note>
  <outline>
    <contour>
      <point x="235" y="-8"/>
      <point x="288" y="20"/>
      <point x="321" y="66" type="curve"/>
      <point x="329" y="66" type="line"/>
      <point x="334" y="-1" type="line"/>
      <point x="406" y="0" type="line"/>
      <point x="406" y="331" type="line" smooth="yes"/>
      <point x="406" y="424"/>
      <point x="350" y="478"/>
      <point x="250" y="478" type="curve" smooth="yes"/>
      <point x="188" y="478"/>
      <point x="110" y="450"/>
      <point x="74" y="428" type="curve"/>
      <point x="74" y="403" type="line" smooth="yes"/>
      <point x="74" y="380"/>
      <point x="80" y="355"/>
      <point x="87" y="336" type="curve"/>
      <point x="148" y="336" type="line"/>
      <point x="158" y="411" type="line"/>
      <point x="174" y="413"/>
      <point x="199" y="415"/>
      <point x="224" y="415" type="curve" smooth="yes"/>
      <point x="296" y="415"/>
      <point x="324" y="396"/>
      <point x="324" y="322" type="curve" smooth="yes"/>
      <point x="324" y="260" type="line"/>
      <point x="302" y="262"/>
      <point x="279" y="263"/>
      <point x="258" y="263" type="curve" smooth="yes"/>
      <point x="129" y="263"/>
      <point x="40" y="219"/>
      <point x="40" y="113" type="curve" smooth="yes"/>
      <point x="40" y="40"/>
      <point x="87" y="-8"/>
      <point x="179" y="-8" type="curve" smooth="yes"/>
    </contour>
    <contour>
      <point x="379" y="-167"/>
      <point x="399" y="-163"/>
      <point x="416" y="-156" type="curve"/>
      <point x="402" y="-102" type="line"/>
      <point x="388" y="-106"/>
      <point x="375" y="-107"/>
      <point x="361" y="-107" type="curve" smooth="yes"/>
      <point x="347" y="-107"/>
      <point x="333" y="-106"/>
      <point x="323" y="-103" type="curve"/>
      <point x="321" y="-97"/>
      <point x="320" y="-89"/>
      <point x="320" y="-81" type="curve" smooth="yes"/>
      <point x="320" y="-45"/>
      <point x="339" y="-23"/>
      <point x="403" y="11" type="curve"/>
      <point x="346" y="16" type="line"/>
      <point x="293" y="-5"/>
      <point x="247" y="-30"/>
      <point x="247" y="-87" type="curve" smooth="yes"/>
      <point x="247" y="-140"/>
      <point x="289" y="-167"/>
      <point x="351" y="-167" type="curve" smooth="yes"/>
    </contour>
    <contour>
      <point x="151" y="56"/>
      <point x="126" y="71"/>
      <point x="126" y="122" type="curve" smooth="yes"/>
      <point x="126" y="152"/>
      <point x="129" y="172"/>
      <point x="142" y="203" type="curve"/>
      <point x="164" y="209"/>
      <point x="199" y="211"/>
      <point x="234" y="211" type="curve" smooth="yes"/>
      <point x="269" y="211"/>
      <point x="304" y="208"/>
      <point x="326" y="203" type="curve"/>
      <point x="326" y="129" type="line"/>
      <point x="295" y="82"/>
      <point x="244" y="56"/>
      <point x="190" y="56" type="curve" smooth="yes"/>
    </contour>
  </outline>
</glyph>
<glyph name="Cacute" format="1">
  <advance width="567"/>
  <unicode hex="0106"/>
  <note>
	Cacute
  </note>
  <outline>
    <contour>
      <point x="404" y="-8"/>
      <point x="482" y="12"/>
      <point x="525" y="49" type="curve"/>
      <point x="486" y="113" type="line"/>
      <point x="450" y="86"/>
      <point x="383" y="70"/>
      <point x="322" y="70" type="curve" smooth="yes"/>
      <point x="189" y="70"/>
      <point x="139" y="137"/>
      <point x="139" y="295" type="curve" smooth="yes"/>
      <point x="139" y="385"/>
      <point x="158" y="473"/>
      <point x="192" y="535" type="curve"/>
      <point x="234" y="544"/>
      <point x="273" y="548"/>
      <point x="311" y="548" type="curve" smooth="yes"/>
      <point x="352" y="548"/>
      <point x="396" y="544"/>
      <point x="421" y="539" type="curve"/>
      <point x="431" y="460" type="line"/>
      <point x="490" y="460" type="line"/>
      <point x="498" y="479"/>
      <point x="503" y="503"/>
      <point x="503" y="529" type="curve" smooth="yes"/>
      <point x="503" y="585" type="line"/>
      <point x="470" y="607"/>
      <point x="385" y="626"/>
      <point x="312" y="626" type="curve" smooth="yes"/>
      <point x="136" y="626"/>
      <point x="54" y="486"/>
      <point x="54" y="289" type="curve" smooth="yes"/>
      <point x="54" y="95"/>
      <point x="137" y="-8"/>
      <point x="320" y="-8" type="curve" smooth="yes"/>
    </contour>
    <contour>
      <point x="471" y="830" type="line"/>
      <point x="365" y="841" type="line"/>
      <point x="282" y="696" type="line"/>
      <point x="346" y="686" type="line"/>
    </contour>
  </outline>
</glyph>
<glyph name="Ccircumflex" format="1">
  <advance width="567"/>
  <unicode hex="0108"/>
  <note>
	Ccircumflex
  </note>
  <outline>
    <contour>
      <point x="404" y="-8"/>
      <point x="482" y="12"/>
      <point x="525" y="49" type="curve"/>
      <point x="486" y="113" type="line"/>
      <point x="450" y="86"/>
      <point x="383" y="70"/>
      <point x="322" y="70" type="curve" smooth="yes"/>
      <point x="189" y="70"/>
      <point x="139" y="137"/>
      <point x="139" y="295" type="curve" smooth="yes"/>
      <point x="139" y="385"/>
      <point x="158" y="473"/>
      <point x="192" y="535" type="curve"/>
      <point x="234" y="544"/>
      <point x="273" y="548"/>
      <point x="311" y="548" type="curve" smooth="yes"/>
      <point x="352" y="548"/>
      <point x="396" y="544"/>
      <point x="421" y="539" type="curve"/>
      <point x="431" y="460" type="line"/>
      <point x="490" y="460" type="line"/>
      <point x="498" y="479"/>
      <point x="503" y="503"/>
      <point x="503" y="529" type="curve" smooth="yes"/>
      <point x="503" y="585" type="line"/>
      <point x="470" y="607"/>
      <point x="385" y="626"/>
      <point x="312" y="626" type="curve" smooth="yes"/>
      <point x="136" y="626"/>
      <point x="54" y="486"/>
      <point x="54" y="289" type="curve" smooth="yes"/>
      <point x="54" y="95"/>
      <point x="137" y="-8"/>
      <point x="320" y="-8" type="curve" smooth="yes"/>
    </contour>
    <contour>
      <point x="324" y="759" type="line"/>
      <point x="329" y="759" type="line"/>
      <point x="410" y="684" type="line"/>
      <point x="463" y="695" type="line"/>
      <point x="364" y="828" type="line"/>
      <point x="289" y="828" type="line"/>
      <point x="189" y="695" type="line"/>
      <point x="240" y="684" type="line"/>
    </contour>
  </outline>
</glyph>
<glyph name="cdotaccent" format="1">
  <advance width="451"/>
  <unicode hex="010B"/>
  <note>
	cdotaccent
  </note>
  <outline>
    <contour>
      <point x="334" y="-8"/>
      <point x="382" y="14"/>
      <point x="425" y="51" type="curve"/>
      <point x="388" y="108" type="line"/>
      <point x="354" y="79"/>
      <point x="313" y="65"/>
      <point x="264" y="65" type="curve" smooth="yes"/>
      <point x="158" y="65"/>
      <point x="127" y="121"/>
      <point x="127" y="222" type="curve" smooth="yes"/>
      <point x="127" y="282"/>
      <point x="138" y="358"/>
      <point x="151" y="392" type="curve"/>
      <point x="174" y="401"/>
      <point x="215" y="405"/>
      <point x="248" y="405" type="curve" smooth="yes"/>
      <point x="276" y="405"/>
      <point x="302" y="401"/>
      <point x="320" y="396" type="curve"/>
      <point x="328" y="322" type="line"/>
      <point x="387" y="322" type="line"/>
      <point x="394" y="341"/>
      <point x="400" y="368"/>
      <point x="400" y="401" type="curve" smooth="yes"/>
      <point x="400" y="437" type="line"/>
      <point x="368" y="460"/>
      <point x="313" y="478"/>
      <point x="253" y="478" type="curve" smooth="yes"/>
      <point x="113" y="478"/>
      <point x="47" y="375"/>
      <point x="47" y="222" type="curve" smooth="yes"/>
      <point x="47" y="91"/>
      <point x="93" y="-8"/>
      <point x="262" y="-8" type="curve" smooth="yes"/>
    </contour>
    <contour>
      <point x="293" y="547"/>
      <point x="315" y="568"/>
      <point x="315" y="603" type="curve" smooth="yes"/>
      <point x="315" y="640"/>
      <point x="293" y="661"/>
      <point x="255" y="661" type="curve" smooth="yes"/>
      <point x="217" y="661"/>
      <point x="195" y="640"/>
      <point x="195" y="603" type="curve" smooth="yes"/>
      <point x="195" y="568"/>
      <point x="217" y="547"/>
      <point x="255" y="547" type="curve" smooth="yes"/>
    </contour>
  </outline>
</glyph>
<glyph name="Dcroat" format="1">
  <advance width="636"/>
  <unicode hex="0110"/>
  <note>
	Dcroat
  </note>
  <outline>
    <contour>
      <point x="269" y="0" type="line" smooth="yes"/>
      <point x="537" y="0"/>
      <point x="590" y="119"/>
      <point x="590" y="315" type="curve" smooth="yes"/>
      <point x="590" y="505"/>
      <point x="519" y="626"/>
      <point x="303" y="626" type="curve" smooth="yes"/>
      <point x="244" y="626"/>
      <point x="179" y="619"/>
      <point x="126" y="606" type="curve"/>
      <point x="126" y="342" type="line"/>
      <point x="45" y="342" type="line"/>
      <point x="45" y="268" type="line"/>
      <point x="126" y="268" type="line"/>
      <point x="126" y="0" type="line"/>
    </contour>
    <contour>
      <point x="211" y="268" type="line"/>
      <point x="307" y="268" type="line"/>
      <point x="307" y="342" type="line"/>
      <point x="211" y="342" type="line"/>
      <point x="211" y="543" type="line"/>
      <point x="242" y="547"/>
      <point x="268" y="549"/>
      <point x="299" y="549" type="curve" smooth="yes"/>
      <point x="463" y="549"/>
      <point x="505" y="468"/>
      <point x="505" y="306" type="curve" smooth="yes"/>
      <point x="505" y="224"/>
      <point x="491" y="146"/>
      <point x="470" y="100" type="curve"/>
      <point x="414" y="84"/>
      <point x="351" y="78"/>
      <point x="270" y="78" type="curve" smooth="yes"/>
      <point x="211" y="78" type="line"/>
    </contour>
  </outline>
</glyph>
<glyph name="Ebreve" format="1">
  <advance width="539"/>
  <unicode hex="0114"/>
  <note>
	Ebreve
  </note>
  <outline>
    <contour>
      <point x="364" y="-8"/>
      <point x="428" y="-2"/>
      <point x="479" y="13" type="curve"/>
      <point x="460" y="87" type="line"/>
      <point x="410" y="75"/>
      <point x="346" y="69"/>
      <point x="290" y="69" type="curve" smooth="yes"/>
      <point x="242" y="69"/>
      <point x="201" y="72"/>
      <point x="159" y="79" type="curve"/>
      <point x="159" y="270" type="line"/>
      <point x="439" y="270" type="line"/>
      <point x="439" y="345" type="line"/>
      <point x="159" y="345" type="line"/>
      <point x="159" y="539" type="line"/>
      <point x="468" y="539" type="line"/>
      <point x="468" y="616" type="line"/>
      <point x="75" y="616" type="line"/>
      <point x="75" y="93" type="line" smooth="yes"/>
      <point x="75" y="13"/>
      <point x="167" y="-8"/>
      <point x="287" y="-8" type="curve" smooth="yes"/>
    </contour>
    <contour>
      <point x="374" y="691"/>
      <point x="416" y="735"/>
      <point x="424" y="804" type="curve"/>
      <point x="347" y="816" type="line"/>
      <point x="344" y="777"/>
      <point x="335" y="755"/>
      <point x="289" y="755" type="curve" smooth="yes"/>
      <point x="243" y="755"/>
      <point x="234" y="777"/>
      <point x="231" y="816" type="curve"/>
      <point x="154" y="804" type="line"/>
      <point x="162" y="735"/>
      <point x="204" y="691"/>
      <point x="289" y="691" type="curve" smooth="yes"/>
    </contour>
  </outline>
</glyph>
<glyph name="Eogonek" format="1">
  <advance width="539"/>
  <unicode hex="0118"/>
  <note>
	Eogonek
  </note>
  <outline>
    <contour>
      <point x="475" y="-156"/>
      <point x="495" y="-152"/>
      <point x="512" y="-145" type="curve"/>
      <point x="498" y="-91" type="line"/>
      <point x="484" y="-95"/>
      <point x="471" y="-96"/>
      <point x="457" y="-96" type="curve" smooth="yes"/>
      <point x="443" y="-96"/>
      <point x="429" y="-95"/>
      <point x="419" y="-92" type="curve"/>
      <point x="417" y="-86"/>
      <point x="416" y="-78"/>
      <point x="416" y="-70" type="curve" smooth="yes"/>
      <point x="416" y="-43"/>
      <point x="423" y="-23"/>
      <point x="456" y="0" type="curve"/>
      <point x="465" y="4"/>
      <point x="476" y="9"/>
      <point x="480" y="11" type="curve"/>
      <point x="460" y="87" type="line"/>
      <point x="410" y="75"/>
      <point x="346" y="69"/>
      <point x="290" y="69" type="curve" smooth="yes"/>
      <point x="242" y="69"/>
      <point x="201" y="72"/>
      <point x="159" y="79" type="curve"/>
      <point x="159" y="270" type="line"/>
      <point x="439" y="270" type="line"/>
      <point x="439" y="345" type="line"/>
      <point x="159" y="345" type="line"/>
      <point x="159" y="539" type="line"/>
      <point x="468" y="539" type="line"/>
      <point x="468" y="616" type="line"/>
      <point x="75" y="616" type="line"/>
      <point x="75" y="93" type="line" smooth="yes"/>
      <point x="75" y="13"/>
      <point x="167" y="-8"/>
      <point x="287" y="-8" type="curve" smooth="yes"/>
      <point x="321" y="-8"/>
      <point x="352" y="-6"/>
      <point x="381" y="-4" type="curve"/>
      <point x="358" y="-21"/>
      <point x="343" y="-43"/>
      <point x="343" y="-76" type="curve" smooth="yes"/>
      <point x="343" y="-129"/>
      <point x="385" y="-156"/>
      <point x="447" y="-156" type="curve" smooth="yes"/>
    </contour>
  </outline>
</glyph>
<glyph name="gbreve" format="1">
  <advance width="514"/>
  <unicode hex="011F"/>
  <note>
	gbreve
  </note>
  <outline>
    <contour>
      <point x="364" y="-197"/>
      <point x="444" y="-149"/>
      <point x="444" y="-48" type="curve" smooth="yes"/>
      <point x="444" y="470" type="line"/>
      <point x="374" y="470" type="line"/>
      <point x="368" y="397" type="line"/>
      <point x="361" y="397" type="line"/>
      <point x="337" y="445"/>
      <point x="295" y="478"/>
      <point x="229" y="478" type="curve" smooth="yes"/>
      <point x="85" y="478"/>
      <point x="50" y="369"/>
      <point x="50" y="222" type="curve" smooth="yes"/>
      <point x="50" y="116"/>
      <point x="86" y="4"/>
      <point x="217" y="4" type="curve" smooth="yes"/>
      <point x="275" y="4"/>
      <point x="325" y="39"/>
      <point x="360" y="78" type="curve"/>
      <point x="368" y="78" type="line"/>
      <point x="365" y="12" type="line"/>
      <point x="365" y="-103" type="line"/>
      <point x="332" y="-118"/>
      <point x="298" y="-126"/>
      <point x="242" y="-126" type="curve" smooth="yes"/>
      <point x="194" y="-126"/>
      <point x="140" y="-112"/>
      <point x="103" y="-93" type="curve"/>
      <point x="80" y="-156" type="line"/>
      <point x="116" y="-178"/>
      <point x="181" y="-197"/>
      <point x="250" y="-197" type="curve" smooth="yes"/>
    </contour>
    <contour>
      <point x="166" y="73"/>
      <point x="134" y="122"/>
      <point x="134" y="232" type="curve" smooth="yes"/>
      <point x="134" y="345"/>
      <point x="152" y="410"/>
      <point x="239" y="410" type="curve" smooth="yes"/>
      <point x="293" y="410"/>
      <point x="332" y="381"/>
      <point x="362" y="342" type="curve"/>
      <point x="362" y="141" type="line"/>
      <point x="328" y="97"/>
      <point x="284" y="73"/>
      <point x="238" y="73" type="curve" smooth="yes"/>
    </contour>
    <contour>
      <point x="352" y="547"/>
      <point x="394" y="591"/>
      <point x="402" y="660" type="curve"/>
      <point x="325" y="672" type="line"/>
      <point x="322" y="633"/>
      <point x="313" y="611"/>
      <point x="267" y="611" type="curve" smooth="yes"/>
      <point x="221" y="611"/>
      <point x="212" y="633"/>
      <point x="209" y="672" type="curve"/>
      <point x="132" y="660" type="line"/>
      <point x="140" y="591"/>
      <point x="182" y="547"/>
      <point x="267" y="547" type="curve" smooth="yes"/>
    </contour>
  </outline>
</glyph>
<glyph name="Gcommaaccent" format="1">
  <advance width="598"/>
  <unicode hex="0122"/>
  <note>
	Gcommaaccent
  </note>
  <outline>
    <contour>
      <point x="448" y="-8"/>
      <point x="540" y="50"/>
      <point x="540" y="134" type="curve" smooth="yes"/>
      <point x="540" y="298" type="line"/>
      <point x="499" y="332" type="line"/>
      <point x="312" y="332" type="line"/>
      <point x="312" y="257" type="line"/>
      <point x="456" y="257" type="line"/>
      <point x="456" y="82" type="line"/>
      <point x="424" y="74"/>
      <point x="387" y="70"/>
      <point x="337" y="70" type="curve" smooth="yes"/>
      <point x="204" y="70"/>
      <point x="139" y="137"/>
      <point x="139" y="295" type="curve" smooth="yes"/>
      <point x="139" y="385"/>
      <point x="164" y="474"/>
      <point x="199" y="536" type="curve"/>
      <point x="241" y="545"/>
      <point x="292" y="548"/>
      <point x="330" y="548" type="curve" smooth="yes"/>
      <point x="375" y="548"/>
      <point x="425" y="544"/>
      <point x="447" y="539" type="curve"/>
      <point x="457" y="460" type="line"/>
      <point x="516" y="460" type="line"/>
      <point x="524" y="479"/>
      <point x="529" y="503"/>
      <point x="529" y="529" type="curve" smooth="yes"/>
      <point x="529" y="585" type="line"/>
      <point x="496" y="607"/>
      <point x="414" y="626"/>
      <point x="331" y="626" type="curve" smooth="yes"/>
      <point x="140" y="626"/>
      <point x="54" y="495"/>
      <point x="54" y="289" type="curve" smooth="yes"/>
      <point x="54" y="95"/>
      <point x="151" y="-8"/>
      <point x="324" y="-8" type="curve" smooth="yes"/>
    </contour>
    <contour>
      <point x="370" y="-229"/>
      <point x="389" y="-183"/>
      <point x="389" y="-142" type="curve" smooth="yes"/>
      <point x="389" y="-94"/>
      <point x="369" y="-70"/>
      <point x="323" y="-70" type="curve" smooth="yes"/>
      <point x="307" y="-70"/>
      <point x="289" y="-73"/>
      <point x="273" y="-79" type="curve"/>
      <point x="273" y="-135" type="line"/>
      <point x="326" y="-135" type="line"/>
      <point x="326" y="-175"/>
      <point x="313" y="-213"/>
      <point x="292" y="-252" type="curve"/>
      <point x="341" y="-263" type="line"/>
    </contour>
  </outline>
</glyph>
<glyph name="hcircumflex" format="1">
  <advance width="526"/>
  <unicode hex="0125"/>
  <note>
	hcircumflex
  </note>
  <outline>
    <contour>
      <point x="156" y="0" type="line"/>
      <point x="156" y="342" type="line"/>
      <point x="191" y="383"/>
      <point x="235" y="406"/>
      <point x="307" y="406" type="curve" smooth="yes"/>
      <point x="325" y="406"/>
      <point x="350" y="404"/>
      <point x="374" y="397" type="curve"/>
      <point x="374" y="0" type="line"/>
      <point x="456" y="0" type="line"/>
      <point x="456" y="344" type="line" smooth="yes"/>
      <point x="456" y="444"/>
      <point x="412" y="478"/>
      <point x="321" y="478" type="curve" smooth="yes"/>
      <point x="248" y="478"/>
      <point x="198" y="445"/>
      <point x="159" y="398" type="curve"/>
      <point x="153" y="398" type="line"/>
      <point x="156" y="468" type="line"/>
      <point x="156" y="671" type="line"/>
      <point x="74" y="671" type="line"/>
      <point x="74" y="0" type="line"/>
    </contour>
    <contour>
      <point x="285" y="771" type="line"/>
      <point x="290" y="771" type="line"/>
      <point x="371" y="696" type="line"/>
      <point x="424" y="707" type="line"/>
      <point x="325" y="840" type="line"/>
      <point x="250" y="840" type="line"/>
      <point x="150" y="707" type="line"/>
      <point x="201" y="696" type="line"/>
    </contour>
  </outline>
</glyph>
<glyph name="Hbar" format="1">
  <advance width="679"/>
  <unicode hex="0126"/>
  <note>
	Hbar
  </note>
  <outline>
    <contour>
      <point x="199" y="0" type="line"/>
      <point x="199" y="260" type="line"/>
      <point x="479" y="260" type="line"/>
      <point x="479" y="0" type="line"/>
      <point x="564" y="0" type="line"/>
      <point x="564" y="436" type="line"/>
      <point x="629" y="436" type="line"/>
      <point x="629" y="502" type="line"/>
      <point x="564" y="502" type="line"/>
      <point x="564" y="616" type="line"/>
      <point x="479" y="616" type="line"/>
      <point x="479" y="502" type="line"/>
      <point x="199" y="502" type="line"/>
      <point x="199" y="616" type="line"/>
      <point x="114" y="616" type="line"/>
      <point x="114" y="502" type="line"/>
      <point x="50" y="502" type="line"/>
      <point x="50" y="436" type="line"/>
      <point x="114" y="436" type="line"/>
      <point x="114" y="0" type="line"/>
    </contour>
    <contour>
      <point x="199" y="436" type="line"/>
      <point x="479" y="436" type="line"/>
      <point x="479" y="338" type="line"/>
      <point x="199" y="338" type="line"/>
    </contour>
  </outline>
</glyph>
<glyph name="hbar" format="1">
  <advance width="526"/>
  <unicode hex="0127"/>
  <note>
	hbar
  </note>
  <outline>
    <contour>
      <point x="156" y="0" type="line"/>
      <point x="156" y="342" type="line"/>
      <point x="191" y="383"/>
      <point x="235" y="406"/>
      <point x="307" y="406" type="curve" smooth="yes"/>
      <point x="325" y="406"/>
      <point x="350" y="404"/>
      <point x="374" y="397" type="curve"/>
      <point x="374" y="0" type="line"/>
      <point x="456" y="0" type="line"/>
      <point x="456" y="344" type="line" smooth="yes"/>
      <point x="456" y="444"/>
      <point x="412" y="478"/>
      <point x="321" y="478" type="curve" smooth="yes"/>
      <point x="248" y="478"/>
      <point x="198" y="445"/>
      <point x="159" y="398" type="curve"/>
      <point x="153" y="398" type="line"/>
      <point x="156" y="468" type="line"/>
      <point x="156" y="537" type="line"/>
      <point x="289" y="537" type="line"/>
      <point x="289" y="597" type="line"/>
      <point x="156" y="597" type="line"/>
      <point x="156" y="671" type="line"/>
      <point x="74" y="671" type="line"/>
      <point x="74" y="597" type="line"/>
      <point x="10" y="597" type="line"/>
      <point x="10" y="537" type="line"/>
      <point x="74" y="537" type="line"/>
      <point x="74" y="0" type="line"/>
    </contour>
  </outline>
</glyph>
<glyph name="Itilde" format="1">
  <advance width="242"/>
  <unicode hex="0128"/>
  <note>
	Itilde
  </note>
  <outline>
    <contour>
      <point x="163" y="0" type="line"/>
      <point x="163" y="616" type="line"/>
      <point x="78" y="616" type="line"/>
      <point x="78" y="0" type="line"/>
    </contour>
    <contour>
      <point x="35" y="709"/>
      <point x="45" y="728"/>
      <point x="72" y="728" type="curve" smooth="yes"/>
      <point x="107" y="728"/>
      <point x="134" y="687"/>
      <point x="181" y="687" type="curve" smooth="yes"/>
      <point x="236" y="687"/>
      <point x="261" y="718"/>
      <point x="265" y="783" type="curve"/>
      <point x="210" y="801" type="line"/>
      <point x="207" y="775"/>
      <point x="197" y="756"/>
      <point x="170" y="756" type="curve" smooth="yes"/>
      <point x="141" y="756"/>
      <point x="103" y="797"/>
      <point x="61" y="797" type="curve" smooth="yes"/>
      <point x="6" y="797"/>
      <point x="-19" y="766"/>
      <point x="-23" y="701" type="curve"/>
      <point x="32" y="683" type="line"/>
    </contour>
  </outline>
</glyph>
<glyph name="itilde" format="1">
  <advance width="258"/>
  <unicode hex="0129"/>
  <note>
	itilde
  </note>
  <outline>
    <contour>
      <point x="169" y="0" type="line"/>
      <point x="169" y="469" type="line"/>
      <point x="89" y="469" type="line"/>
      <point x="89" y="0" type="line"/>
    </contour>
    <contour>
      <point x="43" y="531"/>
      <point x="53" y="550"/>
      <point x="80" y="550" type="curve" smooth="yes"/>
      <point x="115" y="550"/>
      <point x="142" y="509"/>
      <point x="189" y="509" type="curve" smooth="yes"/>
      <point x="244" y="509"/>
      <point x="269" y="540"/>
      <point x="273" y="605" type="curve"/>
      <point x="218" y="623" type="line"/>
      <point x="215" y="597"/>
      <point x="205" y="578"/>
      <point x="178" y="578" type="curve" smooth="yes"/>
      <point x="149" y="578"/>
      <point x="111" y="619"/>
      <point x="69" y="619" type="curve" smooth="yes"/>
      <point x="14" y="619"/>
      <point x="-11" y="588"/>
      <point x="-15" y="523" type="curve"/>
      <point x="40" y="505" type="line"/>
    </contour>
  </outline>
</glyph>
<glyph name="imacron" format="1">
  <advance width="258"/>
  <unicode hex="012B"/>
  <note>
	imacron
  </note>
  <outline>
    <contour>
      <point x="169" y="0" type="line"/>
      <point x="169" y="469" type="line"/>
      <point x="89" y="469" type="line"/>
      <point x="89" y="0" type="line"/>
    </contour>
    <contour>
      <point x="282" y="552" type="line"/>
      <point x="282" y="622" type="line"/>
      <point x="-24" y="622" type="line"/>
      <point x="-24" y="552" type="line"/>
    </contour>
  </outline>
</glyph>
<glyph name="Ibreve" format="1">
  <advance width="242"/>
  <unicode hex="012C"/>
  <note>
	Ibreve
  </note>
  <outline>
    <contour>
      <point x="163" y="0" type="line"/>
      <point x="163" y="616" type="line"/>
      <point x="78" y="616" type="line"/>
      <point x="78" y="0" type="line"/>
    </contour>
    <contour>
      <point x="206" y="691"/>
      <point x="248" y="735"/>
      <point x="256" y="804" type="curve"/>
      <point x="179" y="816" type="line"/>
      <point x="176" y="777"/>
      <point x="167" y="755"/>
      <point x="121" y="755" type="curve" smooth="yes"/>
      <point x="75" y="755"/>
      <point x="66" y="777"/>
      <point x="63" y="816" type="curve"/>
      <point x="-14" y="804" type="line"/>
      <point x="-6" y="735"/>
      <point x="36" y="691"/>
      <point x="121" y="691" type="curve" smooth="yes"/>
    </contour>
  </outline>
</glyph>
<glyph name="Iogonek" format="1">
  <advance width="242"/>
  <unicode hex="012E"/>
  <note>
	Iogonek
  </note>
  <outline>
    <contour>
      <point x="163" y="5" type="line"/>
      <point x="163" y="616" type="line"/>
      <point x="78" y="616" type="line"/>
      <point x="78" y="5" type="line"/>
    </contour>
    <contour>
      <point x="158" y="-167"/>
      <point x="178" y="-163"/>
      <point x="195" y="-156" type="curve"/>
      <point x="181" y="-102" type="line"/>
      <point x="167" y="-106"/>
      <point x="154" y="-107"/>
      <point x="140" y="-107" type="curve" smooth="yes"/>
      <point x="126" y="-107"/>
      <point x="112" y="-106"/>
      <point x="102" y="-103" type="curve"/>
      <point x="100" y="-97"/>
      <point x="99" y="-89"/>
      <point x="99" y="-81" type="curve" smooth="yes"/>
      <point x="99" y="-44"/>
      <point x="119" y="-22"/>
      <point x="163" y="5" type="curve"/>
      <point x="96" y="21" type="line"/>
      <point x="65" y="-8"/>
      <point x="26" y="-33"/>
      <point x="26" y="-87" type="curve" smooth="yes"/>
      <point x="26" y="-140"/>
      <point x="68" y="-167"/>
      <point x="130" y="-167" type="curve" smooth="yes"/>
    </contour>
  </outline>
</glyph>
<glyph name="ij" format="1">
  <advance width="515"/>
  <unicode hex="0133"/>
  <note>
	ij
  </note>
  <outline>
    <contour>
      <point x="384" y="-198"/>
      <point x="439" y="-151"/>
      <point x="439" y="-65" type="curve" smooth="yes"/>
      <point x="439" y="468" type="line"/>
      <point x="359" y="468" type="line"/>
      <point x="359" y="-61" type="line" smooth="yes"/>
      <point x="359" y="-83"/>
      <point x="358" y="-101"/>
      <point x="352" y="-118" type="curve"/>
      <point x="336" y="-123"/>
      <point x="323" y="-125"/>
      <point x="303" y="-125" type="curve" smooth="yes"/>
      <point x="273" y="-125"/>
      <point x="255" y="-122"/>
      <point x="223" y="-112" type="curve"/>
      <point x="204" y="-182" type="line"/>
      <point x="235" y="-193"/>
      <point x="272" y="-198"/>
      <point x="302" y="-198" type="curve" smooth="yes"/>
    </contour>
    <contour>
      <point x="156" y="0" type="line"/>
      <point x="156" y="468" type="line"/>
      <point x="76" y="468" type="line"/>
      <point x="76" y="0" type="line"/>
    </contour>
    <contour>
      <point x="159" y="554" type="line"/>
      <point x="159" y="654" type="line"/>
      <point x="73" y="654" type="line"/>
      <point x="73" y="554" type="line"/>
    </contour>
    <contour>
      <point x="442" y="554" type="line"/>
      <point x="442" y="654" type="line"/>
      <point x="356" y="654" type="line"/>
      <point x="356" y="554" type="line"/>
    </contour>
  </outline>
</glyph>
<glyph name="Kcommaaccent" format="1">
  <advance width="600"/>
  <unicode hex="0136"/>
  <note>
	Kcommaaccent
  </note>
  <outline>
    <contour>
      <point x="532" y="-8"/>
      <point x="548" y="-5"/>
      <point x="567" y="1" type="curve"/>
      <point x="567" y="49" type="line"/>
      <point x="517" y="58" type="line"/>
      <point x="433" y="239" type="line" smooth="yes"/>
      <point x="414" y="282"/>
      <point x="396" y="303"/>
      <point x="347" y="317" type="curve"/>
      <point x="347" y="323" type="line"/>
      <point x="396" y="339"/>
      <point x="415" y="367"/>
      <point x="432" y="405" type="curve" smooth="yes"/>
      <point x="460" y="467"/>
      <point x="487" y="528"/>
      <point x="515" y="590" type="curve"/>
      <point x="433" y="622" type="line"/>
      <point x="405" y="557"/>
      <point x="378" y="493"/>
      <point x="350" y="428" type="curve" smooth="yes"/>
      <point x="333" y="388"/>
      <point x="305" y="359"/>
      <point x="235" y="359" type="curve" smooth="yes"/>
      <point x="160" y="359" type="line"/>
      <point x="160" y="616" type="line"/>
      <point x="75" y="616" type="line"/>
      <point x="75" y="0" type="line"/>
      <point x="160" y="0" type="line"/>
      <point x="160" y="282" type="line"/>
      <point x="240" y="282" type="line" smooth="yes"/>
      <point x="310" y="282"/>
      <point x="334" y="254"/>
      <point x="356" y="204" type="curve" smooth="yes"/>
      <point x="430" y="35" type="line" smooth="yes"/>
      <point x="444" y="4"/>
      <point x="466" y="-8"/>
      <point x="501" y="-8" type="curve" smooth="yes"/>
    </contour>
    <contour>
      <point x="352" y="-229"/>
      <point x="371" y="-183"/>
      <point x="371" y="-142" type="curve" smooth="yes"/>
      <point x="371" y="-94"/>
      <point x="351" y="-70"/>
      <point x="305" y="-70" type="curve" smooth="yes"/>
      <point x="289" y="-70"/>
      <point x="271" y="-73"/>
      <point x="255" y="-79" type="curve"/>
      <point x="255" y="-135" type="line"/>
      <point x="308" y="-135" type="line"/>
      <point x="308" y="-175"/>
      <point x="295" y="-213"/>
      <point x="274" y="-252" type="curve"/>
      <point x="323" y="-263" type="line"/>
    </contour>
  </outline>
</glyph>
<glyph name="kgreenlandic" format="1">
  <advance width="497"/>
  <unicode hex="0138"/>
  <note>
	kgreenlandic
  </note>
  <outline>
    <contour>
      <point x="428" y="-5"/>
      <point x="444" y="-2"/>
      <point x="462" y="3" type="curve"/>
      <point x="462" y="44" type="line"/>
      <point x="433" y="53" type="line"/>
      <point x="383" y="164" type="line" smooth="yes"/>
      <point x="364" y="207"/>
      <point x="345" y="228"/>
      <point x="296" y="242" type="curve"/>
      <point x="296" y="248" type="line"/>
      <point x="345" y="264"/>
      <point x="367" y="292"/>
      <point x="383" y="330" type="curve" smooth="yes"/>
      <point x="438" y="459" type="line"/>
      <point x="355" y="478" type="line"/>
      <point x="302" y="353" type="line" smooth="yes"/>
      <point x="285" y="315"/>
      <point x="261" y="277"/>
      <point x="191" y="277" type="curve" smooth="yes"/>
      <point x="150" y="277" type="line"/>
      <point x="150" y="477" type="line"/>
      <point x="70" y="477" type="line"/>
      <point x="70" y="0" type="line"/>
      <point x="150" y="0" type="line"/>
      <point x="150" y="214" type="line"/>
      <point x="196" y="214" type="line" smooth="yes"/>
      <point x="266" y="214"/>
      <point x="290" y="179"/>
      <point x="312" y="129" type="curve" smooth="yes"/>
      <point x="356" y="29" type="line" smooth="yes"/>
      <point x="366" y="5"/>
      <point x="387" y="-5"/>
      <point x="414" y="-5" type="curve" smooth="yes"/>
    </contour>
  </outline>
</glyph>
<glyph name="Lacute" format="1">
  <advance width="457"/>
  <unicode hex="0139"/>
  <note>
	Lacute
  </note>
  <outline>
    <contour>
      <point x="433" y="0" type="line"/>
      <point x="433" y="78" type="line"/>
      <point x="160" y="78" type="line"/>
      <point x="160" y="616" type="line"/>
      <point x="75" y="616" type="line"/>
      <point x="75" y="0" type="line"/>
    </contour>
    <contour>
      <point x="266" y="828" type="line"/>
      <point x="160" y="839" type="line"/>
      <point x="77" y="694" type="line"/>
      <point x="141" y="684" type="line"/>
    </contour>
  </outline>
</glyph>
<glyph name="lacute" format="1">
  <advance width="291"/>
  <unicode hex="013A"/>
  <note>
	lacute
  </note>
  <outline>
    <contour>
      <point x="207" y="-6"/>
      <point x="247" y="17"/>
      <point x="266" y="45" type="curve"/>
      <point x="231" y="90" type="line"/>
      <point x="174" y="61" type="line"/>
      <point x="161" y="61" type="line"/>
      <point x="157" y="71"/>
      <point x="157" y="79"/>
      <point x="157" y="95" type="curve" smooth="yes"/>
      <point x="157" y="671" type="line"/>
      <point x="77" y="671" type="line"/>
      <point x="77" y="85" type="line" smooth="yes"/>
      <point x="77" y="52"/>
      <point x="139" y="-1"/>
      <point x="167" y="-8" type="curve"/>
    </contour>
    <contour>
      <point x="265" y="829" type="line"/>
      <point x="159" y="840" type="line"/>
      <point x="76" y="695" type="line"/>
      <point x="140" y="685" type="line"/>
    </contour>
  </outline>
</glyph>
<glyph name="Lcommaaccent" format="1">
  <advance width="457"/>
  <unicode hex="013B"/>
  <note>
	Lcommaaccent
  </note>
  <outline>
    <contour>
      <point x="433" y="0" type="line"/>
      <point x="433" y="78" type="line"/>
      <point x="160" y="78" type="line"/>
      <point x="160" y="616" type="line"/>
      <point x="75" y="616" type="line"/>
      <point x="75" y="0" type="line"/>
    </contour>
    <contour>
      <point x="314" y="-229"/>
      <point x="333" y="-183"/>
      <point x="333" y="-142" type="curve" smooth="yes"/>
      <point x="333" y="-94"/>
      <point x="313" y="-70"/>
      <point x="267" y="-70" type="curve" smooth="yes"/>
      <point x="251" y="-70"/>
      <point x="233" y="-73"/>
      <point x="217" y="-79" type="curve"/>
      <point x="217" y="-135" type="line"/>
      <point x="270" y="-135" type="line"/>
      <point x="270" y="-175"/>
      <point x="257" y="-213"/>
      <point x="236" y="-252" type="curve"/>
      <point x="285" y="-263" type="line"/>
    </contour>
  </outline>
</glyph>
<glyph name="Ldot" format="1">
  <advance width="457"/>
  <unicode hex="013F"/>
  <note>
	Ldot
  </note>
  <outline>
    <contour>
      <point x="433" y="0" type="line"/>
      <point x="433" y="78" type="line"/>
      <point x="160" y="78" type="line"/>
      <point x="160" y="616" type="line"/>
      <point x="75" y="616" type="line"/>
      <point x="75" y="0" type="line"/>
    </contour>
    <contour>
      <point x="338" y="218"/>
      <point x="364" y="243"/>
      <point x="364" y="276" type="curve" smooth="yes"/>
      <point x="364" y="308"/>
      <point x="337" y="334"/>
      <point x="305" y="334" type="curve" smooth="yes"/>
      <point x="273" y="334"/>
      <point x="246" y="308"/>
      <point x="246" y="276" type="curve" smooth="yes"/>
      <point x="246" y="243"/>
      <point x="272" y="218"/>
      <point x="305" y="218" type="curve" smooth="yes"/>
    </contour>
  </outline>
</glyph>
<glyph name="Lslash" format="1">
  <advance width="489"/>
  <unicode hex="0141"/>
  <note>
	Lslash
  </note>
  <outline>
    <contour>
      <point x="465" y="0" type="line"/>
      <point x="465" y="78" type="line"/>
      <point x="192" y="78" type="line"/>
      <point x="192" y="278" type="line"/>
      <point x="323" y="319" type="line"/>
      <point x="304" y="380" type="line"/>
      <point x="192" y="345" type="line"/>
      <point x="192" y="616" type="line"/>
      <point x="107" y="616" type="line"/>
      <point x="107" y="318" type="line"/>
      <point x="0" y="284" type="line"/>
      <point x="19" y="223" type="line"/>
      <point x="107" y="251" type="line"/>
      <point x="107" y="0" type="line"/>
    </contour>
  </outline>
</glyph>
<glyph name="lslash" format="1">
  <advance width="282"/>
  <unicode hex="0142"/>
  <note>
	lslash
  </note>
  <outline>
    <contour>
      <point x="206" y="-4"/>
      <point x="246" y="19"/>
      <point x="265" y="47" type="curve"/>
      <point x="230" y="92" type="line"/>
      <point x="173" y="63" type="line"/>
      <point x="160" y="63" type="line"/>
      <point x="156" y="73"/>
      <point x="156" y="81"/>
      <point x="156" y="97" type="curve" smooth="yes"/>
      <point x="156" y="310" type="line"/>
      <point x="279" y="349" type="line"/>
      <point x="260" y="410" type="line"/>
      <point x="156" y="377" type="line"/>
      <point x="156" y="648" type="line"/>
      <point x="76" y="648" type="line"/>
      <point x="76" y="352" type="line"/>
      <point x="-23" y="318" type="line"/>
      <point x="-4" y="257" type="line"/>
      <point x="76" y="285" type="line"/>
      <point x="76" y="87" type="line" smooth="yes"/>
      <point x="76" y="54"/>
      <point x="138" y="1"/>
      <point x="166" y="-6" type="curve"/>
    </contour>
  </outline>
</glyph>
<glyph name="Nacute" format="1">
  <advance width="625"/>
  <unicode hex="0143"/>
  <note>
	Nacute
  </note>
  <outline>
    <contour>
      <point x="161" y="0" type="line"/>
      <point x="161" y="328" type="line"/>
      <point x="151" y="485" type="line"/>
      <point x="159" y="487" type="line"/>
      <point x="454" y="0" type="line"/>
      <point x="550" y="0" type="line"/>
      <point x="550" y="616" type="line"/>
      <point x="464" y="616" type="line"/>
      <point x="464" y="288" type="line"/>
      <point x="474" y="131" type="line"/>
      <point x="466" y="129" type="line"/>
      <point x="171" y="616" type="line"/>
      <point x="75" y="616" type="line"/>
      <point x="75" y="0" type="line"/>
    </contour>
    <contour>
      <point x="454" y="828" type="line"/>
      <point x="348" y="839" type="line"/>
      <point x="265" y="694" type="line"/>
      <point x="329" y="684" type="line"/>
    </contour>
  </outline>
</glyph>
<glyph name="ncommaaccent" format="1">
  <advance width="526"/>
  <unicode hex="0146"/>
  <note>
	ncommaaccent
  </note>
  <outline>
    <contour>
      <point x="156" y="0" type="line"/>
      <point x="156" y="342" type="line"/>
      <point x="191" y="383"/>
      <point x="235" y="406"/>
      <point x="307" y="406" type="curve" smooth="yes"/>
      <point x="325" y="406"/>
      <point x="350" y="404"/>
      <point x="374" y="397" type="curve"/>
      <point x="374" y="0" type="line"/>
      <point x="456" y="0" type="line"/>
      <point x="456" y="344" type="line" smooth="yes"/>
      <point x="456" y="444"/>
      <point x="412" y="478"/>
      <point x="321" y="478" type="curve" smooth="yes"/>
      <point x="248" y="478"/>
      <point x="198" y="445"/>
      <point x="159" y="398" type="curve"/>
      <point x="151" y="398" type="line"/>
      <point x="145" y="470" type="line"/>
      <point x="74" y="470" type="line"/>
      <point x="74" y="0" type="line"/>
    </contour>
    <contour>
      <point x="320" y="-229"/>
      <point x="339" y="-183"/>
      <point x="339" y="-142" type="curve" smooth="yes"/>
      <point x="339" y="-94"/>
      <point x="319" y="-70"/>
      <point x="273" y="-70" type="curve" smooth="yes"/>
      <point x="257" y="-70"/>
      <point x="239" y="-73"/>
      <point x="223" y="-79" type="curve"/>
      <point x="223" y="-135" type="line"/>
      <point x="276" y="-135" type="line"/>
      <point x="276" y="-175"/>
      <point x="263" y="-213"/>
      <point x="242" y="-252" type="curve"/>
      <point x="291" y="-263" type="line"/>
    </contour>
  </outline>
</glyph>
<glyph name="OE" format="1">
  <advance width="900"/>
  <unicode hex="0152"/>
  <note>
	OE
  </note>
  <outline>
    <contour>
      <point x="725" y="-10"/>
      <point x="789" y="-4"/>
      <point x="840" y="11" type="curve"/>
      <point x="821" y="85" type="line"/>
      <point x="771" y="73"/>
      <point x="711" y="67"/>
      <point x="655" y="67" type="curve" smooth="yes"/>
      <point x="607" y="67"/>
      <point x="562" y="73"/>
      <point x="520" y="86" type="curve"/>
      <point x="520" y="270" type="line"/>
      <point x="800" y="270" type="line"/>
      <point x="800" y="345" type="line"/>
      <point x="520" y="345" type="line"/>
      <point x="520" y="539" type="line"/>
      <point x="829" y="539" type="line"/>
      <point x="829" y="616" type="line"/>
      <point x="436" y="616" type="line"/>
      <point x="402" y="622"/>
      <point x="363" y="626"/>
      <point x="318" y="626" type="curve" smooth="yes"/>
      <point x="123" y="626"/>
      <point x="52" y="516"/>
      <point x="52" y="296" type="curve" smooth="yes"/>
      <point x="52" y="95"/>
      <point x="139" y="-9"/>
      <point x="303" y="-9" type="curve" smooth="yes"/>
      <point x="366" y="-9"/>
      <point x="423" y="4"/>
      <point x="467" y="30" type="curve"/>
      <point x="473" y="30" type="line"/>
      <point x="514" y="3"/>
      <point x="575" y="-10"/>
      <point x="648" y="-10" type="curve" smooth="yes"/>
    </contour>
    <contour>
      <point x="184" y="69"/>
      <point x="137" y="146"/>
      <point x="137" y="315" type="curve" smooth="yes"/>
      <point x="137" y="403"/>
      <point x="155" y="476"/>
      <point x="180" y="530" type="curve"/>
      <point x="205" y="540"/>
      <point x="257" y="548"/>
      <point x="304" y="548" type="curve" smooth="yes"/>
      <point x="360" y="548"/>
      <point x="386" y="547"/>
      <point x="436" y="539" type="curve"/>
      <point x="436" y="87" type="line"/>
      <point x="411" y="77"/>
      <point x="364" y="69"/>
      <point x="317" y="69" type="curve" smooth="yes"/>
    </contour>
  </outline>
</glyph>
<glyph name="Racute" format="1">
  <advance width="586"/>
  <unicode hex="0154"/>
  <note>
	Racute
  </note>
  <outline>
    <contour>
      <point x="522" y="-8"/>
      <point x="538" y="-5"/>
      <point x="557" y="1" type="curve"/>
      <point x="557" y="49" type="line"/>
      <point x="507" y="58" type="line"/>
      <point x="439" y="205" type="line" smooth="yes"/>
      <point x="425" y="235"/>
      <point x="408" y="254"/>
      <point x="380" y="268" type="curve"/>
      <point x="380" y="277" type="line"/>
      <point x="446" y="309"/>
      <point x="479" y="364"/>
      <point x="479" y="443" type="curve" smooth="yes"/>
      <point x="479" y="572"/>
      <point x="400" y="626"/>
      <point x="248" y="626" type="curve" smooth="yes"/>
      <point x="189" y="626"/>
      <point x="127" y="615"/>
      <point x="75" y="600" type="curve"/>
      <point x="75" y="0" type="line"/>
      <point x="160" y="0" type="line"/>
      <point x="160" y="247" type="line"/>
      <point x="256" y="247" type="line" smooth="yes"/>
      <point x="326" y="247"/>
      <point x="340" y="220"/>
      <point x="362" y="170" type="curve" smooth="yes"/>
      <point x="420" y="35" type="line" smooth="yes"/>
      <point x="434" y="4"/>
      <point x="456" y="-8"/>
      <point x="491" y="-8" type="curve" smooth="yes"/>
    </contour>
    <contour>
      <point x="160" y="541" type="line"/>
      <point x="184" y="547"/>
      <point x="216" y="549"/>
      <point x="247" y="549" type="curve" smooth="yes"/>
      <point x="347" y="549"/>
      <point x="393" y="523"/>
      <point x="393" y="440" type="curve" smooth="yes"/>
      <point x="393" y="379"/>
      <point x="372" y="347"/>
      <point x="329" y="323" type="curve"/>
      <point x="160" y="323" type="line"/>
    </contour>
    <contour>
      <point x="406" y="830" type="line"/>
      <point x="300" y="841" type="line"/>
      <point x="217" y="696" type="line"/>
      <point x="281" y="686" type="line"/>
    </contour>
  </outline>
</glyph>
<glyph name="rcommaaccent" format="1">
  <advance width="374"/>
  <unicode hex="0157"/>
  <note>
	rcommaaccent
  </note>
  <outline>
    <contour>
      <point x="156" y="0" type="line"/>
      <point x="156" y="295" type="line"/>
      <point x="172" y="357"/>
      <point x="227" y="383"/>
      <point x="289" y="383" type="curve" smooth="yes"/>
      <point x="335" y="383" type="line"/>
      <point x="344" y="450" type="line"/>
      <point x="339" y="459"/>
      <point x="319" y="474"/>
      <point x="308" y="474" type="curve" smooth="yes"/>
      <point x="256" y="474"/>
      <point x="188" y="439"/>
      <point x="159" y="376" type="curve"/>
      <point x="149" y="376" type="line"/>
      <point x="143" y="468" type="line"/>
      <point x="74" y="468" type="line"/>
      <point x="74" y="0" type="line"/>
    </contour>
    <contour>
      <point x="159" y="-229"/>
      <point x="178" y="-183"/>
      <point x="178" y="-142" type="curve" smooth="yes"/>
      <point x="178" y="-94"/>
      <point x="158" y="-70"/>
      <point x="112" y="-70" type="curve" smooth="yes"/>
      <point x="96" y="-70"/>
      <point x="78" y="-73"/>
      <point x="62" y="-79" type="curve"/>
      <point x="62" y="-135" type="line"/>
      <point x="115" y="-135" type="line"/>
      <point x="115" y="-175"/>
      <point x="102" y="-213"/>
      <point x="81" y="-252" type="curve"/>
      <point x="130" y="-263" type="line"/>
    </contour>
  </outline>
</glyph>
<glyph name="rcaron" format="1">
  <advance width="374"/>
  <unicode hex="0159"/>
  <note>
	rcaron
  </note>
  <outline>
    <contour>
      <point x="156" y="0" type="line"/>
      <point x="156" y="295" type="line"/>
      <point x="172" y="357"/>
      <point x="227" y="383"/>
      <point x="289" y="383" type="curve" smooth="yes"/>
      <point x="335" y="383" type="line"/>
      <point x="344" y="450" type="line"/>
      <point x="339" y="459"/>
      <point x="319" y="474"/>
      <point x="308" y="474" type="curve" smooth="yes"/>
      <point x="256" y="474"/>
      <point x="188" y="439"/>
      <point x="159" y="376" type="curve"/>
      <point x="149" y="376" type="line"/>
      <point x="143" y="468" type="line"/>
      <point x="74" y="468" type="line"/>
      <point x="74" y="0" type="line"/>
    </contour>
    <contour>
      <point x="253" y="552" type="line"/>
      <point x="352" y="685" type="line"/>
      <point x="299" y="696" type="line"/>
      <point x="218" y="621" type="line"/>
      <point x="213" y="621" type="line"/>
      <point x="129" y="696" type="line"/>
      <point x="78" y="685" type="line"/>
      <point x="178" y="552" type="line"/>
    </contour>
  </outline>
</glyph>
<glyph name="scircumflex" format="1">
  <advance width="430"/>
  <unicode hex="015D"/>
  <note>
	scircumflex
  </note>
  <outline>
    <contour>
      <point x="334" y="-8"/>
      <point x="384" y="61"/>
      <point x="384" y="134" type="curve" smooth="yes"/>
      <point x="384" y="223"/>
      <point x="331" y="247"/>
      <point x="228" y="269" type="curve" smooth="yes"/>
      <point x="143" y="287"/>
      <point x="124" y="310"/>
      <point x="124" y="351" type="curve" smooth="yes"/>
      <point x="124" y="399"/>
      <point x="150" y="415"/>
      <point x="217" y="415" type="curve" smooth="yes"/>
      <point x="243" y="415"/>
      <point x="267" y="413"/>
      <point x="283" y="411" type="curve"/>
      <point x="291" y="346" type="line"/>
      <point x="350" y="346" type="line"/>
      <point x="358" y="366"/>
      <point x="363" y="392"/>
      <point x="363" y="415" type="curve" smooth="yes"/>
      <point x="363" y="446" type="line"/>
      <point x="331" y="464"/>
      <point x="289" y="478"/>
      <point x="221" y="478" type="curve" smooth="yes"/>
      <point x="99" y="478"/>
      <point x="46" y="408"/>
      <point x="46" y="338" type="curve" smooth="yes"/>
      <point x="46" y="251"/>
      <point x="114" y="220"/>
      <point x="211" y="200" type="curve" smooth="yes"/>
      <point x="297" y="182"/>
      <point x="306" y="167"/>
      <point x="306" y="120" type="curve" smooth="yes"/>
      <point x="306" y="100"/>
      <point x="303" y="83"/>
      <point x="297" y="67" type="curve"/>
      <point x="274" y="62"/>
      <point x="247" y="59"/>
      <point x="214" y="59" type="curve" smooth="yes"/>
      <point x="162" y="59"/>
      <point x="110" y="72"/>
      <point x="68" y="96" type="curve"/>
      <point x="44" y="31" type="line"/>
      <point x="91" y="4"/>
      <point x="148" y="-8"/>
      <point x="208" y="-8" type="curve" smooth="yes"/>
    </contour>
    <contour>
      <point x="214" y="615" type="line"/>
      <point x="219" y="615" type="line"/>
      <point x="300" y="540" type="line"/>
      <point x="353" y="551" type="line"/>
      <point x="254" y="684" type="line"/>
      <point x="179" y="684" type="line"/>
      <point x="79" y="551" type="line"/>
      <point x="130" y="540" type="line"/>
    </contour>
  </outline>
</glyph>
<glyph name="Scedilla" format="1">
  <advance width="518"/>
  <unicode hex="015E"/>
  <note>
	Scedilla
  </note>
  <outline>
    <contour>
      <point x="345" y="-216"/>
      <point x="379" y="-186"/>
      <point x="379" y="-128" type="curve" smooth="yes"/>
      <point x="379" y="-82"/>
      <point x="356" y="-52"/>
      <point x="300" y="-52" type="curve" smooth="yes"/>
      <point x="285" y="-52"/>
      <point x="272" y="-54"/>
      <point x="261" y="-59" type="curve"/>
      <point x="299" y="-5" type="line"/>
      <point x="426" y="10"/>
      <point x="466" y="91"/>
      <point x="466" y="177" type="curve" smooth="yes"/>
      <point x="466" y="279"/>
      <point x="403" y="320"/>
      <point x="279" y="348" type="curve" smooth="yes"/>
      <point x="177" y="371"/>
      <point x="148" y="394"/>
      <point x="148" y="451" type="curve" smooth="yes"/>
      <point x="148" y="518"/>
      <point x="177" y="550"/>
      <point x="265" y="550" type="curve" smooth="yes"/>
      <point x="299" y="550"/>
      <point x="326" y="547"/>
      <point x="354" y="543" type="curve"/>
      <point x="367" y="458" type="line"/>
      <point x="428" y="458" type="line"/>
      <point x="437" y="483"/>
      <point x="445" y="518"/>
      <point x="445" y="548" type="curve" smooth="yes"/>
      <point x="445" y="584" type="line"/>
      <point x="404" y="608"/>
      <point x="359" y="626"/>
      <point x="270" y="626" type="curve" smooth="yes"/>
      <point x="111" y="626"/>
      <point x="63" y="535"/>
      <point x="63" y="444" type="curve" smooth="yes"/>
      <point x="63" y="330"/>
      <point x="153" y="293"/>
      <point x="257" y="268" type="curve" smooth="yes"/>
      <point x="349" y="246"/>
      <point x="381" y="220"/>
      <point x="381" y="159" type="curve" smooth="yes"/>
      <point x="381" y="133"/>
      <point x="377" y="105"/>
      <point x="369" y="84" type="curve"/>
      <point x="339" y="77"/>
      <point x="304" y="73"/>
      <point x="261" y="73" type="curve" smooth="yes"/>
      <point x="195" y="73"/>
      <point x="137" y="85"/>
      <point x="79" y="115" type="curve"/>
      <point x="50" y="41" type="line"/>
      <point x="106" y="10"/>
      <point x="167" y="-5"/>
      <point x="231" y="-7" type="curve"/>
      <point x="183" y="-66" type="line"/>
      <point x="226" y="-109" type="line"/>
      <point x="236" y="-104"/>
      <point x="251" y="-101"/>
      <point x="266" y="-101" type="curve" smooth="yes"/>
      <point x="293" y="-101"/>
      <point x="311" y="-109"/>
      <point x="311" y="-131" type="curve" smooth="yes"/>
      <point x="311" y="-142"/>
      <point x="310" y="-148"/>
      <point x="307" y="-157" type="curve"/>
      <point x="292" y="-160"/>
      <point x="278" y="-161"/>
      <point x="260" y="-161" type="curve" smooth="yes"/>
      <point x="242" y="-161"/>
      <point x="213" y="-157"/>
      <point x="195" y="-150" type="curve"/>
      <point x="178" y="-199" type="line"/>
      <point x="208" y="-213"/>
      <point x="239" y="-216"/>
      <point x="267" y="-216" type="curve" smooth="yes"/>
    </contour>
  </outline>
</glyph>
<glyph name="scedilla" format="1">
  <advance width="430"/>
  <unicode hex="015F"/>
  <note>
	scedilla
  </note>
  <outline>
    <contour>
      <point x="298" y="-216"/>
      <point x="332" y="-186"/>
      <point x="332" y="-128" type="curve" smooth="yes"/>
      <point x="332" y="-82"/>
      <point x="309" y="-52"/>
      <point x="253" y="-52" type="curve" smooth="yes"/>
      <point x="238" y="-52"/>
      <point x="225" y="-54"/>
      <point x="214" y="-59" type="curve"/>
      <point x="252" y="-5" type="line"/>
      <point x="346" y="9"/>
      <point x="384" y="70"/>
      <point x="384" y="134" type="curve" smooth="yes"/>
      <point x="384" y="223"/>
      <point x="331" y="247"/>
      <point x="228" y="269" type="curve" smooth="yes"/>
      <point x="143" y="287"/>
      <point x="124" y="310"/>
      <point x="124" y="351" type="curve" smooth="yes"/>
      <point x="124" y="399"/>
      <point x="150" y="415"/>
      <point x="217" y="415" type="curve" smooth="yes"/>
      <point x="243" y="415"/>
      <point x="267" y="413"/>
      <point x="283" y="411" type="curve"/>
      <point x="291" y="346" type="line"/>
      <point x="350" y="346" type="line"/>
      <point x="358" y="366"/>
      <point x="363" y="392"/>
      <point x="363" y="415" type="curve" smooth="yes"/>
      <point x="363" y="446" type="line"/>
      <point x="331" y="464"/>
      <point x="289" y="478"/>
      <point x="221" y="478" type="curve" smooth="yes"/>
      <point x="99" y="478"/>
      <point x="46" y="408"/>
      <point x="46" y="338" type="curve" smooth="yes"/>
      <point x="46" y="251"/>
      <point x="114" y="220"/>
      <point x="211" y="200" type="curve" smooth="yes"/>
      <point x="297" y="182"/>
      <point x="306" y="167"/>
      <point x="306" y="120" type="curve" smooth="yes"/>
      <point x="306" y="100"/>
      <point x="303" y="83"/>
      <point x="297" y="67" type="curve"/>
      <point x="274" y="62"/>
      <point x="247" y="59"/>
      <point x="214" y="59" type="curve" smooth="yes"/>
      <point x="162" y="59"/>
      <point x="110" y="72"/>
      <point x="68" y="96" type="curve"/>
      <point x="44" y="31" type="line"/>
      <point x="85" y="7"/>
      <point x="133" y="-4"/>
      <point x="184" y="-7" type="curve"/>
      <point x="136" y="-66" type="line"/>
      <point x="179" y="-109" type="line"/>
      <point x="189" y="-104"/>
      <point x="204" y="-101"/>
      <point x="219" y="-101" type="curve" smooth="yes"/>
      <point x="246" y="-101"/>
      <point x="264" y="-109"/>
      <point x="264" y="-131" type="curve" smooth="yes"/>
      <point x="264" y="-142"/>
      <point x="263" y="-148"/>
      <point x="260" y="-157" type="curve"/>
      <point x="245" y="-160"/>
      <point x="231" y="-161"/>
      <point x="213" y="-161" type="curve" smooth="yes"/>
      <point x="195" y="-161"/>
      <point x="166" y="-157"/>
      <point x="148" y="-150" type="curve"/>
      <point x="131" y="-199" type="line"/>
      <point x="161" y="-213"/>
      <point x="192" y="-216"/>
      <point x="220" y="-216" type="curve" smooth="yes"/>
    </contour>
  </outline>
</glyph>
<glyph name="Tcedilla" format="1">
  <advance width="553"/>
  <unicode hex="0162"/>
  <note>
	Tcedilla
  </note>
  <outline>
    <contour>
      <point x="341" y="-216"/>
      <point x="375" y="-186"/>
      <point x="375" y="-128" type="curve" smooth="yes"/>
      <point x="375" y="-82"/>
      <point x="352" y="-52"/>
      <point x="296" y="-52" type="curve" smooth="yes"/>
      <point x="281" y="-52"/>
      <point x="268" y="-54"/>
      <point x="257" y="-59" type="curve"/>
      <point x="299" y="0" type="line"/>
      <point x="319" y="0" type="line"/>
      <point x="319" y="538" type="line"/>
      <point x="517" y="538" type="line"/>
      <point x="517" y="616" type="line"/>
      <point x="36" y="616" type="line"/>
      <point x="36" y="538" type="line"/>
      <point x="234" y="538" type="line"/>
      <point x="234" y="0" type="line"/>
      <point x="179" y="-66" type="line"/>
      <point x="222" y="-109" type="line"/>
      <point x="232" y="-104"/>
      <point x="247" y="-101"/>
      <point x="262" y="-101" type="curve" smooth="yes"/>
      <point x="289" y="-101"/>
      <point x="307" y="-109"/>
      <point x="307" y="-131" type="curve" smooth="yes"/>
      <point x="307" y="-142"/>
      <point x="306" y="-148"/>
      <point x="303" y="-157" type="curve"/>
      <point x="288" y="-160"/>
      <point x="274" y="-161"/>
      <point x="256" y="-161" type="curve" smooth="yes"/>
      <point x="238" y="-161"/>
      <point x="209" y="-157"/>
      <point x="191" y="-150" type="curve"/>
      <point x="174" y="-199" type="line"/>
      <point x="204" y="-213"/>
      <point x="235" y="-216"/>
      <point x="263" y="-216" type="curve" smooth="yes"/>
    </contour>
  </outline>
</glyph>
<glyph name="tbar" format="1">
  <advance width="381"/>
  <unicode hex="0167"/>
  <note>
	tbar
  </note>
  <outline>
    <contour>
      <point x="285" y="-9"/>
      <point x="329" y="7"/>
      <point x="351" y="18" type="curve"/>
      <point x="329" y="85" type="line"/>
      <point x="301" y="74"/>
      <point x="262" y="64"/>
      <point x="240" y="64" type="curve" smooth="yes"/>
      <point x="220" y="64"/>
      <point x="207" y="67"/>
      <point x="191" y="73" type="curve"/>
      <point x="185" y="87"/>
      <point x="182" y="99"/>
      <point x="182" y="115" type="curve" smooth="yes"/>
      <point x="182" y="241" type="line"/>
      <point x="295" y="241" type="line"/>
      <point x="295" y="307" type="line"/>
      <point x="182" y="307" type="line"/>
      <point x="182" y="404" type="line"/>
      <point x="330" y="404" type="line"/>
      <point x="340" y="470" type="line"/>
      <point x="182" y="470" type="line"/>
      <point x="182" y="596" type="line"/>
      <point x="104" y="596" type="line"/>
      <point x="104" y="470" type="line"/>
      <point x="30" y="470" type="line"/>
      <point x="20" y="404" type="line"/>
      <point x="104" y="404" type="line"/>
      <point x="104" y="307" type="line"/>
      <point x="28" y="307" type="line"/>
      <point x="28" y="241" type="line"/>
      <point x="104" y="241" type="line"/>
      <point x="104" y="100" type="line" smooth="yes"/>
      <point x="104" y="51"/>
      <point x="149" y="18"/>
      <point x="183" y="0" type="curve"/>
      <point x="205" y="-6"/>
      <point x="229" y="-9"/>
      <point x="253" y="-9" type="curve" smooth="yes"/>
    </contour>
  </outline>
</glyph>
<glyph name="utilde" format="1">
  <advance width="520"/>
  <unicode hex="0169"/>
  <note>
	utilde
  </note>
  <outline>
    <contour>
      <point x="272" y="-8"/>
      <point x="320" y="25"/>
      <point x="361" y="72" type="curve"/>
      <point x="369" y="72" type="line"/>
      <point x="375" y="0" type="line"/>
      <point x="446" y="0" type="line"/>
      <point x="446" y="470" type="line"/>
      <point x="364" y="470" type="line"/>
      <point x="364" y="128" type="line"/>
      <point x="329" y="87"/>
      <point x="282" y="64"/>
      <point x="216" y="64" type="curve" smooth="yes"/>
      <point x="198" y="64"/>
      <point x="174" y="66"/>
      <point x="150" y="73" type="curve"/>
      <point x="150" y="470" type="line"/>
      <point x="68" y="470" type="line"/>
      <point x="68" y="126" type="line" smooth="yes"/>
      <point x="68" y="26"/>
      <point x="111" y="-8"/>
      <point x="202" y="-8" type="curve" smooth="yes"/>
    </contour>
    <contour>
      <point x="174" y="569"/>
      <point x="184" y="588"/>
      <point x="211" y="588" type="curve" smooth="yes"/>
      <point x="246" y="588"/>
      <point x="273" y="547"/>
      <point x="320" y="547" type="curve" smooth="yes"/>
      <point x="375" y="547"/>
      <point x="400" y="578"/>
      <point x="404" y="643" type="curve"/>
      <point x="349" y="661" type="line"/>
      <point x="346" y="635"/>
      <point x="336" y="616"/>
      <point x="309" y="616" type="curve" smooth="yes"/>
      <point x="280" y="616"/>
      <point x="242" y="657"/>
      <point x="200" y="657" type="curve" smooth="yes"/>
      <point x="145" y="657"/>
      <point x="120" y="626"/>
      <point x="116" y="561" type="curve"/>
      <point x="171" y="543" type="line"/>
    </contour>
  </outline>
</glyph>
<glyph name="uring" format="1">
  <advance width="520"/>
  <unicode hex="016F"/>
  <note>
	uring
  </note>
  <outline>
    <contour>
      <point x="272" y="-8"/>
      <point x="320" y="25"/>
      <point x="361" y="72" type="curve"/>
      <point x="369" y="72" type="line"/>
      <point x="375" y="0" type="line"/>
      <point x="446" y="0" type="line"/>
      <point x="446" y="470" type="line"/>
      <point x="364" y="470" type="line"/>
      <point x="364" y="128" type="line"/>
      <point x="329" y="87"/>
      <point x="282" y="64"/>
      <point x="216" y="64" type="curve" smooth="yes"/>
      <point x="198" y="64"/>
      <point x="174" y="66"/>
      <point x="150" y="73" type="curve"/>
      <point x="150" y="470" type="line"/>
      <point x="68" y="470" type="line"/>
      <point x="68" y="126" type="line" smooth="yes"/>
      <point x="68" y="26"/>
      <point x="111" y="-8"/>
      <point x="202" y="-8" type="curve" smooth="yes"/>
    </contour>
    <contour>
      <point x="329" y="542"/>
      <point x="375" y="582"/>
      <point x="375" y="633" type="curve" smooth="yes"/>
      <point x="375" y="693"/>
      <point x="333" y="730"/>
      <point x="266" y="730" type="curve" smooth="yes"/>
      <point x="186" y="730"/>
      <point x="145" y="685"/>
      <point x="145" y="634" type="curve" smooth="yes"/>
      <point x="145" y="574"/>
      <point x="187" y="542"/>
      <point x="254" y="542" type="curve" smooth="yes"/>
    </contour>
    <contour>
      <point x="222" y="591"/>
      <point x="202" y="609"/>
      <point x="202" y="635" type="curve" smooth="yes"/>
      <point x="202" y="648"/>
      <point x="203" y="662"/>
      <point x="207" y="676" type="curve"/>
      <point x="222" y="680"/>
      <point x="241" y="681"/>
      <point x="265" y="681" type="curve" smooth="yes"/>
      <point x="298" y="681"/>
      <point x="318" y="658"/>
      <point x="318" y="632" type="curve" smooth="yes"/>
      <point x="318" y="619"/>
      <point x="316" y="607"/>
      <point x="313" y="596" type="curve"/>
      <point x="300" y="592"/>
      <point x="278" y="591"/>
      <point x="255" y="591" type="curve" smooth="yes"/>
    </contour>
  </outline>
</glyph>
<glyph name="Uogonek" format="1">
  <advance width="609"/>
  <unicode hex="0172"/>
  <note>
	Uogonek
  </note>
  <outline>
    <contour>
      <point x="363" y="-167"/>
      <point x="383" y="-163"/>
      <point x="400" y="-156" type="curve"/>
      <point x="386" y="-102" type="line"/>
      <point x="372" y="-106"/>
      <point x="359" y="-107"/>
      <point x="345" y="-107" type="curve" smooth="yes"/>
      <point x="331" y="-107"/>
      <point x="317" y="-106"/>
      <point x="307" y="-103" type="curve"/>
      <point x="305" y="-97"/>
      <point x="304" y="-89"/>
      <point x="304" y="-81" type="curve" smooth="yes"/>
      <point x="304" y="-51"/>
      <point x="317" y="-31"/>
      <point x="358" y="-5" type="curve"/>
      <point x="464" y="4"/>
      <point x="536" y="40"/>
      <point x="536" y="128" type="curve" smooth="yes"/>
      <point x="536" y="616" type="line"/>
      <point x="451" y="616" type="line"/>
      <point x="451" y="92" type="line"/>
      <point x="422" y="79"/>
      <point x="368" y="70"/>
      <point x="302" y="70" type="curve" smooth="yes"/>
      <point x="202" y="70"/>
      <point x="158" y="96"/>
      <point x="158" y="189" type="curve" smooth="yes"/>
      <point x="158" y="616" type="line"/>
      <point x="73" y="616" type="line"/>
      <point x="73" y="174" type="line" smooth="yes"/>
      <point x="73" y="55"/>
      <point x="146" y="-4"/>
      <point x="280" y="-8" type="curve"/>
      <point x="251" y="-26"/>
      <point x="231" y="-49"/>
      <point x="231" y="-87" type="curve" smooth="yes"/>
      <point x="231" y="-140"/>
      <point x="273" y="-167"/>
      <point x="335" y="-167" type="curve" smooth="yes"/>
    </contour>
  </outline>
</glyph>
<glyph name="uogonek" format="1">
  <advance width="520"/>
  <unicode hex="0173"/>
  <note>
	uogonek
  </note>
  <outline>
    <contour>
      <point x="272" y="-8"/>
      <point x="320" y="25"/>
      <point x="361" y="72" type="curve"/>
      <point x="369" y="72" type="line"/>
      <point x="375" y="0" type="line"/>
      <point x="446" y="0" type="line"/>
      <point x="446" y="470" type="line"/>
      <point x="364" y="470" type="line"/>
      <point x="364" y="128" type="line"/>
      <point x="329" y="87"/>
      <point x="282" y="64"/>
      <point x="216" y="64" type="curve" smooth="yes"/>
      <point x="198" y="64"/>
      <point x="174" y="66"/>
      <point x="150" y="73" type="curve"/>
      <point x="150" y="470" type="line"/>
      <point x="68" y="470" type="line"/>
      <point x="68" y="126" type="line" smooth="yes"/>
      <point x="68" y="26"/>
      <point x="111" y="-8"/>
      <point x="202" y="-8" type="curve" smooth="yes"/>
    </contour>
    <contour>
      <point x="415" y="-167"/>
      <point x="435" y="-163"/>
      <point x="452" y="-156" type="curve"/>
      <point x="438" y="-102" type="line"/>
      <point x="424" y="-106"/>
      <point x="411" y="-107"/>
      <point x="397" y="-107" type="curve" smooth="yes"/>
      <point x="383" y="-107"/>
      <point x="369" y="-106"/>
      <point x="359" y="-103" type="curve"/>
      <point x="357" y="-97"/>
      <point x="356" y="-89"/>
      <point x="356" y="-81" type="curve" smooth="yes"/>
      <point x="356" y="-45"/>
      <point x="374" y="-24"/>
      <point x="437" y="9" type="curve"/>
      <point x="387" y="18" type="line"/>
      <point x="331" y="-4"/>
      <point x="283" y="-29"/>
      <point x="283" y="-87" type="curve" smooth="yes"/>
      <point x="283" y="-140"/>
      <point x="325" y="-167"/>
      <point x="387" y="-167" type="curve" smooth="yes"/>
    </contour>
  </outline>
</glyph>
<glyph name="Zdotaccent" format="1">
  <advance width="561"/>
  <unicode hex="017B"/>
  <note>
	Zdotaccent
  </note>
  <outline>
    <contour>
      <point x="513" y="0" type="line"/>
      <point x="513" y="49" type="line" smooth="yes"/>
      <point x="513" y="79"/>
      <point x="505" y="115"/>
      <point x="496" y="140" type="curve"/>
      <point x="422" y="140" type="line"/>
      <point x="422" y="75" type="line"/>
      <point x="152" y="75" type="line"/>
      <point x="152" y="91" type="line"/>
      <point x="499" y="534" type="line"/>
      <point x="499" y="616" type="line"/>
      <point x="58" y="616" type="line"/>
      <point x="58" y="567" type="line" smooth="yes"/>
      <point x="58" y="536"/>
      <point x="66" y="501"/>
      <point x="75" y="476" type="curve"/>
      <point x="149" y="476" type="line"/>
      <point x="149" y="540" type="line"/>
      <point x="394" y="540" type="line"/>
      <point x="394" y="527" type="line"/>
      <point x="48" y="82" type="line"/>
      <point x="48" y="0" type="line"/>
    </contour>
    <contour>
      <point x="324" y="691"/>
      <point x="346" y="712"/>
      <point x="346" y="747" type="curve" smooth="yes"/>
      <point x="346" y="784"/>
      <point x="324" y="805"/>
      <point x="286" y="805" type="curve" smooth="yes"/>
      <point x="248" y="805"/>
      <point x="226" y="784"/>
      <point x="226" y="747" type="curve" smooth="yes"/>
      <point x="226" y="712"/>
      <point x="248" y="691"/>
      <point x="286" y="691" type="curve" smooth="yes"/>
    </contour>
  </outline>
</glyph>
<glyph name="zdotaccent" format="1">
  <advance width="449"/>
  <unicode hex="017C"/>
  <note>
	zdotaccent
  </note>
  <outline>
    <contour>
      <point x="405" y="0" type="line"/>
      <point x="405" y="56" type="line" smooth="yes"/>
      <point x="405" y="79"/>
      <point x="399" y="106"/>
      <point x="392" y="125" type="curve"/>
      <point x="333" y="125" type="line"/>
      <point x="325" y="64" type="line"/>
      <point x="137" y="64" type="line"/>
      <point x="137" y="76" type="line"/>
      <point x="393" y="398" type="line"/>
      <point x="393" y="470" type="line"/>
      <point x="55" y="470" type="line"/>
      <point x="55" y="414" type="line" smooth="yes"/>
      <point x="55" y="391"/>
      <point x="61" y="364"/>
      <point x="68" y="345" type="curve"/>
      <point x="127" y="345" type="line"/>
      <point x="135" y="406" type="line"/>
      <point x="301" y="406" type="line"/>
      <point x="301" y="396" type="line"/>
      <point x="46" y="72" type="line"/>
      <point x="46" y="0" type="line"/>
    </contour>
    <contour>
      <point x="263" y="547"/>
      <point x="285" y="568"/>
      <point x="285" y="603" type="curve" smooth="yes"/>
      <point x="285" y="640"/>
      <point x="263" y="661"/>
      <point x="225" y="661" type="curve" smooth="yes"/>
      <point x="187" y="661"/>
      <point x="165" y="640"/>
      <point x="165" y="603" type="curve" smooth="yes"/>
      <point x="165" y="568"/>
      <point x="187" y="547"/>
      <point x="225" y="547" type="curve" smooth="yes"/>
    </contour>
  </outline>
</glyph>
<glyph name="uni018F" format="1">
  <advance width="627"/>
  <unicode hex="018F"/>
  <note>
	uni018F
  </note>
  <outline>
    <contour>
      <point x="471" y="-10"/>
      <point x="562" y="107"/>
      <point x="562" y="314" type="curve" smooth="yes"/>
      <point x="562" y="502"/>
      <point x="476" y="626"/>
      <point x="286" y="626" type="curve" smooth="yes"/>
      <point x="175" y="626"/>
      <point x="111" y="592"/>
      <point x="55" y="557" type="curve"/>
      <point x="88" y="491" type="line"/>
      <point x="141" y="526"/>
      <point x="182" y="548"/>
      <point x="279" y="548" type="curve" smooth="yes"/>
      <point x="406" y="548"/>
      <point x="476" y="490"/>
      <point x="476" y="344" type="curve"/>
      <point x="130" y="349" type="line"/>
      <point x="52" y="277" type="line"/>
      <point x="51" y="264"/>
      <point x="51" y="252"/>
      <point x="51" y="239" type="curve" smooth="yes"/>
      <point x="51" y="91"/>
      <point x="124" y="-10"/>
      <point x="289" y="-10" type="curve" smooth="yes"/>
    </contour>
    <contour>
      <point x="185" y="68"/>
      <point x="135" y="127"/>
      <point x="135" y="213" type="curve" smooth="yes"/>
      <point x="135" y="237"/>
      <point x="136" y="247"/>
      <point x="139" y="268" type="curve"/>
      <point x="477" y="273" type="line"/>
      <point x="477" y="140"/>
      <point x="420" y="68"/>
      <point x="290" y="68" type="curve" smooth="yes"/>
    </contour>
  </outline>
</glyph>
<glyph name="Ucaron" format="1">
  <advance width="609"/>
  <unicode hex="01D3"/>
  <note>
	Ucaron
  </note>
  <outline>
    <contour>
      <point x="434" y="-8"/>
      <point x="536" y="24"/>
      <point x="536" y="128" type="curve" smooth="yes"/>
      <point x="536" y="616" type="line"/>
      <point x="451" y="616" type="line"/>
      <point x="451" y="92" type="line"/>
      <point x="422" y="79"/>
      <point x="368" y="70"/>
      <point x="302" y="70" type="curve" smooth="yes"/>
      <point x="202" y="70"/>
      <point x="158" y="96"/>
      <point x="158" y="189" type="curve" smooth="yes"/>
      <point x="158" y="616" type="line"/>
      <point x="73" y="616" type="line"/>
      <point x="73" y="174" type="line" smooth="yes"/>
      <point x="73" y="51"/>
      <point x="152" y="-8"/>
      <point x="295" y="-8" type="curve" smooth="yes"/>
    </contour>
    <contour>
      <point x="342" y="696" type="line"/>
      <point x="441" y="829" type="line"/>
      <point x="388" y="840" type="line"/>
      <point x="307" y="765" type="line"/>
      <point x="302" y="765" type="line"/>
      <point x="218" y="840" type="line"/>
      <point x="167" y="829" type="line"/>
      <point x="267" y="696" type="line"/>
    </contour>
  </outline>
</glyph>
<glyph name="udieresiscaron" format="1">
  <advance width="520"/>
  <unicode hex="01DA"/>
  <note>
	udieresiscaron
  </note>
  <outline>
    <contour>
      <point x="272" y="-8"/>
      <point x="320" y="25"/>
      <point x="361" y="72" type="curve"/>
      <point x="369" y="72" type="line"/>
      <point x="375" y="0" type="line"/>
      <point x="446" y="0" type="line"/>
      <point x="446" y="470" type="line"/>
      <point x="364" y="470" type="line"/>
      <point x="364" y="128" type="line"/>
      <point x="329" y="87"/>
      <point x="282" y="64"/>
      <point x="216" y="64" type="curve" smooth="yes"/>
      <point x="198" y="64"/>
      <point x="174" y="66"/>
      <point x="150" y="73" type="curve"/>
      <point x="150" y="470" type="line"/>
      <point x="68" y="470" type="line"/>
      <point x="68" y="126" type="line" smooth="yes"/>
      <point x="68" y="26"/>
      <point x="111" y="-8"/>
      <point x="202" y="-8" type="curve" smooth="yes"/>
    </contour>
    <contour>
      <point x="210" y="547"/>
      <point x="227" y="563"/>
      <point x="227" y="590" type="curve" smooth="yes"/>
      <point x="227" y="618"/>
      <point x="210" y="634"/>
      <point x="181" y="634" type="curve" smooth="yes"/>
      <point x="153" y="634"/>
      <point x="135" y="618"/>
      <point x="135" y="590" type="curve" smooth="yes"/>
      <point x="135" y="563"/>
      <point x="153" y="547"/>
      <point x="181" y="547" type="curve" smooth="yes"/>
    </contour>
    <contour>
      <point x="368" y="547"/>
      <point x="385" y="563"/>
      <point x="385" y="590" type="curve" smooth="yes"/>
      <point x="385" y="618"/>
      <point x="368" y="634"/>
      <point x="339" y="634" type="curve" smooth="yes"/>
      <point x="310" y="634"/>
      <point x="292" y="618"/>
      <point x="292" y="590" type="curve" smooth="yes"/>
      <point x="292" y="563"/>
      <point x="310" y="547"/>
      <point x="339" y="547" type="curve" smooth="yes"/>
    </contour>
    <contour>
      <point x="298" y="696" type="line"/>
      <point x="397" y="829" type="line"/>
      <point x="344" y="840" type="line"/>
      <point x="263" y="765" type="line"/>
      <point x="258" y="765" type="line"/>
      <point x="174" y="840" type="line"/>
      <point x="123" y="829" type="line"/>
      <point x="223" y="696" type="line"/>
    </contour>
  </outline>
</glyph>
<glyph name="udieresisgrave" format="1">
  <advance width="520"/>
  <unicode hex="01DC"/>
  <note>
	udieresisgrave
  </note>
  <outline>
    <contour>
      <point x="272" y="-8"/>
      <point x="320" y="25"/>
      <point x="361" y="72" type="curve"/>
      <point x="369" y="72" type="line"/>
      <point x="375" y="0" type="line"/>
      <point x="446" y="0" type="line"/>
      <point x="446" y="470" type="line"/>
      <point x="364" y="470" type="line"/>
      <point x="364" y="128" type="line"/>
      <point x="329" y="87"/>
      <point x="282" y="64"/>
      <point x="216" y="64" type="curve" smooth="yes"/>
      <point x="198" y="64"/>
      <point x="174" y="66"/>
      <point x="150" y="73" type="curve"/>
      <point x="150" y="470" type="line"/>
      <point x="68" y="470" type="line"/>
      <point x="68" y="126" type="line" smooth="yes"/>
      <point x="68" y="26"/>
      <point x="111" y="-8"/>
      <point x="202" y="-8" type="curve" smooth="yes"/>
    </contour>
    <contour>
      <point x="209" y="547"/>
      <point x="226" y="563"/>
      <point x="226" y="590" type="curve" smooth="yes"/>
      <point x="226" y="618"/>
      <point x="209" y="634"/>
      <point x="180" y="634" type="curve" smooth="yes"/>
      <point x="152" y="634"/>
      <point x="134" y="618"/>
      <point x="134" y="590" type="curve" smooth="yes"/>
      <point x="134" y="563"/>
      <point x="152" y="547"/>
      <point x="180" y="547" type="curve" smooth="yes"/>
    </contour>
    <contour>
      <point x="367" y="547"/>
      <point x="384" y="563"/>
      <point x="384" y="590" type="curve" smooth="yes"/>
      <point x="384" y="618"/>
      <point x="367" y="634"/>
      <point x="338" y="634" type="curve" smooth="yes"/>
      <point x="309" y="634"/>
      <point x="291" y="618"/>
      <point x="291" y="590" type="curve" smooth="yes"/>
      <point x="291" y="563"/>
      <point x="309" y="547"/>
      <point x="338" y="547" type="curve" smooth="yes"/>
    </contour>
    <contour>
      <point x="298" y="719" type="line"/>
      <point x="215" y="864" type="line"/>
      <point x="109" y="853" type="line"/>
      <point x="234" y="709" type="line"/>
    </contour>
  </outline>
</glyph>
<glyph name="Gcaron" format="1">
  <advance width="598"/>
  <unicode hex="01E6"/>
  <note>
	Gcaron
  </note>
  <outline>
    <contour>
      <point x="448" y="-8"/>
      <point x="540" y="50"/>
      <point x="540" y="134" type="curve" smooth="yes"/>
      <point x="540" y="298" type="line"/>
      <point x="499" y="332" type="line"/>
      <point x="312" y="332" type="line"/>
      <point x="312" y="257" type="line"/>
      <point x="456" y="257" type="line"/>
      <point x="456" y="82" type="line"/>
      <point x="424" y="74"/>
      <point x="387" y="70"/>
      <point x="337" y="70" type="curve" smooth="yes"/>
      <point x="204" y="70"/>
      <point x="139" y="137"/>
      <point x="139" y="295" type="curve" smooth="yes"/>
      <point x="139" y="385"/>
      <point x="164" y="474"/>
      <point x="199" y="536" type="curve"/>
      <point x="241" y="545"/>
      <point x="292" y="548"/>
      <point x="330" y="548" type="curve" smooth="yes"/>
      <point x="375" y="548"/>
      <point x="425" y="544"/>
      <point x="447" y="539" type="curve"/>
      <point x="457" y="460" type="line"/>
      <point x="516" y="460" type="line"/>
      <point x="524" y="479"/>
      <point x="529" y="503"/>
      <point x="529" y="529" type="curve" smooth="yes"/>
      <point x="529" y="585" type="line"/>
      <point x="496" y="607"/>
      <point x="414" y="626"/>
      <point x="331" y="626" type="curve" smooth="yes"/>
      <point x="140" y="626"/>
      <point x="54" y="495"/>
      <point x="54" y="289" type="curve" smooth="yes"/>
      <point x="54" y="95"/>
      <point x="151" y="-8"/>
      <point x="324" y="-8" type="curve" smooth="yes"/>
    </contour>
    <contour>
      <point x="340" y="696" type="line"/>
      <point x="439" y="829" type="line"/>
      <point x="386" y="840" type="line"/>
      <point x="305" y="765" type="line"/>
      <point x="300" y="765" type="line"/>
      <point x="216" y="840" type="line"/>
      <point x="165" y="829" type="line"/>
      <point x="265" y="696" type="line"/>
    </contour>
  </outline>
</glyph>
<glyph name="Aringacute" format="1">
  <advance width="607"/>
  <unicode hex="01FA"/>
  <note>
	Aringacute
  </note>
  <outline>
    <contour>
      <point x="369" y="677"/>
      <point x="415" y="717"/>
      <point x="415" y="768" type="curve" smooth="yes"/>
      <point x="415" y="828"/>
      <point x="373" y="865"/>
      <point x="306" y="865" type="curve" smooth="yes"/>
      <point x="226" y="865"/>
      <point x="185" y="820"/>
      <point x="185" y="769" type="curve" smooth="yes"/>
      <point x="185" y="709"/>
      <point x="227" y="677"/>
      <point x="294" y="677" type="curve" smooth="yes"/>
    </contour>
    <contour>
      <point x="262" y="726"/>
      <point x="242" y="744"/>
      <point x="242" y="770" type="curve" smooth="yes"/>
      <point x="242" y="783"/>
      <point x="243" y="797"/>
      <point x="247" y="811" type="curve"/>
      <point x="262" y="815"/>
      <point x="281" y="816"/>
      <point x="305" y="816" type="curve" smooth="yes"/>
      <point x="338" y="816"/>
      <point x="358" y="793"/>
      <point x="358" y="767" type="curve" smooth="yes"/>
      <point x="358" y="754"/>
      <point x="356" y="742"/>
      <point x="353" y="731" type="curve"/>
      <point x="340" y="727"/>
      <point x="318" y="726"/>
      <point x="295" y="726" type="curve" smooth="yes"/>
    </contour>
    <contour>
      <point x="433" y="1064" type="line"/>
      <point x="327" y="1075" type="line"/>
      <point x="244" y="930" type="line"/>
      <point x="308" y="920" type="line"/>
    </contour>
    <component base="A"/>
  </outline>
</glyph>
<glyph name="aeacute" format="1">
  <advance width="768"/>
  <unicode hex="01FD"/>
  <note>
	aeacute
  </note>
  <outline>
    <contour>
      <point x="285" y="-8"/>
      <point x="330" y="26"/>
      <point x="375" y="72" type="curve"/>
      <point x="404" y="22"/>
      <point x="455" y="-6"/>
      <point x="540" y="-6" type="curve" smooth="yes"/>
      <point x="624" y="-6"/>
      <point x="673" y="20"/>
      <point x="715" y="46" type="curve"/>
      <point x="689" y="109" type="line"/>
      <point x="649" y="82"/>
      <point x="610" y="63"/>
      <point x="545" y="63" type="curve" smooth="yes"/>
      <point x="456" y="63"/>
      <point x="419" y="111"/>
      <point x="417" y="204" type="curve"/>
      <point x="658" y="200" type="line"/>
      <point x="718" y="259" type="line"/>
      <point x="728" y="388"/>
      <point x="676" y="478"/>
      <point x="544" y="478" type="curve" smooth="yes"/>
      <point x="475" y="478"/>
      <point x="425" y="455"/>
      <point x="392" y="412" type="curve"/>
      <point x="366" y="455"/>
      <point x="315" y="478"/>
      <point x="250" y="478" type="curve" smooth="yes"/>
      <point x="188" y="478"/>
      <point x="110" y="450"/>
      <point x="74" y="428" type="curve"/>
      <point x="74" y="403" type="line" smooth="yes"/>
      <point x="74" y="380"/>
      <point x="80" y="355"/>
      <point x="87" y="336" type="curve"/>
      <point x="148" y="336" type="line"/>
      <point x="158" y="411" type="line"/>
      <point x="174" y="413"/>
      <point x="199" y="415"/>
      <point x="224" y="415" type="curve" smooth="yes"/>
      <point x="296" y="415"/>
      <point x="337" y="396"/>
      <point x="337" y="322" type="curve" smooth="yes"/>
      <point x="337" y="260" type="line"/>
      <point x="315" y="262"/>
      <point x="279" y="263"/>
      <point x="258" y="263" type="curve" smooth="yes"/>
      <point x="129" y="263"/>
      <point x="40" y="219"/>
      <point x="40" y="113" type="curve" smooth="yes"/>
      <point x="40" y="40"/>
      <point x="95" y="-8"/>
      <point x="187" y="-8" type="curve" smooth="yes"/>
    </contour>
    <contour>
      <point x="152" y="56"/>
      <point x="126" y="71"/>
      <point x="126" y="122" type="curve" smooth="yes"/>
      <point x="126" y="152"/>
      <point x="129" y="172"/>
      <point x="142" y="203" type="curve"/>
      <point x="164" y="209"/>
      <point x="199" y="211"/>
      <point x="234" y="211" type="curve" smooth="yes"/>
      <point x="269" y="211"/>
      <point x="317" y="208"/>
      <point x="339" y="203" type="curve"/>
      <point x="339" y="112" type="line"/>
      <point x="303" y="77"/>
      <point x="257" y="56"/>
      <point x="198" y="56" type="curve" smooth="yes"/>
    </contour>
    <contour>
      <point x="419" y="361"/>
      <point x="440" y="409"/>
      <point x="539" y="409" type="curve" smooth="yes"/>
      <point x="611" y="409"/>
      <point x="644" y="372"/>
      <point x="644" y="315" type="curve" smooth="yes"/>
      <point x="644" y="304"/>
      <point x="642" y="284"/>
      <point x="638" y="266" type="curve"/>
      <point x="416" y="262" type="line"/>
    </contour>
    <contour>
      <point x="532" y="685" type="line"/>
      <point x="426" y="696" type="line"/>
      <point x="343" y="551" type="line"/>
      <point x="407" y="541" type="line"/>
    </contour>
  </outline>
</glyph>
<glyph name="Scommaaccent" format="1">
  <advance width="518"/>
  <unicode hex="0218"/>
  <note>
	Scommaaccent
  </note>
  <outline>
    <contour>
      <point x="417" y="-8"/>
      <point x="466" y="82"/>
      <point x="466" y="177" type="curve" smooth="yes"/>
      <point x="466" y="279"/>
      <point x="403" y="320"/>
      <point x="279" y="348" type="curve" smooth="yes"/>
      <point x="177" y="371"/>
      <point x="148" y="394"/>
      <point x="148" y="451" type="curve" smooth="yes"/>
      <point x="148" y="518"/>
      <point x="177" y="550"/>
      <point x="265" y="550" type="curve" smooth="yes"/>
      <point x="299" y="550"/>
      <point x="326" y="547"/>
      <point x="354" y="543" type="curve"/>
      <point x="367" y="458" type="line"/>
      <point x="428" y="458" type="line"/>
      <point x="437" y="483"/>
      <point x="445" y="518"/>
      <point x="445" y="548" type="curve" smooth="yes"/>
      <point x="445" y="584" type="line"/>
      <point x="404" y="608"/>
      <point x="359" y="626"/>
      <point x="270" y="626" type="curve" smooth="yes"/>
      <point x="111" y="626"/>
      <point x="63" y="535"/>
      <point x="63" y="444" type="curve" smooth="yes"/>
      <point x="63" y="330"/>
      <point x="153" y="293"/>
      <point x="257" y="268" type="curve" smooth="yes"/>
      <point x="349" y="246"/>
      <point x="381" y="220"/>
      <point x="381" y="159" type="curve" smooth="yes"/>
      <point x="381" y="133"/>
      <point x="377" y="105"/>
      <point x="369" y="84" type="curve"/>
      <point x="339" y="77"/>
      <point x="304" y="73"/>
      <point x="261" y="73" type="curve" smooth="yes"/>
      <point x="195" y="73"/>
      <point x="137" y="85"/>
      <point x="79" y="115" type="curve"/>
      <point x="50" y="41" type="line"/>
      <point x="113" y="7"/>
      <point x="181" y="-8"/>
      <point x="253" y="-8" type="curve" smooth="yes"/>
    </contour>
    <contour>
      <point x="313" y="-229"/>
      <point x="332" y="-183"/>
      <point x="332" y="-142" type="curve" smooth="yes"/>
      <point x="332" y="-94"/>
      <point x="312" y="-70"/>
      <point x="266" y="-70" type="curve" smooth="yes"/>
      <point x="250" y="-70"/>
      <point x="232" y="-73"/>
      <point x="216" y="-79" type="curve"/>
      <point x="216" y="-135" type="line"/>
      <point x="269" y="-135" type="line"/>
      <point x="269" y="-175"/>
      <point x="256" y="-213"/>
      <point x="235" y="-252" type="curve"/>
      <point x="284" y="-263" type="line"/>
    </contour>
  </outline>
</glyph>
<glyph name="gscript" format="1">
  <advance width="514"/>
  <unicode hex="0261"/>
  <note>
	gscript
  </note>
  <outline>
    <contour>
      <point x="105" y="464"/>
      <point x="70" y="355"/>
      <point x="70" y="208" type="curve" smooth="yes"/>
      <point x="70" y="102"/>
      <point x="106" y="-10"/>
      <point x="237" y="-10" type="curve" smooth="yes"/>
      <point x="295" y="-10"/>
      <point x="345" y="25"/>
      <point x="380" y="64" type="curve"/>
      <point x="388" y="64" type="line"/>
      <point x="385" y="-2" type="line"/>
      <point x="385" y="-117" type="line"/>
      <point x="352" y="-132"/>
      <point x="318" y="-140"/>
      <point x="262" y="-140" type="curve" smooth="yes"/>
      <point x="214" y="-140"/>
      <point x="160" y="-126"/>
      <point x="123" y="-107" type="curve"/>
      <point x="100" y="-170" type="line"/>
      <point x="136" y="-192"/>
      <point x="201" y="-211"/>
      <point x="270" y="-211" type="curve" smooth="yes"/>
      <point x="384" y="-211"/>
      <point x="464" y="-163"/>
      <point x="464" y="-62" type="curve" smooth="yes"/>
      <point x="464" y="460" type="line"/>
      <point x="394" y="460" type="line"/>
      <point x="388" y="383" type="line"/>
      <point x="381" y="383" type="line"/>
      <point x="357" y="431"/>
      <point x="315" y="464"/>
      <point x="249" y="464" type="curve" smooth="yes"/>
    </contour>
    <contour>
      <point x="313" y="396"/>
      <point x="352" y="367"/>
      <point x="382" y="328" type="curve"/>
      <point x="382" y="127" type="line"/>
      <point x="348" y="83"/>
      <point x="304" y="59"/>
      <point x="258" y="59" type="curve" smooth="yes"/>
      <point x="186" y="59"/>
      <point x="154" y="108"/>
      <point x="154" y="218" type="curve" smooth="yes"/>
      <point x="154" y="331"/>
      <point x="172" y="396"/>
      <point x="259" y="396" type="curve" smooth="yes"/>
    </contour>
  </outline>
</glyph>
<glyph name="uni02BC" format="1">
  <advance width="264"/>
  <unicode hex="02BC"/>
  <note>
	uni02BC
  </note>
  <outline>
    <contour>
      <point x="170" y="463"/>
      <point x="189" y="509"/>
      <point x="189" y="550" type="curve" smooth="yes"/>
      <point x="189" y="598"/>
      <point x="169" y="622"/>
      <point x="123" y="622" type="curve" smooth="yes"/>
      <point x="107" y="622"/>
      <point x="91" y="619"/>
      <point x="75" y="613" type="curve"/>
      <point x="75" y="557" type="line"/>
      <point x="128" y="557" type="line"/>
      <point x="128" y="517"/>
      <point x="115" y="479"/>
      <point x="94" y="440" type="curve"/>
      <point x="141" y="429" type="line"/>
    </contour>
  </outline>
</glyph>
<glyph name="uni02BE" format="1">
  <advance width="176"/>
  <unicode hex="02BE"/>
  <note>
	uni02BE
  </note>
  <outline>
    <contour>
      <point x="104" y="460"/>
      <point x="136" y="494"/>
      <point x="136" y="541" type="curve" smooth="yes"/>
      <point x="136" y="595"/>
      <point x="104" y="622"/>
      <point x="40" y="622" type="curve"/>
      <point x="40" y="571" type="line"/>
      <point x="65" y="571"/>
      <point x="77" y="557"/>
      <point x="77" y="536" type="curve" smooth="yes"/>
      <point x="77" y="526"/>
      <point x="76" y="519"/>
      <point x="74" y="513" type="curve"/>
      <point x="65" y="511"/>
      <point x="51" y="511"/>
      <point x="40" y="511" type="curve"/>
      <point x="40" y="460" type="line"/>
    </contour>
  </outline>
</glyph>
<glyph name="circumflex" format="1">
  <advance width="334"/>
  <unicode hex="02C6"/>
  <note>
	circumflex
  </note>
  <outline>
    <contour>
      <point x="165" y="547" type="line"/>
      <point x="170" y="547" type="line"/>
      <point x="251" y="472" type="line"/>
      <point x="304" y="483" type="line"/>
      <point x="205" y="616" type="line"/>
      <point x="130" y="616" type="line"/>
      <point x="30" y="483" type="line"/>
      <point x="81" y="472" type="line"/>
    </contour>
  </outline>
</glyph>
<glyph name="caron" format="1">
  <advance width="334"/>
  <unicode hex="02C7"/>
  <note>
	caron
  </note>
  <outline>
    <contour>
      <point x="205" y="472" type="line"/>
      <point x="304" y="605" type="line"/>
      <point x="251" y="616" type="line"/>
      <point x="170" y="541" type="line"/>
      <point x="165" y="541" type="line"/>
      <point x="81" y="616" type="line"/>
      <point x="30" y="605" type="line"/>
      <point x="130" y="472" type="line"/>
    </contour>
  </outline>
</glyph>
<glyph name="uni02C8" format="1">
  <advance width="175"/>
  <unicode hex="02C8"/>
  <note>
	uni02C8
  </note>
  <outline>
    <contour>
      <point x="125" y="472" type="line"/>
      <point x="125" y="679" type="line"/>
      <point x="50" y="679" type="line"/>
      <point x="50" y="472" type="line"/>
    </contour>
  </outline>
</glyph>
<glyph name="uni02CA" format="1">
  <advance width="263"/>
  <unicode hex="02CA"/>
  <note>
	uni02CA
  </note>
  <outline>
    <contour>
      <point x="224" y="595" type="line"/>
      <point x="118" y="606" type="line"/>
      <point x="56" y="481" type="line"/>
      <point x="120" y="471" type="line"/>
    </contour>
  </outline>
</glyph>
<glyph name="uni02CB" format="1">
  <advance width="263"/>
  <unicode hex="02CB"/>
  <note>
	uni02CB
  </note>
  <outline>
    <contour>
      <point x="214" y="481" type="line"/>
      <point x="152" y="606" type="line"/>
      <point x="46" y="595" type="line"/>
      <point x="150" y="471" type="line"/>
    </contour>
  </outline>
</glyph>
<glyph name="dotaccent" format="1">
  <advance width="318"/>
  <unicode hex="02D9"/>
  <note>
	dotaccent
  </note>
  <outline>
    <contour>
      <point x="197" y="492"/>
      <point x="219" y="513"/>
      <point x="219" y="548" type="curve" smooth="yes"/>
      <point x="219" y="585"/>
      <point x="197" y="606"/>
      <point x="159" y="606" type="curve" smooth="yes"/>
      <point x="121" y="606"/>
      <point x="99" y="585"/>
      <point x="99" y="548" type="curve" smooth="yes"/>
      <point x="99" y="513"/>
      <point x="121" y="492"/>
      <point x="159" y="492" type="curve" smooth="yes"/>
    </contour>
  </outline>
</glyph>
<glyph name="ring" format="1">
  <advance width="330"/>
  <unicode hex="02DA"/>
  <note>
	ring
  </note>
  <outline>
    <contour>
      <point x="234" y="443"/>
      <point x="280" y="483"/>
      <point x="280" y="534" type="curve" smooth="yes"/>
      <point x="280" y="594"/>
      <point x="238" y="631"/>
      <point x="171" y="631" type="curve" smooth="yes"/>
      <point x="91" y="631"/>
      <point x="50" y="586"/>
      <point x="50" y="535" type="curve" smooth="yes"/>
      <point x="50" y="475"/>
      <point x="92" y="443"/>
      <point x="159" y="443" type="curve" smooth="yes"/>
    </contour>
    <contour>
      <point x="127" y="492"/>
      <point x="107" y="510"/>
      <point x="107" y="536" type="curve" smooth="yes"/>
      <point x="107" y="549"/>
      <point x="108" y="563"/>
      <point x="112" y="577" type="curve"/>
      <point x="127" y="581"/>
      <point x="146" y="582"/>
      <point x="170" y="582" type="curve" smooth="yes"/>
      <point x="203" y="582"/>
      <point x="223" y="559"/>
      <point x="223" y="533" type="curve" smooth="yes"/>
      <point x="223" y="520"/>
      <point x="221" y="508"/>
      <point x="218" y="497" type="curve"/>
      <point x="205" y="493"/>
      <point x="183" y="492"/>
      <point x="160" y="492" type="curve" smooth="yes"/>
    </contour>
  </outline>
</glyph>
<glyph name="hungarumlaut" format="1">
  <advance width="429"/>
  <unicode hex="02DD"/>
  <note>
	hungarumlaut
  </note>
  <outline>
    <contour>
      <point x="335" y="457"/>
      <point x="354" y="503"/>
      <point x="354" y="544" type="curve" smooth="yes"/>
      <point x="354" y="592"/>
      <point x="336" y="616"/>
      <point x="290" y="616" type="curve" smooth="yes"/>
      <point x="274" y="616"/>
      <point x="256" y="613"/>
      <point x="240" y="607" type="curve"/>
      <point x="240" y="551" type="line"/>
      <point x="293" y="551" type="line"/>
      <point x="293" y="511"/>
      <point x="280" y="473"/>
      <point x="259" y="434" type="curve"/>
      <point x="306" y="423" type="line"/>
    </contour>
    <contour>
      <point x="170" y="457"/>
      <point x="189" y="503"/>
      <point x="189" y="544" type="curve" smooth="yes"/>
      <point x="189" y="592"/>
      <point x="169" y="616"/>
      <point x="123" y="616" type="curve" smooth="yes"/>
      <point x="107" y="616"/>
      <point x="91" y="613"/>
      <point x="75" y="607" type="curve"/>
      <point x="75" y="551" type="line"/>
      <point x="128" y="551" type="line"/>
      <point x="128" y="511"/>
      <point x="115" y="473"/>
      <point x="94" y="434" type="curve"/>
      <point x="141" y="423" type="line"/>
    </contour>
  </outline>
</glyph>
<glyph name="tildecomb" format="1">
  <advance width="0"/>
  <unicode hex="0303"/>
  <note>
	tildecomb
  </note>
  <outline>
    <contour>
      <point x="-320" y="531"/>
      <point x="-310" y="550"/>
      <point x="-283" y="550" type="curve" smooth="yes"/>
      <point x="-248" y="550"/>
      <point x="-221" y="509"/>
      <point x="-174" y="509" type="curve" smooth="yes"/>
      <point x="-119" y="509"/>
      <point x="-94" y="540"/>
      <point x="-90" y="605" type="curve"/>
      <point x="-145" y="623" type="line"/>
      <point x="-148" y="597"/>
      <point x="-158" y="578"/>
      <point x="-185" y="578" type="curve" smooth="yes"/>
      <point x="-214" y="578"/>
      <point x="-252" y="619"/>
      <point x="-294" y="619" type="curve" smooth="yes"/>
      <point x="-349" y="619"/>
      <point x="-374" y="588"/>
      <point x="-378" y="523" type="curve"/>
      <point x="-323" y="505" type="line"/>
    </contour>
  </outline>
</glyph>
<glyph name="uni0307" format="1">
  <advance width="0"/>
  <unicode hex="0307"/>
  <note>
	uni0307
  </note>
  <outline>
    <contour>
      <point x="-125" y="492"/>
      <point x="-103" y="513"/>
      <point x="-103" y="548" type="curve" smooth="yes"/>
      <point x="-103" y="585"/>
      <point x="-125" y="606"/>
      <point x="-163" y="606" type="curve" smooth="yes"/>
      <point x="-201" y="606"/>
      <point x="-223" y="585"/>
      <point x="-223" y="548" type="curve" smooth="yes"/>
      <point x="-223" y="513"/>
      <point x="-201" y="492"/>
      <point x="-163" y="492" type="curve" smooth="yes"/>
    </contour>
  </outline>
</glyph>
<glyph name="hookabovecomb" format="1">
  <advance width="0"/>
  <unicode hex="0309"/>
  <note>
	hookabovecomb
  </note>
  <outline>
    <contour>
      <point x="-176" y="502" type="line"/>
      <point x="-176" y="543" type="line"/>
      <point x="-119" y="543"/>
      <point x="-82" y="564"/>
      <point x="-82" y="617" type="curve" smooth="yes"/>
      <point x="-82" y="663"/>
      <point x="-110" y="696"/>
      <point x="-176" y="696" type="curve" smooth="yes"/>
      <point x="-204" y="696"/>
      <point x="-234" y="691"/>
      <point x="-262" y="678" type="curve"/>
      <point x="-246" y="633" type="line"/>
      <point x="-228" y="640"/>
      <point x="-205" y="644"/>
      <point x="-187" y="644" type="curve" smooth="yes"/>
      <point x="-157" y="644"/>
      <point x="-144" y="638"/>
      <point x="-144" y="615" type="curve" smooth="yes"/>
      <point x="-144" y="586"/>
      <point x="-172" y="586"/>
      <point x="-234" y="586" type="curve"/>
      <point x="-234" y="551" type="line"/>
      <point x="-221" y="502" type="line"/>
    </contour>
  </outline>
</glyph>
<glyph name="dotbelowcomb" format="1">
  <advance width="0"/>
  <unicode hex="0323"/>
  <note>
	dotbelowcomb
  </note>
  <outline>
    <contour>
      <point x="197" y="-166"/>
      <point x="219" y="-145"/>
      <point x="219" y="-110" type="curve" smooth="yes"/>
      <point x="219" y="-73"/>
      <point x="197" y="-52"/>
      <point x="159" y="-52" type="curve" smooth="yes"/>
      <point x="121" y="-52"/>
      <point x="99" y="-73"/>
      <point x="99" y="-110" type="curve" smooth="yes"/>
      <point x="99" y="-145"/>
      <point x="121" y="-166"/>
      <point x="159" y="-166" type="curve" smooth="yes"/>
    </contour>
  </outline>
</glyph>
<glyph name="uni0326" format="1">
  <advance width="0"/>
  <unicode hex="0326"/>
  <note>
	uni0326
  </note>
  <outline>
    <contour>
      <point x="145" y="-137" type="line"/>
      <point x="234" y="-30" type="line"/>
      <point x="119" y="-30" type="line"/>
      <point x="65" y="-137" type="line"/>
    </contour>
  </outline>
</glyph>
<glyph name="uni0327" format="1">
  <advance width="0"/>
  <unicode hex="0327"/>
  <note>
	uni0327
  </note>
  <outline>
    <contour>
      <point x="-88" y="-216"/>
      <point x="-54" y="-186"/>
      <point x="-54" y="-128" type="curve" smooth="yes"/>
      <point x="-54" y="-82"/>
      <point x="-77" y="-52"/>
      <point x="-133" y="-52" type="curve" smooth="yes"/>
      <point x="-148" y="-52"/>
      <point x="-161" y="-54"/>
      <point x="-172" y="-59" type="curve"/>
      <point x="-130" y="0" type="line"/>
      <point x="-186" y="11" type="line"/>
      <point x="-250" y="-66" type="line"/>
      <point x="-207" y="-109" type="line"/>
      <point x="-197" y="-104"/>
      <point x="-182" y="-101"/>
      <point x="-167" y="-101" type="curve" smooth="yes"/>
      <point x="-140" y="-101"/>
      <point x="-122" y="-109"/>
      <point x="-122" y="-131" type="curve" smooth="yes"/>
      <point x="-122" y="-142"/>
      <point x="-123" y="-148"/>
      <point x="-126" y="-157" type="curve"/>
      <point x="-141" y="-160"/>
      <point x="-155" y="-161"/>
      <point x="-173" y="-161" type="curve" smooth="yes"/>
      <point x="-191" y="-161"/>
      <point x="-220" y="-157"/>
      <point x="-238" y="-150" type="curve"/>
      <point x="-255" y="-199" type="line"/>
      <point x="-225" y="-213"/>
      <point x="-194" y="-216"/>
      <point x="-166" y="-216" type="curve" smooth="yes"/>
    </contour>
  </outline>
</glyph>
<glyph name="koKai-thai" format="1">
  <advance width="556"/>
  <unicode hex="0E01"/>
  <note>
	koKai-thai
  </note>
  <outline>
    <contour>
      <point x="155" y="0" type="line"/>
      <point x="195" y="283" type="line" smooth="yes"/>
      <point x="198" y="306"/>
      <point x="198" y="324"/>
      <point x="184" y="341" type="curve" smooth="yes"/>
      <point x="126" y="410" type="line"/>
      <point x="126" y="413" type="line"/>
      <point x="164" y="442"/>
      <point x="220" y="452"/>
      <point x="285" y="452" type="curve" smooth="yes"/>
      <point x="333" y="452"/>
      <point x="374" y="441"/>
      <point x="398" y="428" type="curve"/>
      <point x="398" y="0" type="line"/>
      <point x="482" y="0" type="line"/>
      <point x="482" y="389" type="line" smooth="yes"/>
      <point x="482" y="448"/>
      <point x="439" y="526"/>
      <point x="292" y="526" type="curve" smooth="yes"/>
      <point x="188" y="526"/>
      <point x="115" y="490"/>
      <point x="54" y="445" type="curve"/>
      <point x="54" y="390" type="line"/>
      <point x="116" y="310" type="line"/>
      <point x="73" y="0" type="line"/>
    </contour>
  </outline>
</glyph>
<glyph name="khoKhwai-thai" format="1">
  <advance width="577"/>
  <unicode hex="0E04"/>
  <note>
	khoKhwai-thai
  </note>
  <outline>
    <contour>
      <point x="147" y="0" type="line"/>
      <point x="199" y="183" type="line"/>
      <point x="224" y="201"/>
      <point x="248" y="212"/>
      <point x="268" y="215" type="curve"/>
      <point x="276" y="173" type="line"/>
      <point x="341" y="173" type="line"/>
      <point x="347" y="198"/>
      <point x="349" y="234"/>
      <point x="348" y="257" type="curve" smooth="yes"/>
      <point x="347" y="276" type="line"/>
      <point x="281" y="291" type="line"/>
      <point x="226" y="274"/>
      <point x="187" y="242"/>
      <point x="156" y="207" type="curve"/>
      <point x="149" y="207" type="line"/>
      <point x="135" y="242"/>
      <point x="128" y="277"/>
      <point x="128" y="317" type="curve" smooth="yes"/>
      <point x="128" y="418"/>
      <point x="182" y="450"/>
      <point x="290" y="450" type="curve" smooth="yes"/>
      <point x="334" y="450"/>
      <point x="394" y="442"/>
      <point x="419" y="432" type="curve"/>
      <point x="419" y="0" type="line"/>
      <point x="503" y="0" type="line"/>
      <point x="503" y="383" type="line" smooth="yes"/>
      <point x="503" y="468"/>
      <point x="422" y="526"/>
      <point x="293" y="526" type="curve" smooth="yes"/>
      <point x="132" y="526"/>
      <point x="45" y="452"/>
      <point x="45" y="320" type="curve" smooth="yes"/>
      <point x="45" y="248"/>
      <point x="72" y="188"/>
      <point x="110" y="131" type="curve"/>
      <point x="61" y="0" type="line"/>
    </contour>
  </outline>
</glyph>
<glyph name="khoRakhang-thai" format="1">
  <advance width="570"/>
  <unicode hex="0E06"/>
  <note>
	khoRakhang-thai
  </note>
  <outline>
    <contour>
      <point x="440" y="-10"/>
      <point x="496" y="27"/>
      <point x="496" y="107" type="curve" smooth="yes"/>
      <point x="496" y="516" type="line"/>
      <point x="412" y="516" type="line"/>
      <point x="412" y="77" type="line"/>
      <point x="387" y="68"/>
      <point x="359" y="66"/>
      <point x="330" y="66" type="curve" smooth="yes"/>
      <point x="265" y="66"/>
      <point x="212" y="85"/>
      <point x="165" y="126" type="curve"/>
      <point x="165" y="219" type="line" smooth="yes"/>
      <point x="165" y="303"/>
      <point x="265" y="316"/>
      <point x="265" y="409" type="curve" smooth="yes"/>
      <point x="265" y="452"/>
      <point x="257" y="481"/>
      <point x="240" y="516" type="curve"/>
      <point x="164" y="516" type="line"/>
      <point x="160" y="482"/>
      <point x="149" y="456"/>
      <point x="123" y="456" type="curve" smooth="yes"/>
      <point x="120" y="456"/>
      <point x="117" y="456"/>
      <point x="114" y="457" type="curve"/>
      <point x="114" y="516" type="line"/>
      <point x="54" y="516" type="line"/>
      <point x="50" y="500"/>
      <point x="49" y="486"/>
      <point x="49" y="473" type="curve" smooth="yes"/>
      <point x="49" y="428"/>
      <point x="70" y="401"/>
      <point x="109" y="401" type="curve" smooth="yes"/>
      <point x="142" y="401"/>
      <point x="160" y="413"/>
      <point x="175" y="433" type="curve"/>
      <point x="180" y="433" type="line"/>
      <point x="184" y="423"/>
      <point x="185" y="416"/>
      <point x="185" y="404" type="curve" smooth="yes"/>
      <point x="185" y="351"/>
      <point x="81" y="328"/>
      <point x="81" y="235" type="curve" smooth="yes"/>
      <point x="81" y="0" type="line"/>
      <point x="158" y="0" type="line"/>
      <point x="163" y="65" type="line"/>
      <point x="171" y="65" type="line"/>
      <point x="219" y="12"/>
      <point x="282" y="-10"/>
      <point x="348" y="-10" type="curve" smooth="yes"/>
    </contour>
  </outline>
</glyph>
<glyph name="choChang-thai" format="1">
  <advance width="511"/>
  <unicode hex="0E0A"/>
  <note>
	choChang-thai
  </note>
  <outline>
    <contour>
      <point x="382" y="-10"/>
      <point x="437" y="77"/>
      <point x="437" y="161" type="curve" smooth="yes"/>
      <point x="437" y="262" type="line" smooth="yes"/>
      <point x="437" y="325"/>
      <point x="405" y="350"/>
      <point x="352" y="368" type="curve"/>
      <point x="352" y="372" type="line"/>
      <point x="389" y="380"/>
      <point x="414" y="398"/>
      <point x="426" y="425" type="curve" smooth="yes"/>
      <point x="436" y="448"/>
      <point x="445" y="480"/>
      <point x="447" y="510" type="curve"/>
      <point x="360" y="526" type="line"/>
      <point x="359" y="492"/>
      <point x="353" y="468"/>
      <point x="348" y="443" type="curve" smooth="yes"/>
      <point x="343" y="419"/>
      <point x="325" y="392"/>
      <point x="279" y="392" type="curve"/>
      <point x="279" y="332" type="line"/>
      <point x="329" y="319"/>
      <point x="353" y="302"/>
      <point x="353" y="249" type="curve" smooth="yes"/>
      <point x="353" y="76" type="line"/>
      <point x="331" y="71"/>
      <point x="291" y="66"/>
      <point x="249" y="66" type="curve" smooth="yes"/>
      <point x="161" y="66"/>
      <point x="135" y="99"/>
      <point x="135" y="156" type="curve" smooth="yes"/>
      <point x="135" y="219" type="line" smooth="yes"/>
      <point x="135" y="303"/>
      <point x="212" y="333"/>
      <point x="212" y="418" type="curve" smooth="yes"/>
      <point x="212" y="468"/>
      <point x="189" y="516"/>
      <point x="107" y="516" type="curve" smooth="yes"/>
      <point x="50" y="516" type="line"/>
      <point x="50" y="444" type="line"/>
      <point x="95" y="444" type="line" smooth="yes"/>
      <point x="115" y="444"/>
      <point x="128" y="435"/>
      <point x="128" y="411" type="curve" smooth="yes"/>
      <point x="128" y="348"/>
      <point x="51" y="328"/>
      <point x="51" y="235" type="curve" smooth="yes"/>
      <point x="51" y="161" type="line" smooth="yes"/>
      <point x="51" y="73"/>
      <point x="91" y="-10"/>
      <point x="249" y="-10" type="curve" smooth="yes"/>
    </contour>
  </outline>
</glyph>
